%TF.GenerationSoftware,KiCad,Pcbnew,6.0.11-2627ca5db0~126~ubuntu22.04.1*%
%TF.CreationDate,2023-05-12T21:42:37+02:00*%
%TF.ProjectId,Etherwave-GateCV,45746865-7277-4617-9665-2d4761746543,rev?*%
%TF.SameCoordinates,Original*%
%TF.FileFunction,Copper,L1,Top*%
%TF.FilePolarity,Positive*%
%FSLAX46Y46*%
G04 Gerber Fmt 4.6, Leading zero omitted, Abs format (unit mm)*
G04 Created by KiCad (PCBNEW 6.0.11-2627ca5db0~126~ubuntu22.04.1) date 2023-05-12 21:42:37*
%MOMM*%
%LPD*%
G01*
G04 APERTURE LIST*
G04 Aperture macros list*
%AMRoundRect*
0 Rectangle with rounded corners*
0 $1 Rounding radius*
0 $2 $3 $4 $5 $6 $7 $8 $9 X,Y pos of 4 corners*
0 Add a 4 corners polygon primitive as box body*
4,1,4,$2,$3,$4,$5,$6,$7,$8,$9,$2,$3,0*
0 Add four circle primitives for the rounded corners*
1,1,$1+$1,$2,$3*
1,1,$1+$1,$4,$5*
1,1,$1+$1,$6,$7*
1,1,$1+$1,$8,$9*
0 Add four rect primitives between the rounded corners*
20,1,$1+$1,$2,$3,$4,$5,0*
20,1,$1+$1,$4,$5,$6,$7,0*
20,1,$1+$1,$6,$7,$8,$9,0*
20,1,$1+$1,$8,$9,$2,$3,0*%
G04 Aperture macros list end*
%TA.AperFunction,NonConductor*%
%ADD10C,0.100000*%
%TD*%
%TA.AperFunction,NonConductor*%
%ADD11C,0.150000*%
%TD*%
%ADD12C,0.400000*%
%TA.AperFunction,NonConductor*%
%ADD13C,0.400000*%
%TD*%
%TA.AperFunction,SMDPad,CuDef*%
%ADD14RoundRect,0.237500X-0.300000X-0.237500X0.300000X-0.237500X0.300000X0.237500X-0.300000X0.237500X0*%
%TD*%
%TA.AperFunction,SMDPad,CuDef*%
%ADD15RoundRect,0.237500X0.237500X-0.250000X0.237500X0.250000X-0.237500X0.250000X-0.237500X-0.250000X0*%
%TD*%
%TA.AperFunction,ComponentPad*%
%ADD16RoundRect,0.250000X0.845000X-0.620000X0.845000X0.620000X-0.845000X0.620000X-0.845000X-0.620000X0*%
%TD*%
%TA.AperFunction,ComponentPad*%
%ADD17O,2.190000X1.740000*%
%TD*%
%TA.AperFunction,SMDPad,CuDef*%
%ADD18RoundRect,0.250000X1.450000X-0.537500X1.450000X0.537500X-1.450000X0.537500X-1.450000X-0.537500X0*%
%TD*%
%TA.AperFunction,SMDPad,CuDef*%
%ADD19RoundRect,0.237500X0.237500X-0.300000X0.237500X0.300000X-0.237500X0.300000X-0.237500X-0.300000X0*%
%TD*%
%TA.AperFunction,SMDPad,CuDef*%
%ADD20RoundRect,0.150000X-0.150000X0.825000X-0.150000X-0.825000X0.150000X-0.825000X0.150000X0.825000X0*%
%TD*%
%TA.AperFunction,SMDPad,CuDef*%
%ADD21RoundRect,0.237500X-0.237500X0.250000X-0.237500X-0.250000X0.237500X-0.250000X0.237500X0.250000X0*%
%TD*%
%TA.AperFunction,SMDPad,CuDef*%
%ADD22RoundRect,0.237500X0.300000X0.237500X-0.300000X0.237500X-0.300000X-0.237500X0.300000X-0.237500X0*%
%TD*%
%TA.AperFunction,SMDPad,CuDef*%
%ADD23RoundRect,0.237500X-0.250000X-0.237500X0.250000X-0.237500X0.250000X0.237500X-0.250000X0.237500X0*%
%TD*%
%TA.AperFunction,SMDPad,CuDef*%
%ADD24RoundRect,0.237500X-0.237500X0.300000X-0.237500X-0.300000X0.237500X-0.300000X0.237500X0.300000X0*%
%TD*%
%TA.AperFunction,SMDPad,CuDef*%
%ADD25RoundRect,0.237500X0.250000X0.237500X-0.250000X0.237500X-0.250000X-0.237500X0.250000X-0.237500X0*%
%TD*%
%TA.AperFunction,SMDPad,CuDef*%
%ADD26R,1.900000X0.800000*%
%TD*%
%TA.AperFunction,SMDPad,CuDef*%
%ADD27RoundRect,0.150000X-0.587500X-0.150000X0.587500X-0.150000X0.587500X0.150000X-0.587500X0.150000X0*%
%TD*%
%TA.AperFunction,SMDPad,CuDef*%
%ADD28R,0.400000X1.500000*%
%TD*%
%TA.AperFunction,ComponentPad*%
%ADD29C,1.440000*%
%TD*%
%TA.AperFunction,SMDPad,CuDef*%
%ADD30R,1.000000X1.000000*%
%TD*%
%TA.AperFunction,SMDPad,CuDef*%
%ADD31RoundRect,0.100000X-0.100000X0.637500X-0.100000X-0.637500X0.100000X-0.637500X0.100000X0.637500X0*%
%TD*%
%TA.AperFunction,SMDPad,CuDef*%
%ADD32RoundRect,0.100000X0.100000X-0.637500X0.100000X0.637500X-0.100000X0.637500X-0.100000X-0.637500X0*%
%TD*%
%TA.AperFunction,SMDPad,CuDef*%
%ADD33RoundRect,0.150000X0.150000X-0.825000X0.150000X0.825000X-0.150000X0.825000X-0.150000X-0.825000X0*%
%TD*%
%TA.AperFunction,ComponentPad*%
%ADD34RoundRect,0.250000X-0.845000X0.620000X-0.845000X-0.620000X0.845000X-0.620000X0.845000X0.620000X0*%
%TD*%
%TA.AperFunction,ViaPad*%
%ADD35C,0.800000*%
%TD*%
%TA.AperFunction,Conductor*%
%ADD36C,0.350000*%
%TD*%
%TA.AperFunction,Conductor*%
%ADD37C,0.250000*%
%TD*%
%TA.AperFunction,Conductor*%
%ADD38C,1.500000*%
%TD*%
%TA.AperFunction,Conductor*%
%ADD39C,0.500000*%
%TD*%
%TA.AperFunction,Conductor*%
%ADD40C,1.000000*%
%TD*%
G04 APERTURE END LIST*
D10*
G36*
X78000000Y-106750000D02*
G01*
X76500000Y-107750000D01*
X75000000Y-106750000D01*
X75000000Y-106250000D01*
X78000000Y-106250000D01*
X78000000Y-106750000D01*
G37*
X78000000Y-106750000D02*
X76500000Y-107750000D01*
X75000000Y-106750000D01*
X75000000Y-106250000D01*
X78000000Y-106250000D01*
X78000000Y-106750000D01*
G36*
X78000000Y-105250000D02*
G01*
X78000000Y-105750000D01*
X75000000Y-105750000D01*
X75000000Y-105250000D01*
X76500000Y-104250000D01*
X78000000Y-105250000D01*
G37*
X78000000Y-105250000D02*
X78000000Y-105750000D01*
X75000000Y-105750000D01*
X75000000Y-105250000D01*
X76500000Y-104250000D01*
X78000000Y-105250000D01*
D11*
X78500000Y-106000000D02*
G75*
G03*
X78500000Y-106000000I-2000000J0D01*
G01*
D12*
D13*
X80976190Y-107833333D02*
X80309523Y-106166666D01*
X79833333Y-107833333D02*
X79833333Y-104333333D01*
X80595238Y-104333333D01*
X80785714Y-104500000D01*
X80880952Y-104666666D01*
X80976190Y-105000000D01*
X80976190Y-105500000D01*
X80880952Y-105833333D01*
X80785714Y-106000000D01*
X80595238Y-106166666D01*
X79833333Y-106166666D01*
X81833333Y-107833333D02*
X81833333Y-104333333D01*
X81833333Y-106000000D02*
X82976190Y-106000000D01*
X82976190Y-107833333D02*
X82976190Y-104333333D01*
X83928571Y-106500000D02*
X85452380Y-106500000D01*
X87071428Y-106000000D02*
X87357142Y-106166666D01*
X87452380Y-106333333D01*
X87547619Y-106666666D01*
X87547619Y-107166666D01*
X87452380Y-107500000D01*
X87357142Y-107666666D01*
X87166666Y-107833333D01*
X86404761Y-107833333D01*
X86404761Y-104333333D01*
X87071428Y-104333333D01*
X87261904Y-104500000D01*
X87357142Y-104666666D01*
X87452380Y-105000000D01*
X87452380Y-105333333D01*
X87357142Y-105666666D01*
X87261904Y-105833333D01*
X87071428Y-106000000D01*
X86404761Y-106000000D01*
X88785714Y-104333333D02*
X88976190Y-104333333D01*
X89166666Y-104500000D01*
X89261904Y-104666666D01*
X89357142Y-105000000D01*
X89452380Y-105666666D01*
X89452380Y-106500000D01*
X89357142Y-107166666D01*
X89261904Y-107500000D01*
X89166666Y-107666666D01*
X88976190Y-107833333D01*
X88785714Y-107833333D01*
X88595238Y-107666666D01*
X88500000Y-107500000D01*
X88404761Y-107166666D01*
X88309523Y-106500000D01*
X88309523Y-105666666D01*
X88404761Y-105000000D01*
X88500000Y-104666666D01*
X88595238Y-104500000D01*
X88785714Y-104333333D01*
X90690476Y-104333333D02*
X90880952Y-104333333D01*
X91071428Y-104500000D01*
X91166666Y-104666666D01*
X91261904Y-105000000D01*
X91357142Y-105666666D01*
X91357142Y-106500000D01*
X91261904Y-107166666D01*
X91166666Y-107500000D01*
X91071428Y-107666666D01*
X90880952Y-107833333D01*
X90690476Y-107833333D01*
X90500000Y-107666666D01*
X90404761Y-107500000D01*
X90309523Y-107166666D01*
X90214285Y-106500000D01*
X90214285Y-105666666D01*
X90309523Y-105000000D01*
X90404761Y-104666666D01*
X90500000Y-104500000D01*
X90690476Y-104333333D01*
X92119047Y-104666666D02*
X92214285Y-104500000D01*
X92404761Y-104333333D01*
X92880952Y-104333333D01*
X93071428Y-104500000D01*
X93166666Y-104666666D01*
X93261904Y-105000000D01*
X93261904Y-105333333D01*
X93166666Y-105833333D01*
X92023809Y-107833333D01*
X93261904Y-107833333D01*
D14*
%TO.P,C1,1*%
%TO.N,Net-(C1-Pad1)*%
X70887500Y-79000000D03*
%TO.P,C1,2*%
%TO.N,GND*%
X72612500Y-79000000D03*
%TD*%
D15*
%TO.P,R14,1*%
%TO.N,Net-(R14-Pad1)*%
X72500000Y-94662500D03*
%TO.P,R14,2*%
%TO.N,Net-(C11-Pad1)*%
X72500000Y-92837500D03*
%TD*%
D16*
%TO.P,J1,1,Pin_1*%
%TO.N,GND*%
X60020000Y-81930000D03*
D17*
%TO.P,J1,2,Pin_2*%
%TO.N,Net-(J1-Pad2)*%
X60020000Y-79390000D03*
%TO.P,J1,3,Pin_3*%
%TO.N,Net-(C1-Pad1)*%
X60020000Y-76850000D03*
%TO.P,J1,4,Pin_4*%
%TO.N,Net-(J1-Pad4)*%
X60020000Y-74310000D03*
%TO.P,J1,5,Pin_5*%
%TO.N,-12V*%
X60020000Y-71770000D03*
%TO.P,J1,6,Pin_6*%
%TO.N,+12V*%
X60020000Y-69230000D03*
%TO.P,J1,7,Pin_7*%
%TO.N,Net-(C4-Pad1)*%
X60020000Y-66690000D03*
%TO.P,J1,8,Pin_8*%
%TO.N,unconnected-(J1-Pad8)*%
X60020000Y-64150000D03*
%TO.P,J1,9,Pin_9*%
%TO.N,unconnected-(J1-Pad9)*%
X60020000Y-61610000D03*
%TO.P,J1,10,Pin_10*%
%TO.N,unconnected-(J1-Pad10)*%
X60020000Y-59070000D03*
%TD*%
D15*
%TO.P,R5,1*%
%TO.N,Net-(C4-Pad2)*%
X71500000Y-68162500D03*
%TO.P,R5,2*%
%TO.N,GND*%
X71500000Y-66337500D03*
%TD*%
D18*
%TO.P,C13,1*%
%TO.N,Net-(C13-Pad1)*%
X93750000Y-63637500D03*
%TO.P,C13,2*%
%TO.N,GND*%
X93750000Y-59362500D03*
%TD*%
D19*
%TO.P,C14,1*%
%TO.N,Net-(C14-Pad1)*%
X102250000Y-69612500D03*
%TO.P,C14,2*%
%TO.N,Net-(C14-Pad2)*%
X102250000Y-67887500D03*
%TD*%
D15*
%TO.P,R40,1*%
%TO.N,Net-(R40-Pad1)*%
X99750000Y-76912500D03*
%TO.P,R40,2*%
%TO.N,Net-(C12-Pad1)*%
X99750000Y-75087500D03*
%TD*%
%TO.P,R3,1*%
%TO.N,Net-(J1-Pad4)*%
X71500000Y-72162500D03*
%TO.P,R3,2*%
%TO.N,Net-(D4-Pad3)*%
X71500000Y-70337500D03*
%TD*%
D19*
%TO.P,C18,1*%
%TO.N,GND*%
X95750000Y-72112500D03*
%TO.P,C18,2*%
%TO.N,-12V*%
X95750000Y-70387500D03*
%TD*%
D16*
%TO.P,J4,1,Pin_1*%
%TO.N,GND*%
X60020000Y-102290000D03*
D17*
%TO.P,J4,2,Pin_2*%
%TO.N,unconnected-(J4-Pad2)*%
X60020000Y-99750000D03*
%TO.P,J4,3,Pin_3*%
%TO.N,Net-(D3-Pad3)*%
X60020000Y-97210000D03*
%TD*%
D20*
%TO.P,U6,1*%
%TO.N,Net-(R40-Pad1)*%
X100810000Y-79525000D03*
%TO.P,U6,2*%
%TO.N,GND*%
X99540000Y-79525000D03*
%TO.P,U6,3*%
X98270000Y-79525000D03*
%TO.P,U6,4*%
%TO.N,Net-(R40-Pad1)*%
X97000000Y-79525000D03*
%TO.P,U6,5*%
%TO.N,Net-(U4-Pad7)*%
X95730000Y-79525000D03*
%TO.P,U6,6*%
%TO.N,Net-(U4-Pad3)*%
X94460000Y-79525000D03*
%TO.P,U6,7,VSS*%
%TO.N,GND*%
X93190000Y-79525000D03*
%TO.P,U6,8*%
%TO.N,Net-(R27-Pad1)*%
X93190000Y-84475000D03*
%TO.P,U6,9*%
%TO.N,Net-(C13-Pad1)*%
X94460000Y-84475000D03*
%TO.P,U6,10*%
X95730000Y-84475000D03*
%TO.P,U6,11*%
%TO.N,Net-(R27-Pad1)*%
X97000000Y-84475000D03*
%TO.P,U6,12*%
%TO.N,Net-(U4-Pad3)*%
X98270000Y-84475000D03*
%TO.P,U6,13*%
%TO.N,Net-(U4-Pad7)*%
X99540000Y-84475000D03*
%TO.P,U6,14,VDD*%
%TO.N,+12V*%
X100810000Y-84475000D03*
%TD*%
D21*
%TO.P,R10,1*%
%TO.N,Net-(R10-Pad1)*%
X79000000Y-74587500D03*
%TO.P,R10,2*%
%TO.N,Net-(R10-Pad2)*%
X79000000Y-76412500D03*
%TD*%
D22*
%TO.P,C20,1*%
%TO.N,GND*%
X109612500Y-76750000D03*
%TO.P,C20,2*%
%TO.N,-12V*%
X107887500Y-76750000D03*
%TD*%
D15*
%TO.P,R7,1*%
%TO.N,GND*%
X76500000Y-76412500D03*
%TO.P,R7,2*%
%TO.N,Net-(R7-Pad2)*%
X76500000Y-74587500D03*
%TD*%
D22*
%TO.P,C6,1*%
%TO.N,GND*%
X84362500Y-64000000D03*
%TO.P,C6,2*%
%TO.N,+12V*%
X82637500Y-64000000D03*
%TD*%
D14*
%TO.P,C15,1*%
%TO.N,Net-(C15-Pad1)*%
X109137500Y-90000000D03*
%TO.P,C15,2*%
%TO.N,Net-(C15-Pad2)*%
X110862500Y-90000000D03*
%TD*%
D15*
%TO.P,R27,1*%
%TO.N,Net-(R27-Pad1)*%
X90500000Y-85162500D03*
%TO.P,R27,2*%
%TO.N,Net-(D1-Pad1)*%
X90500000Y-83337500D03*
%TD*%
D23*
%TO.P,R31,1*%
%TO.N,+12V*%
X104837500Y-90000000D03*
%TO.P,R31,2*%
%TO.N,Net-(C15-Pad1)*%
X106662500Y-90000000D03*
%TD*%
D19*
%TO.P,C11,1*%
%TO.N,Net-(C11-Pad1)*%
X72500000Y-90362500D03*
%TO.P,C11,2*%
%TO.N,Net-(C11-Pad2)*%
X72500000Y-88637500D03*
%TD*%
D24*
%TO.P,C22,1*%
%TO.N,GND*%
X75500000Y-89887500D03*
%TO.P,C22,2*%
%TO.N,+12V*%
X75500000Y-91612500D03*
%TD*%
D25*
%TO.P,R24,1*%
%TO.N,Net-(D3-Pad3)*%
X84662500Y-90000000D03*
%TO.P,R24,2*%
%TO.N,GND*%
X82837500Y-90000000D03*
%TD*%
D23*
%TO.P,R20,1*%
%TO.N,+12V*%
X87337500Y-98250000D03*
%TO.P,R20,2*%
%TO.N,Net-(Q1-Pad3)*%
X89162500Y-98250000D03*
%TD*%
D26*
%TO.P,Q2,1,B*%
%TO.N,GND*%
X94000000Y-75050000D03*
%TO.P,Q2,2,E*%
%TO.N,Net-(Q2-Pad2)*%
X94000000Y-76950000D03*
%TO.P,Q2,3,C*%
%TO.N,Net-(Q2-Pad3)*%
X97000000Y-76000000D03*
%TD*%
D24*
%TO.P,C19,1*%
%TO.N,GND*%
X114250000Y-83137500D03*
%TO.P,C19,2*%
%TO.N,+12V*%
X114250000Y-84862500D03*
%TD*%
D19*
%TO.P,C7,1*%
%TO.N,GND*%
X84000000Y-76362500D03*
%TO.P,C7,2*%
%TO.N,-12V*%
X84000000Y-74637500D03*
%TD*%
D25*
%TO.P,R22,1*%
%TO.N,Net-(Q1-Pad1)*%
X91912500Y-88000000D03*
%TO.P,R22,2*%
%TO.N,Net-(D4-Pad3)*%
X90087500Y-88000000D03*
%TD*%
D21*
%TO.P,R34,1*%
%TO.N,Net-(D5-Pad3)*%
X99750000Y-67837500D03*
%TO.P,R34,2*%
%TO.N,Net-(C14-Pad2)*%
X99750000Y-69662500D03*
%TD*%
%TO.P,R4,1*%
%TO.N,-12V*%
X68500000Y-72087500D03*
%TO.P,R4,2*%
%TO.N,Net-(J1-Pad4)*%
X68500000Y-73912500D03*
%TD*%
D23*
%TO.P,R23,1*%
%TO.N,Net-(R23-Pad1)*%
X82837500Y-93000000D03*
%TO.P,R23,2*%
%TO.N,Net-(D3-Pad3)*%
X84662500Y-93000000D03*
%TD*%
D15*
%TO.P,R11,1*%
%TO.N,+12V*%
X81500000Y-76412500D03*
%TO.P,R11,2*%
%TO.N,Net-(R10-Pad2)*%
X81500000Y-74587500D03*
%TD*%
D20*
%TO.P,U7,1*%
%TO.N,Net-(RV1-Pad1)*%
X111905000Y-79525000D03*
%TO.P,U7,2,-*%
%TO.N,Net-(C14-Pad1)*%
X110635000Y-79525000D03*
%TO.P,U7,3,+*%
%TO.N,GND*%
X109365000Y-79525000D03*
%TO.P,U7,4,V-*%
%TO.N,-12V*%
X108095000Y-79525000D03*
%TO.P,U7,5,+*%
%TO.N,GND*%
X108095000Y-84475000D03*
%TO.P,U7,6,-*%
%TO.N,Net-(C15-Pad1)*%
X109365000Y-84475000D03*
%TO.P,U7,7*%
%TO.N,Net-(C15-Pad2)*%
X110635000Y-84475000D03*
%TO.P,U7,8,V+*%
%TO.N,+12V*%
X111905000Y-84475000D03*
%TD*%
D15*
%TO.P,R28,1*%
%TO.N,Net-(C14-Pad1)*%
X102250000Y-76912500D03*
%TO.P,R28,2*%
%TO.N,Net-(R28-Pad2)*%
X102250000Y-75087500D03*
%TD*%
D27*
%TO.P,D4,1*%
%TO.N,GND*%
X87312500Y-90300000D03*
%TO.P,D4,2*%
%TO.N,+12V*%
X87312500Y-92200000D03*
%TO.P,D4,3*%
%TO.N,Net-(D4-Pad3)*%
X89187500Y-91250000D03*
%TD*%
D28*
%TO.P,Q3,1,B1*%
%TO.N,Net-(Q3-Pad1)*%
X105150000Y-80670000D03*
%TO.P,Q3,2,B2*%
%TO.N,GND*%
X104500000Y-80670000D03*
%TO.P,Q3,3,C2*%
%TO.N,Net-(C14-Pad1)*%
X103850000Y-80670000D03*
%TO.P,Q3,4,E2*%
%TO.N,Net-(Q3-Pad4)*%
X103850000Y-83330000D03*
%TO.P,Q3,5,E1*%
X104500000Y-83330000D03*
%TO.P,Q3,6,C1*%
%TO.N,Net-(C15-Pad1)*%
X105150000Y-83330000D03*
%TD*%
D25*
%TO.P,R12,1*%
%TO.N,+12V*%
X78412500Y-87500000D03*
%TO.P,R12,2*%
%TO.N,Net-(C8-Pad1)*%
X76587500Y-87500000D03*
%TD*%
D23*
%TO.P,R18,1*%
%TO.N,+12V*%
X87337500Y-95250000D03*
%TO.P,R18,2*%
%TO.N,Net-(Q1-Pad2)*%
X89162500Y-95250000D03*
%TD*%
D27*
%TO.P,D5,1*%
%TO.N,-12V*%
X100062500Y-63550000D03*
%TO.P,D5,2*%
%TO.N,+12V*%
X100062500Y-65450000D03*
%TO.P,D5,3*%
%TO.N,Net-(D5-Pad3)*%
X101937500Y-64500000D03*
%TD*%
D15*
%TO.P,R16,1*%
%TO.N,+12V*%
X69500000Y-98912500D03*
%TO.P,R16,2*%
%TO.N,Net-(R15-Pad1)*%
X69500000Y-97087500D03*
%TD*%
D21*
%TO.P,R6,1*%
%TO.N,Net-(R6-Pad1)*%
X74000000Y-74587500D03*
%TO.P,R6,2*%
%TO.N,GND*%
X74000000Y-76412500D03*
%TD*%
D15*
%TO.P,R19,1*%
%TO.N,Net-(Q1-Pad2)*%
X91750000Y-92162500D03*
%TO.P,R19,2*%
%TO.N,GND*%
X91750000Y-90337500D03*
%TD*%
D27*
%TO.P,D3,1*%
%TO.N,GND*%
X82812500Y-96050000D03*
%TO.P,D3,2*%
%TO.N,+12V*%
X82812500Y-97950000D03*
%TO.P,D3,3*%
%TO.N,Net-(D3-Pad3)*%
X84687500Y-97000000D03*
%TD*%
D25*
%TO.P,R30,1*%
%TO.N,Net-(Q3-Pad4)*%
X105412500Y-87500000D03*
%TO.P,R30,2*%
%TO.N,Net-(C15-Pad2)*%
X103587500Y-87500000D03*
%TD*%
D29*
%TO.P,RV2,1,1*%
%TO.N,-12V*%
X107000000Y-64790000D03*
%TO.P,RV2,2,2*%
%TO.N,Net-(R33-Pad1)*%
X107000000Y-62250000D03*
%TO.P,RV2,3,3*%
%TO.N,+12V*%
X107000000Y-59710000D03*
%TD*%
D14*
%TO.P,C21,1*%
%TO.N,GND*%
X86137500Y-88000000D03*
%TO.P,C21,2*%
%TO.N,+12V*%
X87862500Y-88000000D03*
%TD*%
D19*
%TO.P,C10,1*%
%TO.N,Net-(C10-Pad1)*%
X69500000Y-90362500D03*
%TO.P,C10,2*%
%TO.N,Net-(C10-Pad2)*%
X69500000Y-88637500D03*
%TD*%
D15*
%TO.P,R15,1*%
%TO.N,Net-(R15-Pad1)*%
X69500000Y-94662500D03*
%TO.P,R15,2*%
%TO.N,Net-(C10-Pad1)*%
X69500000Y-92837500D03*
%TD*%
%TO.P,R2,1*%
%TO.N,Net-(C1-Pad1)*%
X71500000Y-76412500D03*
%TO.P,R2,2*%
%TO.N,+12V*%
X71500000Y-74587500D03*
%TD*%
%TO.P,R21,1*%
%TO.N,Net-(Q1-Pad4)*%
X94750000Y-92162500D03*
%TO.P,R21,2*%
%TO.N,-12V*%
X94750000Y-90337500D03*
%TD*%
D30*
%TO.P,D2,1,K*%
%TO.N,Net-(C15-Pad1)*%
X108750000Y-87500000D03*
%TO.P,D2,2,A*%
%TO.N,Net-(C15-Pad2)*%
X111250000Y-87500000D03*
%TD*%
D31*
%TO.P,U4,1,Q1*%
%TO.N,Net-(R26-Pad1)*%
X88275000Y-79137500D03*
%TO.P,U4,2,Q0*%
%TO.N,Net-(R25-Pad1)*%
X87625000Y-79137500D03*
%TO.P,U4,3,Q2*%
%TO.N,Net-(U4-Pad3)*%
X86975000Y-79137500D03*
%TO.P,U4,4,Q5*%
%TO.N,unconnected-(U4-Pad4)*%
X86325000Y-79137500D03*
%TO.P,U4,5,Q6*%
%TO.N,unconnected-(U4-Pad5)*%
X85675000Y-79137500D03*
%TO.P,U4,6*%
%TO.N,N/C*%
X85025000Y-79137500D03*
%TO.P,U4,7,Q3*%
%TO.N,Net-(U4-Pad7)*%
X84375000Y-79137500D03*
%TO.P,U4,8,VSS*%
%TO.N,GND*%
X83725000Y-79137500D03*
%TO.P,U4,9*%
%TO.N,N/C*%
X83725000Y-84862500D03*
%TO.P,U4,10,Q7*%
%TO.N,unconnected-(U4-Pad10)*%
X84375000Y-84862500D03*
%TO.P,U4,11,Q4*%
%TO.N,unconnected-(U4-Pad11)*%
X85025000Y-84862500D03*
%TO.P,U4,12,Cout*%
%TO.N,Net-(U2-Pad12)*%
X85675000Y-84862500D03*
%TO.P,U4,13,CKEN*%
%TO.N,GND*%
X86325000Y-84862500D03*
%TO.P,U4,14,CLK*%
%TO.N,Net-(U2-Pad10)*%
X86975000Y-84862500D03*
%TO.P,U4,15,Reset*%
%TO.N,Net-(U2-Pad11)*%
X87625000Y-84862500D03*
%TO.P,U4,16,VDD*%
%TO.N,+12V*%
X88275000Y-84862500D03*
%TD*%
D28*
%TO.P,Q1,1,B1*%
%TO.N,Net-(Q1-Pad1)*%
X92900000Y-94920000D03*
%TO.P,Q1,2,B2*%
%TO.N,Net-(Q1-Pad2)*%
X92250000Y-94920000D03*
%TO.P,Q1,3,C2*%
%TO.N,Net-(Q1-Pad3)*%
X91600000Y-94920000D03*
%TO.P,Q1,4,E2*%
%TO.N,Net-(Q1-Pad4)*%
X91600000Y-97580000D03*
%TO.P,Q1,5,E1*%
X92250000Y-97580000D03*
%TO.P,Q1,6,C1*%
%TO.N,+12V*%
X92900000Y-97580000D03*
%TD*%
D32*
%TO.P,U3,1*%
%TO.N,Net-(R15-Pad1)*%
X75550000Y-100112500D03*
%TO.P,U3,2*%
%TO.N,Net-(R14-Pad1)*%
X76200000Y-100112500D03*
%TO.P,U3,3*%
%TO.N,Net-(U3-Pad3)*%
X76850000Y-100112500D03*
%TO.P,U3,4*%
%TO.N,Net-(U3-Pad4)*%
X77500000Y-100112500D03*
%TO.P,U3,5*%
%TO.N,Net-(U3-Pad3)*%
X78150000Y-100112500D03*
%TO.P,U3,6*%
%TO.N,Net-(Q1-Pad3)*%
X78800000Y-100112500D03*
%TO.P,U3,7,GND*%
%TO.N,GND*%
X79450000Y-100112500D03*
%TO.P,U3,8*%
%TO.N,Net-(U3-Pad4)*%
X79450000Y-94387500D03*
%TO.P,U3,9*%
X78800000Y-94387500D03*
%TO.P,U3,10*%
%TO.N,Net-(R23-Pad1)*%
X78150000Y-94387500D03*
%TO.P,U3,11*%
%TO.N,unconnected-(U3-Pad11)*%
X77500000Y-94387500D03*
%TO.P,U3,12*%
%TO.N,+12V*%
X76850000Y-94387500D03*
%TO.P,U3,13*%
X76200000Y-94387500D03*
%TO.P,U3,14,VCC*%
X75550000Y-94387500D03*
%TD*%
D29*
%TO.P,RV1,1,1*%
%TO.N,Net-(RV1-Pad1)*%
X110460000Y-70500000D03*
%TO.P,RV1,2,2*%
%TO.N,Net-(R32-Pad1)*%
X113000000Y-70500000D03*
%TO.P,RV1,3,3*%
X115540000Y-70500000D03*
%TD*%
D15*
%TO.P,R17,1*%
%TO.N,+12V*%
X72500000Y-98912500D03*
%TO.P,R17,2*%
%TO.N,Net-(R14-Pad1)*%
X72500000Y-97087500D03*
%TD*%
D22*
%TO.P,C9,1*%
%TO.N,Net-(C9-Pad1)*%
X72862500Y-84000000D03*
%TO.P,C9,2*%
%TO.N,Net-(C11-Pad2)*%
X71137500Y-84000000D03*
%TD*%
D18*
%TO.P,C12,1*%
%TO.N,Net-(C12-Pad1)*%
X79000000Y-63637500D03*
%TO.P,C12,2*%
%TO.N,GND*%
X79000000Y-59362500D03*
%TD*%
D25*
%TO.P,R8,1*%
%TO.N,Net-(R8-Pad1)*%
X74912500Y-64000000D03*
%TO.P,R8,2*%
%TO.N,+12V*%
X73087500Y-64000000D03*
%TD*%
D33*
%TO.P,U5,1*%
%TO.N,Net-(D1-Pad1)*%
X89595000Y-71725000D03*
%TO.P,U5,2,-*%
X90865000Y-71725000D03*
%TO.P,U5,3,+*%
%TO.N,Net-(C12-Pad1)*%
X92135000Y-71725000D03*
%TO.P,U5,4,V-*%
%TO.N,-12V*%
X93405000Y-71725000D03*
%TO.P,U5,5,+*%
%TO.N,Net-(C13-Pad1)*%
X93405000Y-66775000D03*
%TO.P,U5,6,-*%
%TO.N,Net-(R28-Pad2)*%
X92135000Y-66775000D03*
%TO.P,U5,7*%
X90865000Y-66775000D03*
%TO.P,U5,8,V+*%
%TO.N,+12V*%
X89595000Y-66775000D03*
%TD*%
D23*
%TO.P,R9,1*%
%TO.N,GND*%
X73087500Y-61000000D03*
%TO.P,R9,2*%
%TO.N,Net-(R8-Pad1)*%
X74912500Y-61000000D03*
%TD*%
D15*
%TO.P,R1,1*%
%TO.N,Net-(J1-Pad2)*%
X68500000Y-78912500D03*
%TO.P,R1,2*%
%TO.N,Net-(C1-Pad1)*%
X68500000Y-77087500D03*
%TD*%
D21*
%TO.P,R13,1*%
%TO.N,+12V*%
X81750000Y-79337500D03*
%TO.P,R13,2*%
%TO.N,Net-(C9-Pad1)*%
X81750000Y-81162500D03*
%TD*%
%TO.P,R33,1*%
%TO.N,Net-(R33-Pad1)*%
X104750000Y-68087500D03*
%TO.P,R33,2*%
%TO.N,Net-(Q3-Pad1)*%
X104750000Y-69912500D03*
%TD*%
D23*
%TO.P,R26,1*%
%TO.N,Net-(R26-Pad1)*%
X88587500Y-77000000D03*
%TO.P,R26,2*%
%TO.N,Net-(Q2-Pad2)*%
X90412500Y-77000000D03*
%TD*%
D30*
%TO.P,D1,1,K*%
%TO.N,Net-(D1-Pad1)*%
X87000000Y-70500000D03*
%TO.P,D1,2,A*%
%TO.N,GND*%
X87000000Y-68000000D03*
%TD*%
D14*
%TO.P,C16,1*%
%TO.N,GND*%
X99137500Y-87250000D03*
%TO.P,C16,2*%
%TO.N,+12V*%
X100862500Y-87250000D03*
%TD*%
D22*
%TO.P,C8,1*%
%TO.N,Net-(C8-Pad1)*%
X72862500Y-86250000D03*
%TO.P,C8,2*%
%TO.N,Net-(C10-Pad2)*%
X71137500Y-86250000D03*
%TD*%
D34*
%TO.P,J3,1,Pin_1*%
%TO.N,GND*%
X114750000Y-58960000D03*
D17*
%TO.P,J3,2,Pin_2*%
%TO.N,unconnected-(J3-Pad2)*%
X114750000Y-61500000D03*
%TO.P,J3,3,Pin_3*%
%TO.N,Net-(D5-Pad3)*%
X114750000Y-64040000D03*
%TD*%
D21*
%TO.P,R29,1*%
%TO.N,Net-(Q3-Pad1)*%
X104500000Y-75837500D03*
%TO.P,R29,2*%
%TO.N,GND*%
X104500000Y-77662500D03*
%TD*%
D23*
%TO.P,R25,1*%
%TO.N,Net-(R25-Pad1)*%
X87087500Y-75000000D03*
%TO.P,R25,2*%
%TO.N,Net-(Q2-Pad2)*%
X88912500Y-75000000D03*
%TD*%
D14*
%TO.P,C17,1*%
%TO.N,GND*%
X88387500Y-64000000D03*
%TO.P,C17,2*%
%TO.N,+12V*%
X90112500Y-64000000D03*
%TD*%
D24*
%TO.P,C4,1*%
%TO.N,Net-(C4-Pad1)*%
X68500000Y-66387500D03*
%TO.P,C4,2*%
%TO.N,Net-(C4-Pad2)*%
X68500000Y-68112500D03*
%TD*%
D31*
%TO.P,U2,1*%
%TO.N,Net-(R10-Pad2)*%
X79450000Y-79137500D03*
%TO.P,U2,2*%
X78800000Y-79137500D03*
%TO.P,U2,3*%
%TO.N,Net-(C10-Pad2)*%
X78150000Y-79137500D03*
%TO.P,U2,4*%
%TO.N,Net-(C11-Pad2)*%
X77500000Y-79137500D03*
%TO.P,U2,5*%
%TO.N,Net-(C10-Pad2)*%
X76850000Y-79137500D03*
%TO.P,U2,6*%
X76200000Y-79137500D03*
%TO.P,U2,7,GND*%
%TO.N,GND*%
X75550000Y-79137500D03*
%TO.P,U2,8*%
%TO.N,Net-(C9-Pad1)*%
X75550000Y-84862500D03*
%TO.P,U2,9*%
%TO.N,Net-(C8-Pad1)*%
X76200000Y-84862500D03*
%TO.P,U2,10*%
%TO.N,Net-(U2-Pad10)*%
X76850000Y-84862500D03*
%TO.P,U2,11*%
%TO.N,Net-(U2-Pad11)*%
X77500000Y-84862500D03*
%TO.P,U2,12*%
%TO.N,Net-(U2-Pad12)*%
X78150000Y-84862500D03*
%TO.P,U2,13*%
X78800000Y-84862500D03*
%TO.P,U2,14,VCC*%
%TO.N,+12V*%
X79450000Y-84862500D03*
%TD*%
D16*
%TO.P,J2,1,Pin_1*%
%TO.N,GND*%
X60000000Y-92040000D03*
D17*
%TO.P,J2,2,Pin_2*%
%TO.N,unconnected-(J2-Pad2)*%
X60000000Y-89500000D03*
%TO.P,J2,3,Pin_3*%
%TO.N,Net-(D4-Pad3)*%
X60000000Y-86960000D03*
%TD*%
D33*
%TO.P,U1,1*%
%TO.N,Net-(R6-Pad1)*%
X75555000Y-71725000D03*
%TO.P,U1,2,DIODE_BIAS*%
%TO.N,unconnected-(U1-Pad2)*%
X76825000Y-71725000D03*
%TO.P,U1,3,+*%
%TO.N,Net-(C4-Pad2)*%
X78095000Y-71725000D03*
%TO.P,U1,4,-*%
%TO.N,Net-(R7-Pad2)*%
X79365000Y-71725000D03*
%TO.P,U1,5*%
%TO.N,Net-(R10-Pad1)*%
X80635000Y-71725000D03*
%TO.P,U1,6,V-*%
%TO.N,-12V*%
X81905000Y-71725000D03*
%TO.P,U1,7*%
%TO.N,unconnected-(U1-Pad7)*%
X83175000Y-71725000D03*
%TO.P,U1,8*%
%TO.N,unconnected-(U1-Pad8)*%
X84445000Y-71725000D03*
%TO.P,U1,9*%
%TO.N,unconnected-(U1-Pad9)*%
X84445000Y-66775000D03*
%TO.P,U1,10*%
%TO.N,unconnected-(U1-Pad10)*%
X83175000Y-66775000D03*
%TO.P,U1,11,V+*%
%TO.N,+12V*%
X81905000Y-66775000D03*
%TO.P,U1,12*%
%TO.N,Net-(C12-Pad1)*%
X80635000Y-66775000D03*
%TO.P,U1,13,-*%
%TO.N,GND*%
X79365000Y-66775000D03*
%TO.P,U1,14,+*%
%TO.N,Net-(R8-Pad1)*%
X78095000Y-66775000D03*
%TO.P,U1,15,DIODE_BIAS*%
%TO.N,unconnected-(U1-Pad15)*%
X76825000Y-66775000D03*
%TO.P,U1,16*%
%TO.N,Net-(Q2-Pad3)*%
X75555000Y-66775000D03*
%TD*%
D25*
%TO.P,R32,1*%
%TO.N,Net-(R32-Pad1)*%
X106412500Y-73500000D03*
%TO.P,R32,2*%
%TO.N,Net-(Q3-Pad1)*%
X104587500Y-73500000D03*
%TD*%
D19*
%TO.P,C5,1*%
%TO.N,GND*%
X79500000Y-91612500D03*
%TO.P,C5,2*%
%TO.N,+12V*%
X79500000Y-89887500D03*
%TD*%
D35*
%TO.N,GND*%
X93750000Y-59750000D03*
X84500000Y-87250000D03*
X86500000Y-83000000D03*
X81000000Y-96000000D03*
X73000000Y-66250000D03*
X92000000Y-79250000D03*
X79250000Y-68500000D03*
X109500000Y-75250000D03*
X87000000Y-66500000D03*
X79000000Y-59750000D03*
X81250000Y-90750000D03*
X114250000Y-81750000D03*
X57250000Y-88000000D03*
X86500000Y-64000000D03*
X98750000Y-81000000D03*
X104500000Y-79000000D03*
X84500000Y-80750000D03*
X80500000Y-100500000D03*
X106750000Y-84500000D03*
X90500000Y-90000000D03*
X57250000Y-87000000D03*
X97750000Y-87250000D03*
X57250000Y-86000000D03*
X97000000Y-72250000D03*
X75000000Y-77500000D03*
X71750000Y-61000000D03*
X74000000Y-89750000D03*
X92500000Y-75000000D03*
X72250000Y-78000000D03*
%TO.N,+12V*%
X85750000Y-98250000D03*
X107000000Y-88250000D03*
X100750000Y-82750000D03*
X77500000Y-92250000D03*
X79500000Y-88500000D03*
X62250000Y-75000000D03*
X71000000Y-98000000D03*
X82750000Y-62500000D03*
X73000000Y-62750000D03*
X86250000Y-93750000D03*
X87750000Y-86750000D03*
X81000000Y-84750000D03*
X90000000Y-62500000D03*
X80500000Y-80250000D03*
X94500000Y-97750000D03*
X112500000Y-86250000D03*
X98000000Y-64500000D03*
%TO.N,-12V*%
X67500000Y-70250000D03*
X69500000Y-70250000D03*
X82750000Y-73500000D03*
X68500000Y-70250000D03*
X107250000Y-72000000D03*
X108000000Y-75250000D03*
X100500000Y-62250000D03*
X94750000Y-89000000D03*
X93750000Y-70000000D03*
%TO.N,Net-(C11-Pad2)*%
X74250000Y-88000000D03*
X71250000Y-82750000D03*
%TO.N,Net-(D1-Pad1)*%
X92500000Y-82250000D03*
X87000000Y-71750000D03*
%TO.N,Net-(D3-Pad3)*%
X81000000Y-98000000D03*
X68000000Y-96000000D03*
%TO.N,Net-(D4-Pad3)*%
X82750000Y-77500000D03*
X74000000Y-73000000D03*
%TD*%
D36*
%TO.N,Net-(C1-Pad1)*%
X70337500Y-76412500D02*
X71500000Y-76412500D01*
X61850000Y-76850000D02*
X60020000Y-76850000D01*
D37*
X68500000Y-77087500D02*
X68500000Y-77000000D01*
X68500000Y-77087500D02*
X68337500Y-77087500D01*
D36*
X70887500Y-77612500D02*
X70887500Y-79000000D01*
D37*
X68337500Y-77087500D02*
X68250000Y-77000000D01*
D36*
X71500000Y-77000000D02*
X71500000Y-76412500D01*
X68250000Y-77000000D02*
X62000000Y-77000000D01*
X62000000Y-77000000D02*
X61850000Y-76850000D01*
X71500000Y-77000000D02*
X70887500Y-77612500D01*
X68500000Y-77087500D02*
X69662500Y-77087500D01*
X69662500Y-77087500D02*
X70337500Y-76412500D01*
%TO.N,GND*%
X99540000Y-80710000D02*
X99540000Y-79525000D01*
X80112500Y-100112500D02*
X79450000Y-100112500D01*
X91750000Y-90337500D02*
X90837500Y-90337500D01*
X79250000Y-66890000D02*
X79365000Y-66775000D01*
X81000000Y-96000000D02*
X82762500Y-96000000D01*
X90837500Y-90337500D02*
X90500000Y-90000000D01*
D38*
X57250000Y-83250000D02*
X57250000Y-88000000D01*
D36*
X97000000Y-72250000D02*
X95887500Y-72250000D01*
X104500000Y-77662500D02*
X104500000Y-79000000D01*
X79362500Y-91750000D02*
X79500000Y-91612500D01*
X92500000Y-75000000D02*
X93950000Y-75000000D01*
D38*
X60020000Y-81930000D02*
X58570000Y-81930000D01*
D36*
X75550000Y-79137500D02*
X75550000Y-78050000D01*
X104500000Y-80670000D02*
X104500000Y-79000000D01*
D38*
X58570000Y-81930000D02*
X57250000Y-83250000D01*
D36*
X75362500Y-89750000D02*
X75500000Y-89887500D01*
X83725000Y-79137500D02*
X83725000Y-78025000D01*
X109500000Y-76637500D02*
X109612500Y-76750000D01*
X75000000Y-77500000D02*
X75000000Y-76412500D01*
X97750000Y-87250000D02*
X99137500Y-87250000D01*
X83725000Y-80475000D02*
X84000000Y-80750000D01*
X88387500Y-64000000D02*
X86000000Y-64000000D01*
X84000000Y-77750000D02*
X84000000Y-76362500D01*
X83725000Y-78025000D02*
X84000000Y-77750000D01*
X98500000Y-81000000D02*
X99250000Y-81000000D01*
X82762500Y-96000000D02*
X82812500Y-96050000D01*
X108095000Y-84475000D02*
X106775000Y-84475000D01*
X75550000Y-78050000D02*
X75000000Y-77500000D01*
X86137500Y-88000000D02*
X86137500Y-88387500D01*
X86137500Y-88387500D02*
X87312500Y-89562500D01*
X98270000Y-80770000D02*
X98500000Y-81000000D01*
X109365000Y-79525000D02*
X109365000Y-76997500D01*
X72612500Y-78362500D02*
X72250000Y-78000000D01*
X98270000Y-79525000D02*
X98270000Y-80770000D01*
X99250000Y-81000000D02*
X99540000Y-80710000D01*
X82837500Y-90000000D02*
X82000000Y-90000000D01*
X114250000Y-81750000D02*
X114250000Y-83137500D01*
X72612500Y-79000000D02*
X72612500Y-78362500D01*
X73087500Y-61000000D02*
X71750000Y-61000000D01*
X109500000Y-75250000D02*
X109500000Y-76637500D01*
X87312500Y-89562500D02*
X87312500Y-90300000D01*
X106775000Y-84475000D02*
X106750000Y-84500000D01*
X86000000Y-64000000D02*
X84362500Y-64000000D01*
X80387500Y-91612500D02*
X79500000Y-91612500D01*
X98250000Y-79505000D02*
X98270000Y-79525000D01*
X79250000Y-68500000D02*
X79250000Y-66890000D01*
X83750000Y-79112500D02*
X83725000Y-79137500D01*
X79387500Y-91500000D02*
X79500000Y-91612500D01*
X109365000Y-76997500D02*
X109612500Y-76750000D01*
X75000000Y-76412500D02*
X74000000Y-76412500D01*
X93950000Y-75000000D02*
X94000000Y-75050000D01*
X86325000Y-83675000D02*
X86500000Y-83500000D01*
X87000000Y-68000000D02*
X87000000Y-66500000D01*
X108070000Y-84500000D02*
X108095000Y-84475000D01*
X85250000Y-88000000D02*
X84500000Y-87250000D01*
X83725000Y-79137500D02*
X83725000Y-80475000D01*
X86325000Y-84862500D02*
X86325000Y-83675000D01*
X86137500Y-88000000D02*
X85250000Y-88000000D01*
X84000000Y-80750000D02*
X84500000Y-80750000D01*
X84137500Y-76500000D02*
X84000000Y-76362500D01*
X80500000Y-100500000D02*
X80112500Y-100112500D01*
X86500000Y-83000000D02*
X86500000Y-83500000D01*
X73000000Y-66250000D02*
X71587500Y-66250000D01*
X79637500Y-91750000D02*
X79500000Y-91612500D01*
X92000000Y-79250000D02*
X92915000Y-79250000D01*
X92915000Y-79250000D02*
X93190000Y-79525000D01*
X74000000Y-89750000D02*
X75362500Y-89750000D01*
X95887500Y-72250000D02*
X95750000Y-72112500D01*
X82000000Y-90000000D02*
X80387500Y-91612500D01*
X71587500Y-66250000D02*
X71500000Y-66337500D01*
X75000000Y-76412500D02*
X76500000Y-76412500D01*
%TO.N,Net-(C4-Pad1)*%
X62242500Y-66387500D02*
X61940000Y-66690000D01*
X61940000Y-66690000D02*
X60020000Y-66690000D01*
X68500000Y-66387500D02*
X62242500Y-66387500D01*
%TO.N,Net-(C4-Pad2)*%
X78095000Y-71725000D02*
X78095000Y-70595000D01*
X73750000Y-68162500D02*
X71500000Y-68162500D01*
X77500000Y-70000000D02*
X75500000Y-70000000D01*
X78095000Y-70595000D02*
X77500000Y-70000000D01*
X68500000Y-68112500D02*
X71450000Y-68112500D01*
X71450000Y-68112500D02*
X71500000Y-68162500D01*
X75500000Y-70000000D02*
X73750000Y-68162500D01*
%TO.N,+12V*%
X73000000Y-62750000D02*
X73000000Y-63912500D01*
X81905000Y-66775000D02*
X81905000Y-65595000D01*
X70412500Y-74587500D02*
X70000000Y-75000000D01*
X90000000Y-63887500D02*
X90112500Y-64000000D01*
X75550000Y-91662500D02*
X75500000Y-91612500D01*
X73000000Y-63912500D02*
X73087500Y-64000000D01*
X79362500Y-89750000D02*
X79500000Y-89887500D01*
X76850000Y-94387500D02*
X76850000Y-93100000D01*
X79387500Y-90000000D02*
X79500000Y-89887500D01*
X90112500Y-64637500D02*
X90112500Y-64000000D01*
X89500000Y-65250000D02*
X90112500Y-64637500D01*
X71000000Y-99000000D02*
X69587500Y-99000000D01*
X76200000Y-94387500D02*
X76200000Y-93050000D01*
X87337500Y-98250000D02*
X84250000Y-98250000D01*
X69587500Y-99000000D02*
X69500000Y-98912500D01*
X89637500Y-66732500D02*
X89595000Y-66775000D01*
X80500000Y-79500000D02*
X80500000Y-80250000D01*
X106500000Y-88750000D02*
X105250000Y-88750000D01*
X89500000Y-66680000D02*
X89500000Y-65250000D01*
X88275000Y-86225000D02*
X88275000Y-84862500D01*
X100062500Y-65450000D02*
X98950000Y-65450000D01*
X112500000Y-86250000D02*
X111905000Y-85655000D01*
X87750000Y-86750000D02*
X88275000Y-86225000D01*
X72662500Y-98750000D02*
X72500000Y-98912500D01*
X82750000Y-62500000D02*
X82750000Y-63887500D01*
X104837500Y-89162500D02*
X104837500Y-90000000D01*
X87750000Y-86750000D02*
X87750000Y-87887500D01*
X81905000Y-65595000D02*
X82637500Y-64862500D01*
X81750000Y-79337500D02*
X81750000Y-77750000D01*
X71587500Y-74500000D02*
X71500000Y-74587500D01*
X72412500Y-99000000D02*
X72500000Y-98912500D01*
X71500000Y-74587500D02*
X71337500Y-74587500D01*
X75550000Y-92950000D02*
X75550000Y-91662500D01*
X76700000Y-92950000D02*
X76300000Y-92950000D01*
X83950000Y-97950000D02*
X82812500Y-97950000D01*
X73000000Y-64087500D02*
X73087500Y-64000000D01*
X79562500Y-84750000D02*
X79450000Y-84862500D01*
X79412500Y-88500000D02*
X78412500Y-87500000D01*
X71337500Y-74587500D02*
X71250000Y-74500000D01*
X87337500Y-92225000D02*
X87337500Y-93662500D01*
X113362500Y-84862500D02*
X112975000Y-84475000D01*
X100810000Y-84475000D02*
X100810000Y-87197500D01*
X71000000Y-99000000D02*
X72412500Y-99000000D01*
X87312500Y-92200000D02*
X87337500Y-92225000D01*
X71500000Y-74587500D02*
X70412500Y-74587500D01*
X62250000Y-75000000D02*
X70000000Y-75000000D01*
X81750000Y-76412500D02*
X81750000Y-77750000D01*
X100750000Y-84535000D02*
X100810000Y-84475000D01*
X76850000Y-93100000D02*
X76700000Y-92950000D01*
X77500000Y-92250000D02*
X76800000Y-92950000D01*
X81662500Y-79250000D02*
X80750000Y-79250000D01*
X87250000Y-93750000D02*
X87337500Y-93662500D01*
X111905000Y-85655000D02*
X111905000Y-84475000D01*
X105250000Y-88750000D02*
X104837500Y-89162500D01*
X90000000Y-62500000D02*
X90000000Y-63887500D01*
X76300000Y-92950000D02*
X75550000Y-92950000D01*
X79450000Y-89837500D02*
X79500000Y-89887500D01*
X80750000Y-79250000D02*
X80500000Y-79500000D01*
X76200000Y-93050000D02*
X76300000Y-92950000D01*
X76800000Y-92950000D02*
X76700000Y-92950000D01*
X87250000Y-95337500D02*
X87337500Y-95250000D01*
X82750000Y-63887500D02*
X82637500Y-64000000D01*
X100810000Y-87197500D02*
X100862500Y-87250000D01*
X79500000Y-88500000D02*
X79412500Y-88500000D01*
X87250000Y-98162500D02*
X87337500Y-98250000D01*
X98950000Y-65450000D02*
X98000000Y-64500000D01*
X82750000Y-98012500D02*
X82812500Y-97950000D01*
X79500000Y-88500000D02*
X79500000Y-89887500D01*
X82637500Y-64862500D02*
X82637500Y-64000000D01*
X114250000Y-84862500D02*
X113362500Y-84862500D01*
X87337500Y-93662500D02*
X87337500Y-95250000D01*
X81750000Y-79337500D02*
X81662500Y-79250000D01*
X107000000Y-88250000D02*
X106500000Y-88750000D01*
X94500000Y-97750000D02*
X93070000Y-97750000D01*
X87750000Y-87887500D02*
X87862500Y-88000000D01*
X104750000Y-89912500D02*
X104837500Y-90000000D01*
X112975000Y-84475000D02*
X111905000Y-84475000D01*
X81000000Y-84750000D02*
X79562500Y-84750000D01*
X75550000Y-94387500D02*
X75550000Y-92950000D01*
X86250000Y-93750000D02*
X87250000Y-93750000D01*
X89595000Y-66775000D02*
X89500000Y-66680000D01*
X100750000Y-84415000D02*
X100810000Y-84475000D01*
X71000000Y-99000000D02*
X71000000Y-98000000D01*
X93070000Y-97750000D02*
X92900000Y-97580000D01*
X84250000Y-98250000D02*
X83950000Y-97950000D01*
X100750000Y-82750000D02*
X100750000Y-84415000D01*
D39*
%TO.N,-12V*%
X107000000Y-64790000D02*
X107000000Y-71750000D01*
D36*
X100500000Y-62250000D02*
X100500000Y-63112500D01*
X93405000Y-71725000D02*
X93405000Y-70845000D01*
X68500000Y-70250000D02*
X68500000Y-72087500D01*
D40*
X65500000Y-70250000D02*
X69500000Y-70250000D01*
D36*
X108095000Y-76957500D02*
X107887500Y-76750000D01*
D40*
X63980000Y-71770000D02*
X65500000Y-70250000D01*
D37*
X68500000Y-72087500D02*
X68337500Y-72087500D01*
D36*
X93750000Y-70000000D02*
X93750000Y-70275000D01*
D40*
X60020000Y-71770000D02*
X63980000Y-71770000D01*
D36*
X108000000Y-76637500D02*
X107887500Y-76750000D01*
X93405000Y-70845000D02*
X93862500Y-70387500D01*
X100000000Y-63487500D02*
X100062500Y-63550000D01*
D37*
X68337500Y-72087500D02*
X68250000Y-72000000D01*
D36*
X93750000Y-70275000D02*
X93862500Y-70387500D01*
X83887500Y-74637500D02*
X81905000Y-72655000D01*
X108000000Y-75250000D02*
X108000000Y-76637500D01*
X81905000Y-72655000D02*
X81905000Y-71725000D01*
X100500000Y-63112500D02*
X100062500Y-63550000D01*
X93862500Y-70387500D02*
X95750000Y-70387500D01*
D39*
X107000000Y-71750000D02*
X107250000Y-72000000D01*
D36*
X108095000Y-79525000D02*
X108095000Y-76957500D01*
X84000000Y-74637500D02*
X83887500Y-74637500D01*
X94750000Y-90337500D02*
X94750000Y-89000000D01*
%TO.N,Net-(C8-Pad1)*%
X75750000Y-86250000D02*
X76200000Y-85800000D01*
X75750000Y-87500000D02*
X75500000Y-87250000D01*
X76200000Y-85800000D02*
X76200000Y-84862500D01*
X75500000Y-86250000D02*
X75750000Y-86250000D01*
X76587500Y-87500000D02*
X75750000Y-87500000D01*
X75500000Y-87250000D02*
X75500000Y-86250000D01*
X72862500Y-86250000D02*
X75500000Y-86250000D01*
%TO.N,Net-(C10-Pad2)*%
X77750000Y-77750000D02*
X78150000Y-78150000D01*
X70500000Y-81750000D02*
X69500000Y-82750000D01*
X69500000Y-86250000D02*
X69500000Y-88637500D01*
X76200000Y-78050000D02*
X76500000Y-77750000D01*
X74750000Y-81750000D02*
X70500000Y-81750000D01*
X76850000Y-77900000D02*
X77000000Y-77750000D01*
X78150000Y-78150000D02*
X78150000Y-79137500D01*
X76200000Y-79137500D02*
X76200000Y-80300000D01*
X77000000Y-77750000D02*
X77750000Y-77750000D01*
X76200000Y-79137500D02*
X76200000Y-78050000D01*
X71137500Y-86250000D02*
X69500000Y-86250000D01*
X76200000Y-80300000D02*
X74750000Y-81750000D01*
X76500000Y-77750000D02*
X77000000Y-77750000D01*
X69500000Y-82750000D02*
X69500000Y-86250000D01*
X76850000Y-79137500D02*
X76850000Y-77900000D01*
%TO.N,Net-(C9-Pad1)*%
X75550000Y-84862500D02*
X74612500Y-84862500D01*
X75550000Y-84862500D02*
X75550000Y-83950000D01*
X73750000Y-84000000D02*
X72862500Y-84000000D01*
X75550000Y-83950000D02*
X78000000Y-81500000D01*
X78000000Y-81500000D02*
X81412500Y-81500000D01*
X81412500Y-81500000D02*
X81750000Y-81162500D01*
X74612500Y-84862500D02*
X73750000Y-84000000D01*
%TO.N,Net-(C11-Pad2)*%
X72500000Y-88637500D02*
X73612500Y-88637500D01*
X71250000Y-82750000D02*
X71250000Y-83887500D01*
X73612500Y-88637500D02*
X74250000Y-88000000D01*
X71250000Y-83887500D02*
X71137500Y-84000000D01*
X71250000Y-82750000D02*
X75250000Y-82750000D01*
X77500000Y-80500000D02*
X77500000Y-79137500D01*
X75250000Y-82750000D02*
X77500000Y-80500000D01*
%TO.N,Net-(C10-Pad1)*%
X69500000Y-90362500D02*
X69500000Y-92837500D01*
%TO.N,Net-(C11-Pad1)*%
X72500000Y-90362500D02*
X72500000Y-92837500D01*
%TO.N,Net-(C12-Pad1)*%
X92135000Y-72885000D02*
X92500000Y-73250000D01*
X92135000Y-71725000D02*
X92135000Y-72885000D01*
X99750000Y-74250000D02*
X99750000Y-75087500D01*
X91500000Y-69250000D02*
X92135000Y-69885000D01*
X80635000Y-68635000D02*
X81250000Y-69250000D01*
X92500000Y-73250000D02*
X98750000Y-73250000D01*
X80635000Y-66775000D02*
X80635000Y-65022500D01*
X80635000Y-66775000D02*
X80635000Y-68635000D01*
X98750000Y-73250000D02*
X99750000Y-74250000D01*
X79000000Y-63637500D02*
X79250000Y-63637500D01*
X81250000Y-69250000D02*
X91500000Y-69250000D01*
X92135000Y-69885000D02*
X92135000Y-71725000D01*
X79250000Y-63637500D02*
X80635000Y-65022500D01*
%TO.N,Net-(C13-Pad1)*%
X95730000Y-86020000D02*
X95730000Y-86980000D01*
X97250000Y-88500000D02*
X101500000Y-88500000D01*
X94770000Y-86020000D02*
X95730000Y-86020000D01*
X95730000Y-86980000D02*
X97250000Y-88500000D01*
X93405000Y-63982500D02*
X93750000Y-63637500D01*
X94250000Y-69000000D02*
X93405000Y-68155000D01*
X101500000Y-88500000D02*
X102000000Y-88000000D01*
X97000000Y-69750000D02*
X96250000Y-69000000D01*
X93405000Y-68155000D02*
X93405000Y-66775000D01*
X93405000Y-66775000D02*
X93405000Y-63982500D01*
X94460000Y-84475000D02*
X94460000Y-85710000D01*
X97000000Y-70750000D02*
X97000000Y-69750000D01*
X101000000Y-74250000D02*
X99000000Y-72250000D01*
X102000000Y-88000000D02*
X102000000Y-78500000D01*
X98500000Y-72250000D02*
X97000000Y-70750000D01*
X94460000Y-85710000D02*
X94770000Y-86020000D01*
X101000000Y-77500000D02*
X101000000Y-74250000D01*
X96250000Y-69000000D02*
X94250000Y-69000000D01*
X95730000Y-84475000D02*
X95730000Y-86020000D01*
X99000000Y-72250000D02*
X98500000Y-72250000D01*
X102000000Y-78500000D02*
X101000000Y-77500000D01*
%TO.N,Net-(C14-Pad1)*%
X102250000Y-76912500D02*
X103162500Y-76912500D01*
X103850000Y-80670000D02*
X103850000Y-81600000D01*
X104250000Y-82000000D02*
X110000000Y-82000000D01*
X103250000Y-79250000D02*
X103250000Y-77000000D01*
X102250000Y-72750000D02*
X102250000Y-69612500D01*
X103162500Y-76912500D02*
X103250000Y-77000000D01*
X103850000Y-81600000D02*
X104250000Y-82000000D01*
X110000000Y-82000000D02*
X110635000Y-81365000D01*
X103850000Y-80670000D02*
X103850000Y-79850000D01*
X103250000Y-73750000D02*
X102250000Y-72750000D01*
X103850000Y-79850000D02*
X103250000Y-79250000D01*
X103250000Y-77000000D02*
X103250000Y-73750000D01*
X110635000Y-81365000D02*
X110635000Y-79525000D01*
%TO.N,Net-(C14-Pad2)*%
X100587500Y-69662500D02*
X101000000Y-69250000D01*
X101000000Y-68250000D02*
X101362500Y-67887500D01*
X101000000Y-69250000D02*
X101000000Y-68250000D01*
X99750000Y-69662500D02*
X100587500Y-69662500D01*
X101362500Y-67887500D02*
X102250000Y-67887500D01*
%TO.N,Net-(C15-Pad1)*%
X106662500Y-90000000D02*
X109137500Y-90000000D01*
X109000000Y-83000000D02*
X105480000Y-83000000D01*
X109137500Y-89137500D02*
X108750000Y-88750000D01*
X105480000Y-83000000D02*
X105150000Y-83330000D01*
X109365000Y-84475000D02*
X109365000Y-83365000D01*
X109365000Y-83365000D02*
X109000000Y-83000000D01*
X108750000Y-86750000D02*
X109365000Y-86135000D01*
X108750000Y-87500000D02*
X108750000Y-86750000D01*
X109365000Y-86135000D02*
X109365000Y-84475000D01*
X109137500Y-90000000D02*
X109137500Y-89137500D01*
X108750000Y-88750000D02*
X108750000Y-87500000D01*
%TO.N,Net-(C15-Pad2)*%
X103587500Y-87500000D02*
X103587500Y-90837500D01*
X103587500Y-90837500D02*
X104000000Y-91250000D01*
X110862500Y-90887500D02*
X110862500Y-90000000D01*
X111250000Y-86750000D02*
X110635000Y-86135000D01*
X110635000Y-86135000D02*
X110635000Y-84475000D01*
X111250000Y-87500000D02*
X111250000Y-86750000D01*
X110862500Y-90000000D02*
X110862500Y-89137500D01*
X111250000Y-88750000D02*
X111250000Y-87500000D01*
X110862500Y-89137500D02*
X111250000Y-88750000D01*
X104000000Y-91250000D02*
X110500000Y-91250000D01*
X110500000Y-91250000D02*
X110862500Y-90887500D01*
%TO.N,Net-(D1-Pad1)*%
X89595000Y-71725000D02*
X89570000Y-71750000D01*
X91587500Y-82250000D02*
X90500000Y-83337500D01*
X89570000Y-71750000D02*
X87000000Y-71750000D01*
X87000000Y-71750000D02*
X87000000Y-70500000D01*
X92500000Y-82250000D02*
X91587500Y-82250000D01*
X89595000Y-71725000D02*
X90865000Y-71725000D01*
%TO.N,Net-(D3-Pad3)*%
X68000000Y-96000000D02*
X66790000Y-97210000D01*
X66790000Y-97210000D02*
X60020000Y-97210000D01*
X84662500Y-93000000D02*
X84662500Y-96975000D01*
X84662500Y-90000000D02*
X84662500Y-93000000D01*
X84687500Y-97000000D02*
X81500000Y-97000000D01*
X81500000Y-97000000D02*
X81000000Y-97500000D01*
X81000000Y-97500000D02*
X81000000Y-98000000D01*
X84662500Y-96975000D02*
X84687500Y-97000000D01*
%TO.N,Net-(D4-Pad3)*%
X89250000Y-83000000D02*
X87500000Y-81250000D01*
X71500000Y-70337500D02*
X72837500Y-70337500D01*
X85750000Y-81250000D02*
X85250000Y-81750000D01*
X90087500Y-88000000D02*
X90087500Y-87087500D01*
X74000000Y-73000000D02*
X73500000Y-73000000D01*
X89187500Y-91250000D02*
X89187500Y-89812500D01*
X60000000Y-86960000D02*
X63790000Y-86960000D01*
X72837500Y-70337500D02*
X74000000Y-71500000D01*
X72750000Y-77000000D02*
X72750000Y-73750000D01*
X87500000Y-81250000D02*
X85750000Y-81250000D01*
X89187500Y-89812500D02*
X90087500Y-88912500D01*
X63790000Y-86960000D02*
X70000000Y-80750000D01*
X73500000Y-80750000D02*
X74000000Y-80250000D01*
X74000000Y-78250000D02*
X72750000Y-77000000D01*
X89250000Y-86250000D02*
X89250000Y-83000000D01*
X85250000Y-81750000D02*
X83750000Y-81750000D01*
X83750000Y-81750000D02*
X82750000Y-80750000D01*
X73500000Y-73000000D02*
X72750000Y-73750000D01*
X74000000Y-80250000D02*
X74000000Y-78250000D01*
X82750000Y-80750000D02*
X82750000Y-77750000D01*
X90087500Y-87087500D02*
X89250000Y-86250000D01*
X74000000Y-71500000D02*
X74000000Y-73000000D01*
X90087500Y-88912500D02*
X90087500Y-88000000D01*
X70000000Y-80750000D02*
X73500000Y-80750000D01*
%TO.N,Net-(D5-Pad3)*%
X99750000Y-67837500D02*
X99912500Y-67837500D01*
X101937500Y-64500000D02*
X101937500Y-61062500D01*
X113290000Y-64040000D02*
X110250000Y-61000000D01*
X108500000Y-57500000D02*
X105500000Y-57500000D01*
X99912500Y-67837500D02*
X101937500Y-65812500D01*
X114750000Y-64040000D02*
X113290000Y-64040000D01*
X101937500Y-65812500D02*
X101937500Y-64500000D01*
X110250000Y-61000000D02*
X110250000Y-59250000D01*
X101937500Y-61062500D02*
X105500000Y-57500000D01*
X110250000Y-59250000D02*
X108500000Y-57500000D01*
%TO.N,Net-(J1-Pad2)*%
X68250000Y-79000000D02*
X62000000Y-79000000D01*
X62000000Y-79000000D02*
X61610000Y-79390000D01*
D37*
X68337500Y-78912500D02*
X68250000Y-79000000D01*
X68500000Y-78912500D02*
X68337500Y-78912500D01*
D36*
X61610000Y-79390000D02*
X60020000Y-79390000D01*
%TO.N,Net-(J1-Pad4)*%
X71500000Y-72162500D02*
X71087500Y-72162500D01*
D37*
X68500000Y-73912500D02*
X68662500Y-73912500D01*
X68500000Y-73912500D02*
X68337500Y-73912500D01*
D36*
X61750000Y-74000000D02*
X61440000Y-74310000D01*
D37*
X68662500Y-73912500D02*
X68750000Y-74000000D01*
D36*
X68250000Y-74000000D02*
X61750000Y-74000000D01*
D37*
X68337500Y-73912500D02*
X68250000Y-74000000D01*
D36*
X71087500Y-72162500D02*
X69250000Y-74000000D01*
X69250000Y-74000000D02*
X68750000Y-74000000D01*
X61440000Y-74310000D02*
X60020000Y-74310000D01*
%TO.N,Net-(Q1-Pad1)*%
X92900000Y-94920000D02*
X92900000Y-88987500D01*
X92900000Y-88987500D02*
X91912500Y-88000000D01*
%TO.N,Net-(Q1-Pad2)*%
X92250000Y-94000000D02*
X92000000Y-93750000D01*
X91750000Y-93500000D02*
X92000000Y-93750000D01*
X91750000Y-92162500D02*
X91750000Y-93500000D01*
X89162500Y-94337500D02*
X90000000Y-93500000D01*
X92250000Y-94920000D02*
X92250000Y-94000000D01*
X89162500Y-95250000D02*
X89162500Y-94337500D01*
X90000000Y-93500000D02*
X91750000Y-93500000D01*
%TO.N,Net-(Q1-Pad3)*%
X89162500Y-98337500D02*
X89162500Y-98250000D01*
X78800000Y-100112500D02*
X78800000Y-99200000D01*
X91600000Y-94920000D02*
X91080000Y-94920000D01*
X80250000Y-99250000D02*
X88250000Y-99250000D01*
X78800000Y-99200000D02*
X79250000Y-98750000D01*
X90250000Y-97162500D02*
X89162500Y-98250000D01*
X79750000Y-98750000D02*
X80250000Y-99250000D01*
X91080000Y-94920000D02*
X90250000Y-95750000D01*
X79250000Y-98750000D02*
X79750000Y-98750000D01*
X88250000Y-99250000D02*
X89162500Y-98337500D01*
X90250000Y-95750000D02*
X90250000Y-97162500D01*
%TO.N,Net-(Q1-Pad4)*%
X91600000Y-97580000D02*
X91600000Y-96650000D01*
X94000000Y-96250000D02*
X94750000Y-95500000D01*
X92250000Y-97580000D02*
X92250000Y-96250000D01*
X94750000Y-95500000D02*
X94750000Y-92162500D01*
X92000000Y-96250000D02*
X92250000Y-96250000D01*
X91600000Y-96650000D02*
X92000000Y-96250000D01*
X92250000Y-96250000D02*
X94000000Y-96250000D01*
%TO.N,Net-(Q2-Pad2)*%
X90412500Y-75662500D02*
X89750000Y-75000000D01*
X89750000Y-75000000D02*
X88912500Y-75000000D01*
X90412500Y-77000000D02*
X90412500Y-75662500D01*
X90462500Y-76950000D02*
X90412500Y-77000000D01*
X94000000Y-76950000D02*
X90462500Y-76950000D01*
%TO.N,Net-(Q2-Pad3)*%
X85500000Y-72500000D02*
X85500000Y-70500000D01*
X97000000Y-74750000D02*
X96250000Y-74000000D01*
X85500000Y-70500000D02*
X85000000Y-70000000D01*
X91250000Y-73250000D02*
X86250000Y-73250000D01*
X75555000Y-68805000D02*
X75555000Y-66775000D01*
X85000000Y-70000000D02*
X78750000Y-70000000D01*
X97000000Y-76000000D02*
X97000000Y-74750000D01*
X76000000Y-69250000D02*
X75555000Y-68805000D01*
X96250000Y-74000000D02*
X92000000Y-74000000D01*
X86250000Y-73250000D02*
X85500000Y-72500000D01*
X92000000Y-74000000D02*
X91250000Y-73250000D01*
X78000000Y-69250000D02*
X76000000Y-69250000D01*
X78750000Y-70000000D02*
X78000000Y-69250000D01*
%TO.N,Net-(Q3-Pad1)*%
X104500000Y-75837500D02*
X105662500Y-75837500D01*
X105750000Y-75000000D02*
X104587500Y-73837500D01*
X105750000Y-79250000D02*
X105750000Y-75750000D01*
X104750000Y-73337500D02*
X104587500Y-73500000D01*
X104587500Y-73837500D02*
X104587500Y-73500000D01*
X105150000Y-80670000D02*
X105150000Y-79850000D01*
X105150000Y-79850000D02*
X105750000Y-79250000D01*
X104750000Y-69912500D02*
X104750000Y-73337500D01*
X105750000Y-75750000D02*
X105750000Y-75000000D01*
X105662500Y-75837500D02*
X105750000Y-75750000D01*
%TO.N,Net-(Q3-Pad4)*%
X105412500Y-85912500D02*
X105412500Y-87500000D01*
X103850000Y-83330000D02*
X103850000Y-84350000D01*
X104500000Y-85000000D02*
X104500000Y-83330000D01*
X104500000Y-85000000D02*
X105412500Y-85912500D01*
X103850000Y-84350000D02*
X104500000Y-85000000D01*
%TO.N,Net-(R6-Pad1)*%
X74000000Y-74587500D02*
X75555000Y-73032500D01*
X75555000Y-73032500D02*
X75555000Y-71725000D01*
%TO.N,Net-(R7-Pad2)*%
X76500000Y-74000000D02*
X77000000Y-73500000D01*
X76500000Y-74587500D02*
X76500000Y-74000000D01*
X78750000Y-73500000D02*
X79365000Y-72885000D01*
X77000000Y-73500000D02*
X78750000Y-73500000D01*
X79365000Y-72885000D02*
X79365000Y-71725000D01*
%TO.N,Net-(R8-Pad1)*%
X76500000Y-65250000D02*
X75250000Y-64000000D01*
X77750000Y-65250000D02*
X76500000Y-65250000D01*
X74912500Y-61000000D02*
X74912500Y-64000000D01*
X75250000Y-64000000D02*
X74912500Y-64000000D01*
X78095000Y-65595000D02*
X77750000Y-65250000D01*
X78095000Y-66775000D02*
X78095000Y-65595000D01*
%TO.N,Net-(R10-Pad1)*%
X79000000Y-74587500D02*
X79412500Y-74587500D01*
X79412500Y-74587500D02*
X80635000Y-73365000D01*
X80635000Y-73365000D02*
X80635000Y-71725000D01*
%TO.N,Net-(R10-Pad2)*%
X79000000Y-76412500D02*
X79587500Y-76412500D01*
X78800000Y-76612500D02*
X79000000Y-76412500D01*
X81412500Y-74587500D02*
X81750000Y-74587500D01*
X79200000Y-77950000D02*
X78800000Y-77950000D01*
X78800000Y-77950000D02*
X78800000Y-76612500D01*
X80250000Y-75250000D02*
X80912500Y-74587500D01*
X80912500Y-74587500D02*
X81500000Y-74587500D01*
X78800000Y-79137500D02*
X78800000Y-77950000D01*
X79450000Y-79137500D02*
X79450000Y-78200000D01*
X79450000Y-78200000D02*
X79200000Y-77950000D01*
X79587500Y-76412500D02*
X80250000Y-75750000D01*
X80250000Y-75750000D02*
X80250000Y-75250000D01*
%TO.N,Net-(R14-Pad1)*%
X74912500Y-95912500D02*
X76200000Y-97200000D01*
X72500000Y-95912500D02*
X74912500Y-95912500D01*
X72500000Y-97087500D02*
X72500000Y-94662500D01*
X76200000Y-97200000D02*
X76200000Y-100112500D01*
%TO.N,Net-(R15-Pad1)*%
X68662500Y-97087500D02*
X68000000Y-97750000D01*
X75412500Y-100250000D02*
X75550000Y-100112500D01*
X68000000Y-99500000D02*
X68750000Y-100250000D01*
X68000000Y-97750000D02*
X68000000Y-99500000D01*
X69500000Y-97087500D02*
X68662500Y-97087500D01*
X69500000Y-97087500D02*
X69500000Y-94662500D01*
X68750000Y-100250000D02*
X75412500Y-100250000D01*
%TO.N,Net-(R23-Pad1)*%
X78500000Y-93000000D02*
X78150000Y-93350000D01*
X78150000Y-93350000D02*
X78150000Y-94387500D01*
X82837500Y-93000000D02*
X78500000Y-93000000D01*
%TO.N,Net-(R25-Pad1)*%
X87625000Y-77875000D02*
X87087500Y-77337500D01*
X87625000Y-79137500D02*
X87625000Y-77875000D01*
X87087500Y-77337500D02*
X87087500Y-75000000D01*
%TO.N,Net-(R26-Pad1)*%
X88275000Y-79137500D02*
X88275000Y-78225000D01*
X88587500Y-77912500D02*
X88587500Y-77000000D01*
X88275000Y-78225000D02*
X88587500Y-77912500D01*
%TO.N,Net-(R27-Pad1)*%
X97000000Y-83250000D02*
X96750000Y-83000000D01*
X90500000Y-85500000D02*
X90500000Y-85162500D01*
X97000000Y-84475000D02*
X97000000Y-83250000D01*
X93190000Y-83310000D02*
X93500000Y-83000000D01*
X96750000Y-83000000D02*
X93500000Y-83000000D01*
X93000000Y-86000000D02*
X91000000Y-86000000D01*
X93190000Y-84475000D02*
X93190000Y-85810000D01*
X91000000Y-86000000D02*
X90500000Y-85500000D01*
X93190000Y-84475000D02*
X93190000Y-83310000D01*
X93190000Y-85810000D02*
X93000000Y-86000000D01*
%TO.N,Net-(R28-Pad2)*%
X102250000Y-75087500D02*
X102250000Y-74250000D01*
X91750000Y-65250000D02*
X92135000Y-65635000D01*
X99500000Y-71250000D02*
X98750000Y-71250000D01*
X102250000Y-74250000D02*
X99500000Y-71250000D01*
X91250000Y-65250000D02*
X91500000Y-65250000D01*
X92135000Y-65635000D02*
X92135000Y-66775000D01*
X90865000Y-65635000D02*
X91250000Y-65250000D01*
X92000000Y-62250000D02*
X91500000Y-62750000D01*
X95500000Y-62250000D02*
X92000000Y-62250000D01*
X91500000Y-65250000D02*
X91750000Y-65250000D01*
X96000000Y-62750000D02*
X95500000Y-62250000D01*
X91500000Y-62750000D02*
X91500000Y-65250000D01*
X96000000Y-67500000D02*
X96000000Y-62750000D01*
X98000000Y-70500000D02*
X98000000Y-69500000D01*
X98000000Y-69500000D02*
X96000000Y-67500000D01*
X90865000Y-66775000D02*
X90865000Y-65635000D01*
X98750000Y-71250000D02*
X98000000Y-70500000D01*
%TO.N,Net-(R32-Pad1)*%
X108500000Y-72500000D02*
X108500000Y-69250000D01*
X107500000Y-73500000D02*
X108500000Y-72500000D01*
X109500000Y-68250000D02*
X111750000Y-68250000D01*
X115540000Y-70500000D02*
X113000000Y-70500000D01*
X113000000Y-69500000D02*
X113000000Y-70500000D01*
X111750000Y-68250000D02*
X113000000Y-69500000D01*
X108500000Y-69250000D02*
X109500000Y-68250000D01*
X106412500Y-73500000D02*
X107500000Y-73500000D01*
%TO.N,Net-(R33-Pad1)*%
X104750000Y-63500000D02*
X104750000Y-68087500D01*
X106000000Y-62250000D02*
X104750000Y-63500000D01*
X107000000Y-62250000D02*
X106000000Y-62250000D01*
%TO.N,Net-(R40-Pad1)*%
X100810000Y-79525000D02*
X100810000Y-78560000D01*
X97560000Y-77940000D02*
X99690000Y-77940000D01*
X97000000Y-79525000D02*
X97000000Y-78500000D01*
X100190000Y-77940000D02*
X99690000Y-77940000D01*
X99690000Y-76972500D02*
X99750000Y-76912500D01*
X99690000Y-77940000D02*
X99690000Y-76972500D01*
X97000000Y-78500000D02*
X97560000Y-77940000D01*
X100810000Y-78560000D02*
X100190000Y-77940000D01*
%TO.N,Net-(RV1-Pad1)*%
X110460000Y-70500000D02*
X110460000Y-73210000D01*
X111905000Y-74655000D02*
X111905000Y-79525000D01*
X110460000Y-73210000D02*
X111905000Y-74655000D01*
%TO.N,Net-(U2-Pad10)*%
X86975000Y-84862500D02*
X86975000Y-85725000D01*
X76850000Y-86100000D02*
X76850000Y-84862500D01*
X86975000Y-85725000D02*
X87000000Y-85750000D01*
X87000000Y-85750000D02*
X86500000Y-86250000D01*
X86500000Y-86250000D02*
X77000000Y-86250000D01*
X77000000Y-86250000D02*
X76850000Y-86100000D01*
%TO.N,Net-(U2-Pad11)*%
X87625000Y-82625000D02*
X87625000Y-84862500D01*
X78250000Y-82500000D02*
X85500000Y-82500000D01*
X86000000Y-82000000D02*
X87000000Y-82000000D01*
X85500000Y-82500000D02*
X86000000Y-82000000D01*
X77500000Y-84862500D02*
X77500000Y-83250000D01*
X87000000Y-82000000D02*
X87625000Y-82625000D01*
X77500000Y-83250000D02*
X78250000Y-82500000D01*
%TO.N,Net-(U2-Pad12)*%
X78800000Y-83550000D02*
X78750000Y-83500000D01*
X78527818Y-83500000D02*
X78150000Y-83877818D01*
X85675000Y-83925000D02*
X85250000Y-83500000D01*
X85675000Y-84862500D02*
X85675000Y-83925000D01*
X78800000Y-84862500D02*
X78800000Y-83550000D01*
X85250000Y-83500000D02*
X78750000Y-83500000D01*
X78750000Y-83500000D02*
X78527818Y-83500000D01*
X78150000Y-83877818D02*
X78150000Y-84862500D01*
%TO.N,Net-(U3-Pad3)*%
X78150000Y-101100000D02*
X78150000Y-100112500D01*
X76850000Y-101100000D02*
X77250000Y-101500000D01*
X77750000Y-101500000D02*
X78150000Y-101100000D01*
X76850000Y-100112500D02*
X76850000Y-101100000D01*
X77250000Y-101500000D02*
X77750000Y-101500000D01*
%TO.N,Net-(U3-Pad4)*%
X77500000Y-96500000D02*
X77500000Y-100112500D01*
X78800000Y-95950000D02*
X78750000Y-96000000D01*
X79450000Y-94387500D02*
X79450000Y-95550000D01*
X78800000Y-94387500D02*
X78800000Y-95950000D01*
X79000000Y-96000000D02*
X78750000Y-96000000D01*
X79450000Y-95550000D02*
X79000000Y-96000000D01*
X78750000Y-96000000D02*
X78000000Y-96000000D01*
X78000000Y-96000000D02*
X77500000Y-96500000D01*
%TO.N,Net-(U4-Pad3)*%
X95250000Y-82250000D02*
X94460000Y-81460000D01*
X88750000Y-81250000D02*
X94250000Y-81250000D01*
X98270000Y-83520000D02*
X97000000Y-82250000D01*
X94250000Y-81250000D02*
X94460000Y-81460000D01*
X86975000Y-79137500D02*
X86975000Y-79975000D01*
X86975000Y-79975000D02*
X87500000Y-80500000D01*
X94460000Y-81460000D02*
X94460000Y-79525000D01*
X88000000Y-80500000D02*
X88750000Y-81250000D01*
X97000000Y-82250000D02*
X95250000Y-82250000D01*
X98270000Y-84475000D02*
X98270000Y-83520000D01*
X87500000Y-80500000D02*
X88000000Y-80500000D01*
%TO.N,Net-(U4-Pad7)*%
X92000000Y-76000000D02*
X90000000Y-74000000D01*
X96250000Y-81500000D02*
X95730000Y-80980000D01*
X97500000Y-81500000D02*
X96250000Y-81500000D01*
X86500000Y-74000000D02*
X86000000Y-74500000D01*
X95730000Y-79525000D02*
X95750000Y-79505000D01*
X99540000Y-83540000D02*
X97500000Y-81500000D01*
X95500000Y-77250000D02*
X95500000Y-76250000D01*
X95750000Y-77500000D02*
X95500000Y-77250000D01*
X95730000Y-80980000D02*
X95730000Y-79525000D01*
X86000000Y-74500000D02*
X86000000Y-76750000D01*
X84375000Y-78375000D02*
X84375000Y-79137500D01*
X95250000Y-76000000D02*
X92000000Y-76000000D01*
X95500000Y-76250000D02*
X95250000Y-76000000D01*
X86000000Y-76750000D02*
X84375000Y-78375000D01*
X99540000Y-84475000D02*
X99540000Y-83540000D01*
X95750000Y-79505000D02*
X95750000Y-77500000D01*
X90000000Y-74000000D02*
X86500000Y-74000000D01*
%TD*%
M02*
