M48
; DRILL file {KiCad 6.0.11-2627ca5db0~126~ubuntu22.04.1} date Fr 12 Mai 2023 21:31:30 CEST
; FORMAT={-:-/ absolute / metric / decimal}
; #@! TF.CreationDate,2023-05-12T21:31:30+02:00
; #@! TF.GenerationSoftware,Kicad,Pcbnew,6.0.11-2627ca5db0~126~ubuntu22.04.1
; #@! TF.FileFunction,MixedPlating,1,2
FMAT,2
METRIC
; #@! TA.AperFunction,Plated,PTH,ViaDrill
T1C0.400
; #@! TA.AperFunction,Plated,PTH,ComponentDrill
T2C0.800
; #@! TA.AperFunction,Plated,PTH,ComponentDrill
T3C1.190
; #@! TA.AperFunction,NonPlated,NPTH,ComponentDrill
T4C3.200
%
G90
G05
T1
X57.25Y-86.0
X57.25Y-87.0
X57.25Y-88.0
X62.25Y-75.0
X67.5Y-70.25
X68.0Y-96.0
X68.5Y-70.25
X69.5Y-70.25
X71.0Y-98.0
X71.25Y-82.75
X71.75Y-61.0
X72.25Y-78.0
X73.0Y-62.75
X73.0Y-66.25
X74.0Y-73.0
X74.0Y-89.75
X74.25Y-88.0
X75.0Y-77.5
X77.5Y-92.25
X79.0Y-59.75
X79.25Y-68.5
X79.5Y-88.5
X80.5Y-80.25
X80.5Y-100.5
X81.0Y-84.75
X81.0Y-96.0
X81.0Y-98.0
X81.25Y-90.75
X82.75Y-62.5
X82.75Y-73.5
X82.75Y-77.5
X84.5Y-80.75
X84.5Y-87.25
X85.75Y-98.25
X86.25Y-93.75
X86.5Y-64.0
X86.5Y-83.0
X87.0Y-66.5
X87.0Y-71.75
X87.75Y-86.75
X90.0Y-62.5
X90.5Y-90.0
X92.0Y-79.25
X92.5Y-75.0
X92.5Y-82.25
X93.75Y-59.75
X93.75Y-70.0
X94.5Y-97.75
X94.75Y-89.0
X97.0Y-72.25
X97.75Y-87.25
X98.0Y-64.5
X98.75Y-81.0
X100.5Y-62.25
X100.75Y-82.75
X104.5Y-79.0
X106.75Y-84.5
X107.0Y-88.25
X107.25Y-72.0
X108.0Y-75.25
X109.5Y-75.25
X112.5Y-86.25
X114.25Y-81.75
T2
X107.0Y-59.71
X107.0Y-62.25
X107.0Y-64.79
X110.46Y-70.5
X113.0Y-70.5
X115.54Y-70.5
T3
X60.0Y-86.96
X60.0Y-89.5
X60.0Y-92.04
X60.02Y-59.07
X60.02Y-61.61
X60.02Y-64.15
X60.02Y-66.69
X60.02Y-69.23
X60.02Y-71.77
X60.02Y-74.31
X60.02Y-76.85
X60.02Y-79.39
X60.02Y-81.93
X60.02Y-97.21
X60.02Y-99.75
X60.02Y-102.29
X114.75Y-58.96
X114.75Y-61.5
X114.75Y-64.04
T4
X68.0Y-55.0
X68.0Y-105.0
X100.0Y-55.0
X100.0Y-105.0
T0
M30
