%TF.GenerationSoftware,KiCad,Pcbnew,6.0.11-2627ca5db0~126~ubuntu22.04.1*%
%TF.CreationDate,2023-05-12T21:42:37+02:00*%
%TF.ProjectId,Etherwave-GateCV,45746865-7277-4617-9665-2d4761746543,rev?*%
%TF.SameCoordinates,Original*%
%TF.FileFunction,Legend,Top*%
%TF.FilePolarity,Positive*%
%FSLAX46Y46*%
G04 Gerber Fmt 4.6, Leading zero omitted, Abs format (unit mm)*
G04 Created by KiCad (PCBNEW 6.0.11-2627ca5db0~126~ubuntu22.04.1) date 2023-05-12 21:42:37*
%MOMM*%
%LPD*%
G01*
G04 APERTURE LIST*
G04 Aperture macros list*
%AMRoundRect*
0 Rectangle with rounded corners*
0 $1 Rounding radius*
0 $2 $3 $4 $5 $6 $7 $8 $9 X,Y pos of 4 corners*
0 Add a 4 corners polygon primitive as box body*
4,1,4,$2,$3,$4,$5,$6,$7,$8,$9,$2,$3,0*
0 Add four circle primitives for the rounded corners*
1,1,$1+$1,$2,$3*
1,1,$1+$1,$4,$5*
1,1,$1+$1,$6,$7*
1,1,$1+$1,$8,$9*
0 Add four rect primitives between the rounded corners*
20,1,$1+$1,$2,$3,$4,$5,0*
20,1,$1+$1,$4,$5,$6,$7,0*
20,1,$1+$1,$6,$7,$8,$9,0*
20,1,$1+$1,$8,$9,$2,$3,0*%
G04 Aperture macros list end*
%ADD10C,0.150000*%
%ADD11C,0.100000*%
%ADD12C,0.400000*%
%ADD13C,0.120000*%
%ADD14C,3.200000*%
%ADD15RoundRect,0.237500X-0.300000X-0.237500X0.300000X-0.237500X0.300000X0.237500X-0.300000X0.237500X0*%
%ADD16RoundRect,0.237500X0.237500X-0.250000X0.237500X0.250000X-0.237500X0.250000X-0.237500X-0.250000X0*%
%ADD17RoundRect,0.250000X0.845000X-0.620000X0.845000X0.620000X-0.845000X0.620000X-0.845000X-0.620000X0*%
%ADD18O,2.190000X1.740000*%
%ADD19RoundRect,0.250000X1.450000X-0.537500X1.450000X0.537500X-1.450000X0.537500X-1.450000X-0.537500X0*%
%ADD20RoundRect,0.237500X0.237500X-0.300000X0.237500X0.300000X-0.237500X0.300000X-0.237500X-0.300000X0*%
%ADD21RoundRect,0.150000X-0.150000X0.825000X-0.150000X-0.825000X0.150000X-0.825000X0.150000X0.825000X0*%
%ADD22RoundRect,0.237500X-0.237500X0.250000X-0.237500X-0.250000X0.237500X-0.250000X0.237500X0.250000X0*%
%ADD23RoundRect,0.237500X0.300000X0.237500X-0.300000X0.237500X-0.300000X-0.237500X0.300000X-0.237500X0*%
%ADD24RoundRect,0.237500X-0.250000X-0.237500X0.250000X-0.237500X0.250000X0.237500X-0.250000X0.237500X0*%
%ADD25RoundRect,0.237500X-0.237500X0.300000X-0.237500X-0.300000X0.237500X-0.300000X0.237500X0.300000X0*%
%ADD26RoundRect,0.237500X0.250000X0.237500X-0.250000X0.237500X-0.250000X-0.237500X0.250000X-0.237500X0*%
%ADD27R,1.900000X0.800000*%
%ADD28RoundRect,0.150000X-0.587500X-0.150000X0.587500X-0.150000X0.587500X0.150000X-0.587500X0.150000X0*%
%ADD29R,0.400000X1.500000*%
%ADD30C,1.440000*%
%ADD31R,1.000000X1.000000*%
%ADD32RoundRect,0.100000X-0.100000X0.637500X-0.100000X-0.637500X0.100000X-0.637500X0.100000X0.637500X0*%
%ADD33RoundRect,0.100000X0.100000X-0.637500X0.100000X0.637500X-0.100000X0.637500X-0.100000X-0.637500X0*%
%ADD34RoundRect,0.150000X0.150000X-0.825000X0.150000X0.825000X-0.150000X0.825000X-0.150000X-0.825000X0*%
%ADD35RoundRect,0.250000X-0.845000X0.620000X-0.845000X-0.620000X0.845000X-0.620000X0.845000X0.620000X0*%
G04 APERTURE END LIST*
D10*
X78500000Y-106000000D02*
G75*
G03*
X78500000Y-106000000I-2000000J0D01*
G01*
D11*
X71000000Y-105000000D02*
G75*
G03*
X71000000Y-105000000I-3000000J0D01*
G01*
D10*
X105000000Y-79000000D02*
X105750000Y-79000000D01*
D11*
G36*
X78000000Y-106750000D02*
G01*
X76500000Y-107750000D01*
X75000000Y-106750000D01*
X75000000Y-106250000D01*
X78000000Y-106250000D01*
X78000000Y-106750000D01*
G37*
X78000000Y-106750000D02*
X76500000Y-107750000D01*
X75000000Y-106750000D01*
X75000000Y-106250000D01*
X78000000Y-106250000D01*
X78000000Y-106750000D01*
D10*
X105750000Y-79000000D02*
X105750000Y-78250000D01*
D11*
X103000000Y-105000000D02*
G75*
G03*
X103000000Y-105000000I-3000000J0D01*
G01*
G36*
X78000000Y-105250000D02*
G01*
X78000000Y-105750000D01*
X75000000Y-105750000D01*
X75000000Y-105250000D01*
X76500000Y-104250000D01*
X78000000Y-105250000D01*
G37*
X78000000Y-105250000D02*
X78000000Y-105750000D01*
X75000000Y-105750000D01*
X75000000Y-105250000D01*
X76500000Y-104250000D01*
X78000000Y-105250000D01*
X103000000Y-55000000D02*
G75*
G03*
X103000000Y-55000000I-3000000J0D01*
G01*
X71000000Y-55000000D02*
G75*
G03*
X71000000Y-55000000I-3000000J0D01*
G01*
D10*
X102357142Y-79452380D02*
X102357142Y-78452380D01*
X102738095Y-78452380D01*
X102833333Y-78500000D01*
X102880952Y-78547619D01*
X102928571Y-78642857D01*
X102928571Y-78785714D01*
X102880952Y-78880952D01*
X102833333Y-78928571D01*
X102738095Y-78976190D01*
X102357142Y-78976190D01*
X103214285Y-78452380D02*
X103785714Y-78452380D01*
X103500000Y-79452380D02*
X103500000Y-78452380D01*
X104690476Y-79357142D02*
X104642857Y-79404761D01*
X104500000Y-79452380D01*
X104404761Y-79452380D01*
X104261904Y-79404761D01*
X104166666Y-79309523D01*
X104119047Y-79214285D01*
X104071428Y-79023809D01*
X104071428Y-78880952D01*
X104119047Y-78690476D01*
X104166666Y-78595238D01*
X104261904Y-78500000D01*
X104404761Y-78452380D01*
X104500000Y-78452380D01*
X104642857Y-78500000D01*
X104690476Y-78547619D01*
X111029761Y-56904761D02*
X111029761Y-54904761D01*
X111505952Y-54904761D01*
X111625000Y-55000000D01*
X111684523Y-55095238D01*
X111744047Y-55285714D01*
X111744047Y-55571428D01*
X111684523Y-55761904D01*
X111625000Y-55857142D01*
X111505952Y-55952380D01*
X111029761Y-55952380D01*
X112279761Y-56904761D02*
X112279761Y-55571428D01*
X112279761Y-54904761D02*
X112220238Y-55000000D01*
X112279761Y-55095238D01*
X112339285Y-55000000D01*
X112279761Y-54904761D01*
X112279761Y-55095238D01*
X112696428Y-55571428D02*
X113172619Y-55571428D01*
X112875000Y-54904761D02*
X112875000Y-56619047D01*
X112934523Y-56809523D01*
X113053571Y-56904761D01*
X113172619Y-56904761D01*
X114125000Y-56809523D02*
X114005952Y-56904761D01*
X113767857Y-56904761D01*
X113648809Y-56809523D01*
X113589285Y-56714285D01*
X113529761Y-56523809D01*
X113529761Y-55952380D01*
X113589285Y-55761904D01*
X113648809Y-55666666D01*
X113767857Y-55571428D01*
X114005952Y-55571428D01*
X114125000Y-55666666D01*
X114660714Y-56904761D02*
X114660714Y-54904761D01*
X115196428Y-56904761D02*
X115196428Y-55857142D01*
X115136904Y-55666666D01*
X115017857Y-55571428D01*
X114839285Y-55571428D01*
X114720238Y-55666666D01*
X114660714Y-55761904D01*
X117458333Y-56714285D02*
X117398809Y-56809523D01*
X117220238Y-56904761D01*
X117101190Y-56904761D01*
X116922619Y-56809523D01*
X116803571Y-56619047D01*
X116744047Y-56428571D01*
X116684523Y-56047619D01*
X116684523Y-55761904D01*
X116744047Y-55380952D01*
X116803571Y-55190476D01*
X116922619Y-55000000D01*
X117101190Y-54904761D01*
X117220238Y-54904761D01*
X117398809Y-55000000D01*
X117458333Y-55095238D01*
X117815476Y-54904761D02*
X118232142Y-56904761D01*
X118648809Y-54904761D01*
D12*
X80976190Y-107833333D02*
X80309523Y-106166666D01*
X79833333Y-107833333D02*
X79833333Y-104333333D01*
X80595238Y-104333333D01*
X80785714Y-104500000D01*
X80880952Y-104666666D01*
X80976190Y-105000000D01*
X80976190Y-105500000D01*
X80880952Y-105833333D01*
X80785714Y-106000000D01*
X80595238Y-106166666D01*
X79833333Y-106166666D01*
X81833333Y-107833333D02*
X81833333Y-104333333D01*
X81833333Y-106000000D02*
X82976190Y-106000000D01*
X82976190Y-107833333D02*
X82976190Y-104333333D01*
X83928571Y-106500000D02*
X85452380Y-106500000D01*
X87071428Y-106000000D02*
X87357142Y-106166666D01*
X87452380Y-106333333D01*
X87547619Y-106666666D01*
X87547619Y-107166666D01*
X87452380Y-107500000D01*
X87357142Y-107666666D01*
X87166666Y-107833333D01*
X86404761Y-107833333D01*
X86404761Y-104333333D01*
X87071428Y-104333333D01*
X87261904Y-104500000D01*
X87357142Y-104666666D01*
X87452380Y-105000000D01*
X87452380Y-105333333D01*
X87357142Y-105666666D01*
X87261904Y-105833333D01*
X87071428Y-106000000D01*
X86404761Y-106000000D01*
X88785714Y-104333333D02*
X88976190Y-104333333D01*
X89166666Y-104500000D01*
X89261904Y-104666666D01*
X89357142Y-105000000D01*
X89452380Y-105666666D01*
X89452380Y-106500000D01*
X89357142Y-107166666D01*
X89261904Y-107500000D01*
X89166666Y-107666666D01*
X88976190Y-107833333D01*
X88785714Y-107833333D01*
X88595238Y-107666666D01*
X88500000Y-107500000D01*
X88404761Y-107166666D01*
X88309523Y-106500000D01*
X88309523Y-105666666D01*
X88404761Y-105000000D01*
X88500000Y-104666666D01*
X88595238Y-104500000D01*
X88785714Y-104333333D01*
X90690476Y-104333333D02*
X90880952Y-104333333D01*
X91071428Y-104500000D01*
X91166666Y-104666666D01*
X91261904Y-105000000D01*
X91357142Y-105666666D01*
X91357142Y-106500000D01*
X91261904Y-107166666D01*
X91166666Y-107500000D01*
X91071428Y-107666666D01*
X90880952Y-107833333D01*
X90690476Y-107833333D01*
X90500000Y-107666666D01*
X90404761Y-107500000D01*
X90309523Y-107166666D01*
X90214285Y-106500000D01*
X90214285Y-105666666D01*
X90309523Y-105000000D01*
X90404761Y-104666666D01*
X90500000Y-104500000D01*
X90690476Y-104333333D01*
X92119047Y-104666666D02*
X92214285Y-104500000D01*
X92404761Y-104333333D01*
X92880952Y-104333333D01*
X93071428Y-104500000D01*
X93166666Y-104666666D01*
X93261904Y-105000000D01*
X93261904Y-105333333D01*
X93166666Y-105833333D01*
X92023809Y-107833333D01*
X93261904Y-107833333D01*
D10*
X63404761Y-94630952D02*
X65404761Y-94214285D01*
X63404761Y-93797619D01*
X65404761Y-93202380D02*
X65309523Y-93321428D01*
X65214285Y-93380952D01*
X65023809Y-93440476D01*
X64452380Y-93440476D01*
X64261904Y-93380952D01*
X64166666Y-93321428D01*
X64071428Y-93202380D01*
X64071428Y-93023809D01*
X64166666Y-92904761D01*
X64261904Y-92845238D01*
X64452380Y-92785714D01*
X65023809Y-92785714D01*
X65214285Y-92845238D01*
X65309523Y-92904761D01*
X65404761Y-93023809D01*
X65404761Y-93202380D01*
X65404761Y-92071428D02*
X65309523Y-92190476D01*
X65119047Y-92250000D01*
X63404761Y-92250000D01*
X64071428Y-91059523D02*
X65404761Y-91059523D01*
X64071428Y-91595238D02*
X65119047Y-91595238D01*
X65309523Y-91535714D01*
X65404761Y-91416666D01*
X65404761Y-91238095D01*
X65309523Y-91119047D01*
X65214285Y-91059523D01*
X65404761Y-90464285D02*
X64071428Y-90464285D01*
X64261904Y-90464285D02*
X64166666Y-90404761D01*
X64071428Y-90285714D01*
X64071428Y-90107142D01*
X64166666Y-89988095D01*
X64357142Y-89928571D01*
X65404761Y-89928571D01*
X64357142Y-89928571D02*
X64166666Y-89869047D01*
X64071428Y-89750000D01*
X64071428Y-89571428D01*
X64166666Y-89452380D01*
X64357142Y-89392857D01*
X65404761Y-89392857D01*
X65309523Y-88321428D02*
X65404761Y-88440476D01*
X65404761Y-88678571D01*
X65309523Y-88797619D01*
X65119047Y-88857142D01*
X64357142Y-88857142D01*
X64166666Y-88797619D01*
X64071428Y-88678571D01*
X64071428Y-88440476D01*
X64166666Y-88321428D01*
X64357142Y-88261904D01*
X64547619Y-88261904D01*
X64738095Y-88857142D01*
X65214285Y-86059523D02*
X65309523Y-86119047D01*
X65404761Y-86297619D01*
X65404761Y-86416666D01*
X65309523Y-86595238D01*
X65119047Y-86714285D01*
X64928571Y-86773809D01*
X64547619Y-86833333D01*
X64261904Y-86833333D01*
X63880952Y-86773809D01*
X63690476Y-86714285D01*
X63500000Y-86595238D01*
X63404761Y-86416666D01*
X63404761Y-86297619D01*
X63500000Y-86119047D01*
X63595238Y-86059523D01*
X63404761Y-85702380D02*
X65404761Y-85285714D01*
X63404761Y-84869047D01*
X63500000Y-100880952D02*
X63404761Y-101000000D01*
X63404761Y-101178571D01*
X63500000Y-101357142D01*
X63690476Y-101476190D01*
X63880952Y-101535714D01*
X64261904Y-101595238D01*
X64547619Y-101595238D01*
X64928571Y-101535714D01*
X65119047Y-101476190D01*
X65309523Y-101357142D01*
X65404761Y-101178571D01*
X65404761Y-101059523D01*
X65309523Y-100880952D01*
X65214285Y-100821428D01*
X64547619Y-100821428D01*
X64547619Y-101059523D01*
X65404761Y-99750000D02*
X64357142Y-99750000D01*
X64166666Y-99809523D01*
X64071428Y-99928571D01*
X64071428Y-100166666D01*
X64166666Y-100285714D01*
X65309523Y-99750000D02*
X65404761Y-99869047D01*
X65404761Y-100166666D01*
X65309523Y-100285714D01*
X65119047Y-100345238D01*
X64928571Y-100345238D01*
X64738095Y-100285714D01*
X64642857Y-100166666D01*
X64642857Y-99869047D01*
X64547619Y-99750000D01*
X64071428Y-99333333D02*
X64071428Y-98857142D01*
X63404761Y-99154761D02*
X65119047Y-99154761D01*
X65309523Y-99095238D01*
X65404761Y-98976190D01*
X65404761Y-98857142D01*
X65309523Y-97964285D02*
X65404761Y-98083333D01*
X65404761Y-98321428D01*
X65309523Y-98440476D01*
X65119047Y-98500000D01*
X64357142Y-98500000D01*
X64166666Y-98440476D01*
X64071428Y-98321428D01*
X64071428Y-98083333D01*
X64166666Y-97964285D01*
X64357142Y-97904761D01*
X64547619Y-97904761D01*
X64738095Y-98500000D01*
X64357142Y-78029761D02*
X64357142Y-77613095D01*
X65404761Y-77434523D02*
X65404761Y-78029761D01*
X63404761Y-78029761D01*
X63404761Y-77434523D01*
X64071428Y-77077380D02*
X64071428Y-76601190D01*
X63404761Y-76898809D02*
X65119047Y-76898809D01*
X65309523Y-76839285D01*
X65404761Y-76720238D01*
X65404761Y-76601190D01*
X65404761Y-76184523D02*
X63404761Y-76184523D01*
X65404761Y-75648809D02*
X64357142Y-75648809D01*
X64166666Y-75708333D01*
X64071428Y-75827380D01*
X64071428Y-76005952D01*
X64166666Y-76125000D01*
X64261904Y-76184523D01*
X65309523Y-74577380D02*
X65404761Y-74696428D01*
X65404761Y-74934523D01*
X65309523Y-75053571D01*
X65119047Y-75113095D01*
X64357142Y-75113095D01*
X64166666Y-75053571D01*
X64071428Y-74934523D01*
X64071428Y-74696428D01*
X64166666Y-74577380D01*
X64357142Y-74517857D01*
X64547619Y-74517857D01*
X64738095Y-75113095D01*
X65404761Y-73982142D02*
X64071428Y-73982142D01*
X64452380Y-73982142D02*
X64261904Y-73922619D01*
X64166666Y-73863095D01*
X64071428Y-73744047D01*
X64071428Y-73625000D01*
X64071428Y-73327380D02*
X65404761Y-73089285D01*
X64452380Y-72851190D01*
X65404761Y-72613095D01*
X64071428Y-72375000D01*
X65404761Y-71363095D02*
X64357142Y-71363095D01*
X64166666Y-71422619D01*
X64071428Y-71541666D01*
X64071428Y-71779761D01*
X64166666Y-71898809D01*
X65309523Y-71363095D02*
X65404761Y-71482142D01*
X65404761Y-71779761D01*
X65309523Y-71898809D01*
X65119047Y-71958333D01*
X64928571Y-71958333D01*
X64738095Y-71898809D01*
X64642857Y-71779761D01*
X64642857Y-71482142D01*
X64547619Y-71363095D01*
X64071428Y-70886904D02*
X65404761Y-70589285D01*
X64071428Y-70291666D01*
X65309523Y-69339285D02*
X65404761Y-69458333D01*
X65404761Y-69696428D01*
X65309523Y-69815476D01*
X65119047Y-69875000D01*
X64357142Y-69875000D01*
X64166666Y-69815476D01*
X64071428Y-69696428D01*
X64071428Y-69458333D01*
X64166666Y-69339285D01*
X64357142Y-69279761D01*
X64547619Y-69279761D01*
X64738095Y-69875000D01*
X64357142Y-67375000D02*
X64452380Y-67196428D01*
X64547619Y-67136904D01*
X64738095Y-67077380D01*
X65023809Y-67077380D01*
X65214285Y-67136904D01*
X65309523Y-67196428D01*
X65404761Y-67315476D01*
X65404761Y-67791666D01*
X63404761Y-67791666D01*
X63404761Y-67375000D01*
X63500000Y-67255952D01*
X63595238Y-67196428D01*
X63785714Y-67136904D01*
X63976190Y-67136904D01*
X64166666Y-67196428D01*
X64261904Y-67255952D01*
X64357142Y-67375000D01*
X64357142Y-67791666D01*
X65404761Y-66363095D02*
X65309523Y-66482142D01*
X65214285Y-66541666D01*
X65023809Y-66601190D01*
X64452380Y-66601190D01*
X64261904Y-66541666D01*
X64166666Y-66482142D01*
X64071428Y-66363095D01*
X64071428Y-66184523D01*
X64166666Y-66065476D01*
X64261904Y-66005952D01*
X64452380Y-65946428D01*
X65023809Y-65946428D01*
X65214285Y-66005952D01*
X65309523Y-66065476D01*
X65404761Y-66184523D01*
X65404761Y-66363095D01*
X65404761Y-64875000D02*
X64357142Y-64875000D01*
X64166666Y-64934523D01*
X64071428Y-65053571D01*
X64071428Y-65291666D01*
X64166666Y-65410714D01*
X65309523Y-64875000D02*
X65404761Y-64994047D01*
X65404761Y-65291666D01*
X65309523Y-65410714D01*
X65119047Y-65470238D01*
X64928571Y-65470238D01*
X64738095Y-65410714D01*
X64642857Y-65291666D01*
X64642857Y-64994047D01*
X64547619Y-64875000D01*
X65404761Y-64279761D02*
X64071428Y-64279761D01*
X64452380Y-64279761D02*
X64261904Y-64220238D01*
X64166666Y-64160714D01*
X64071428Y-64041666D01*
X64071428Y-63922619D01*
X65404761Y-62970238D02*
X63404761Y-62970238D01*
X65309523Y-62970238D02*
X65404761Y-63089285D01*
X65404761Y-63327380D01*
X65309523Y-63446428D01*
X65214285Y-63505952D01*
X65023809Y-63565476D01*
X64452380Y-63565476D01*
X64261904Y-63505952D01*
X64166666Y-63446428D01*
X64071428Y-63327380D01*
X64071428Y-63089285D01*
X64166666Y-62970238D01*
X74738095Y-102952380D02*
X74404761Y-102476190D01*
X74166666Y-102952380D02*
X74166666Y-101952380D01*
X74547619Y-101952380D01*
X74642857Y-102000000D01*
X74690476Y-102047619D01*
X74738095Y-102142857D01*
X74738095Y-102285714D01*
X74690476Y-102380952D01*
X74642857Y-102428571D01*
X74547619Y-102476190D01*
X74166666Y-102476190D01*
X75166666Y-102952380D02*
X75166666Y-102285714D01*
X75166666Y-101952380D02*
X75119047Y-102000000D01*
X75166666Y-102047619D01*
X75214285Y-102000000D01*
X75166666Y-101952380D01*
X75166666Y-102047619D01*
X75547619Y-102285714D02*
X75785714Y-102952380D01*
X76023809Y-102285714D01*
X76785714Y-102904761D02*
X76690476Y-102952380D01*
X76500000Y-102952380D01*
X76404761Y-102904761D01*
X76357142Y-102809523D01*
X76357142Y-102428571D01*
X76404761Y-102333333D01*
X76500000Y-102285714D01*
X76690476Y-102285714D01*
X76785714Y-102333333D01*
X76833333Y-102428571D01*
X76833333Y-102523809D01*
X76357142Y-102619047D01*
X77261904Y-102285714D02*
X77261904Y-102952380D01*
X77261904Y-102380952D02*
X77309523Y-102333333D01*
X77404761Y-102285714D01*
X77547619Y-102285714D01*
X77642857Y-102333333D01*
X77690476Y-102428571D01*
X77690476Y-102952380D01*
X78928571Y-102952380D02*
X78928571Y-101952380D01*
X78928571Y-102428571D02*
X79500000Y-102428571D01*
X79500000Y-102952380D02*
X79500000Y-101952380D01*
X80357142Y-102904761D02*
X80261904Y-102952380D01*
X80071428Y-102952380D01*
X79976190Y-102904761D01*
X79928571Y-102809523D01*
X79928571Y-102428571D01*
X79976190Y-102333333D01*
X80071428Y-102285714D01*
X80261904Y-102285714D01*
X80357142Y-102333333D01*
X80404761Y-102428571D01*
X80404761Y-102523809D01*
X79928571Y-102619047D01*
X80738095Y-102952380D02*
X81261904Y-102285714D01*
X80738095Y-102285714D02*
X81261904Y-102952380D01*
X82071428Y-102952380D02*
X82071428Y-102428571D01*
X82023809Y-102333333D01*
X81928571Y-102285714D01*
X81738095Y-102285714D01*
X81642857Y-102333333D01*
X82071428Y-102904761D02*
X81976190Y-102952380D01*
X81738095Y-102952380D01*
X81642857Y-102904761D01*
X81595238Y-102809523D01*
X81595238Y-102714285D01*
X81642857Y-102619047D01*
X81738095Y-102571428D01*
X81976190Y-102571428D01*
X82071428Y-102523809D01*
X82976190Y-102285714D02*
X82976190Y-103095238D01*
X82928571Y-103190476D01*
X82880952Y-103238095D01*
X82785714Y-103285714D01*
X82642857Y-103285714D01*
X82547619Y-103238095D01*
X82976190Y-102904761D02*
X82880952Y-102952380D01*
X82690476Y-102952380D01*
X82595238Y-102904761D01*
X82547619Y-102857142D01*
X82500000Y-102761904D01*
X82500000Y-102476190D01*
X82547619Y-102380952D01*
X82595238Y-102333333D01*
X82690476Y-102285714D01*
X82880952Y-102285714D01*
X82976190Y-102333333D01*
X83595238Y-102952380D02*
X83500000Y-102904761D01*
X83452380Y-102857142D01*
X83404761Y-102761904D01*
X83404761Y-102476190D01*
X83452380Y-102380952D01*
X83500000Y-102333333D01*
X83595238Y-102285714D01*
X83738095Y-102285714D01*
X83833333Y-102333333D01*
X83880952Y-102380952D01*
X83928571Y-102476190D01*
X83928571Y-102761904D01*
X83880952Y-102857142D01*
X83833333Y-102904761D01*
X83738095Y-102952380D01*
X83595238Y-102952380D01*
X84357142Y-102285714D02*
X84357142Y-102952380D01*
X84357142Y-102380952D02*
X84404761Y-102333333D01*
X84500000Y-102285714D01*
X84642857Y-102285714D01*
X84738095Y-102333333D01*
X84785714Y-102428571D01*
X84785714Y-102952380D01*
X86023809Y-102428571D02*
X86357142Y-102428571D01*
X86500000Y-102952380D02*
X86023809Y-102952380D01*
X86023809Y-101952380D01*
X86500000Y-101952380D01*
X87071428Y-102952380D02*
X86976190Y-102904761D01*
X86928571Y-102809523D01*
X86928571Y-101952380D01*
X87833333Y-102904761D02*
X87738095Y-102952380D01*
X87547619Y-102952380D01*
X87452380Y-102904761D01*
X87404761Y-102809523D01*
X87404761Y-102428571D01*
X87452380Y-102333333D01*
X87547619Y-102285714D01*
X87738095Y-102285714D01*
X87833333Y-102333333D01*
X87880952Y-102428571D01*
X87880952Y-102523809D01*
X87404761Y-102619047D01*
X88738095Y-102904761D02*
X88642857Y-102952380D01*
X88452380Y-102952380D01*
X88357142Y-102904761D01*
X88309523Y-102857142D01*
X88261904Y-102761904D01*
X88261904Y-102476190D01*
X88309523Y-102380952D01*
X88357142Y-102333333D01*
X88452380Y-102285714D01*
X88642857Y-102285714D01*
X88738095Y-102333333D01*
X89023809Y-102285714D02*
X89404761Y-102285714D01*
X89166666Y-101952380D02*
X89166666Y-102809523D01*
X89214285Y-102904761D01*
X89309523Y-102952380D01*
X89404761Y-102952380D01*
X89738095Y-102952380D02*
X89738095Y-102285714D01*
X89738095Y-102476190D02*
X89785714Y-102380952D01*
X89833333Y-102333333D01*
X89928571Y-102285714D01*
X90023809Y-102285714D01*
X90500000Y-102952380D02*
X90404761Y-102904761D01*
X90357142Y-102857142D01*
X90309523Y-102761904D01*
X90309523Y-102476190D01*
X90357142Y-102380952D01*
X90404761Y-102333333D01*
X90500000Y-102285714D01*
X90642857Y-102285714D01*
X90738095Y-102333333D01*
X90785714Y-102380952D01*
X90833333Y-102476190D01*
X90833333Y-102761904D01*
X90785714Y-102857142D01*
X90738095Y-102904761D01*
X90642857Y-102952380D01*
X90500000Y-102952380D01*
X91261904Y-102285714D02*
X91261904Y-102952380D01*
X91261904Y-102380952D02*
X91309523Y-102333333D01*
X91404761Y-102285714D01*
X91547619Y-102285714D01*
X91642857Y-102333333D01*
X91690476Y-102428571D01*
X91690476Y-102952380D01*
X92166666Y-102952380D02*
X92166666Y-102285714D01*
X92166666Y-101952380D02*
X92119047Y-102000000D01*
X92166666Y-102047619D01*
X92214285Y-102000000D01*
X92166666Y-101952380D01*
X92166666Y-102047619D01*
X93071428Y-102904761D02*
X92976190Y-102952380D01*
X92785714Y-102952380D01*
X92690476Y-102904761D01*
X92642857Y-102857142D01*
X92595238Y-102761904D01*
X92595238Y-102476190D01*
X92642857Y-102380952D01*
X92690476Y-102333333D01*
X92785714Y-102285714D01*
X92976190Y-102285714D01*
X93071428Y-102333333D01*
X93452380Y-102904761D02*
X93547619Y-102952380D01*
X93738095Y-102952380D01*
X93833333Y-102904761D01*
X93880952Y-102809523D01*
X93880952Y-102761904D01*
X93833333Y-102666666D01*
X93738095Y-102619047D01*
X93595238Y-102619047D01*
X93500000Y-102571428D01*
X93452380Y-102476190D01*
X93452380Y-102428571D01*
X93500000Y-102333333D01*
X93595238Y-102285714D01*
X93738095Y-102285714D01*
X93833333Y-102333333D01*
X105095238Y-107285714D02*
X105333333Y-107952380D01*
X105571428Y-107285714D01*
X106476190Y-107952380D02*
X105904761Y-107952380D01*
X106190476Y-107952380D02*
X106190476Y-106952380D01*
X106095238Y-107095238D01*
X106000000Y-107190476D01*
X105904761Y-107238095D01*
X106904761Y-107857142D02*
X106952380Y-107904761D01*
X106904761Y-107952380D01*
X106857142Y-107904761D01*
X106904761Y-107857142D01*
X106904761Y-107952380D01*
X107571428Y-106952380D02*
X107666666Y-106952380D01*
X107761904Y-107000000D01*
X107809523Y-107047619D01*
X107857142Y-107142857D01*
X107904761Y-107333333D01*
X107904761Y-107571428D01*
X107857142Y-107761904D01*
X107809523Y-107857142D01*
X107761904Y-107904761D01*
X107666666Y-107952380D01*
X107571428Y-107952380D01*
X107476190Y-107904761D01*
X107428571Y-107857142D01*
X107380952Y-107761904D01*
X107333333Y-107571428D01*
X107333333Y-107333333D01*
X107380952Y-107142857D01*
X107428571Y-107047619D01*
X107476190Y-107000000D01*
X107571428Y-106952380D01*
X109047619Y-107047619D02*
X109095238Y-107000000D01*
X109190476Y-106952380D01*
X109428571Y-106952380D01*
X109523809Y-107000000D01*
X109571428Y-107047619D01*
X109619047Y-107142857D01*
X109619047Y-107238095D01*
X109571428Y-107380952D01*
X109000000Y-107952380D01*
X109619047Y-107952380D01*
X110238095Y-106952380D02*
X110333333Y-106952380D01*
X110428571Y-107000000D01*
X110476190Y-107047619D01*
X110523809Y-107142857D01*
X110571428Y-107333333D01*
X110571428Y-107571428D01*
X110523809Y-107761904D01*
X110476190Y-107857142D01*
X110428571Y-107904761D01*
X110333333Y-107952380D01*
X110238095Y-107952380D01*
X110142857Y-107904761D01*
X110095238Y-107857142D01*
X110047619Y-107761904D01*
X110000000Y-107571428D01*
X110000000Y-107333333D01*
X110047619Y-107142857D01*
X110095238Y-107047619D01*
X110142857Y-107000000D01*
X110238095Y-106952380D01*
X110952380Y-107047619D02*
X111000000Y-107000000D01*
X111095238Y-106952380D01*
X111333333Y-106952380D01*
X111428571Y-107000000D01*
X111476190Y-107047619D01*
X111523809Y-107142857D01*
X111523809Y-107238095D01*
X111476190Y-107380952D01*
X110904761Y-107952380D01*
X111523809Y-107952380D01*
X111857142Y-106952380D02*
X112476190Y-106952380D01*
X112142857Y-107333333D01*
X112285714Y-107333333D01*
X112380952Y-107380952D01*
X112428571Y-107428571D01*
X112476190Y-107523809D01*
X112476190Y-107761904D01*
X112428571Y-107857142D01*
X112380952Y-107904761D01*
X112285714Y-107952380D01*
X112000000Y-107952380D01*
X111904761Y-107904761D01*
X111857142Y-107857142D01*
X112904761Y-107857142D02*
X112952380Y-107904761D01*
X112904761Y-107952380D01*
X112857142Y-107904761D01*
X112904761Y-107857142D01*
X112904761Y-107952380D01*
X113571428Y-106952380D02*
X113666666Y-106952380D01*
X113761904Y-107000000D01*
X113809523Y-107047619D01*
X113857142Y-107142857D01*
X113904761Y-107333333D01*
X113904761Y-107571428D01*
X113857142Y-107761904D01*
X113809523Y-107857142D01*
X113761904Y-107904761D01*
X113666666Y-107952380D01*
X113571428Y-107952380D01*
X113476190Y-107904761D01*
X113428571Y-107857142D01*
X113380952Y-107761904D01*
X113333333Y-107571428D01*
X113333333Y-107333333D01*
X113380952Y-107142857D01*
X113428571Y-107047619D01*
X113476190Y-107000000D01*
X113571428Y-106952380D01*
X114809523Y-106952380D02*
X114333333Y-106952380D01*
X114285714Y-107428571D01*
X114333333Y-107380952D01*
X114428571Y-107333333D01*
X114666666Y-107333333D01*
X114761904Y-107380952D01*
X114809523Y-107428571D01*
X114857142Y-107523809D01*
X114857142Y-107761904D01*
X114809523Y-107857142D01*
X114761904Y-107904761D01*
X114666666Y-107952380D01*
X114428571Y-107952380D01*
X114333333Y-107904761D01*
X114285714Y-107857142D01*
%TO.C,C1*%
X71583333Y-80857142D02*
X71535714Y-80904761D01*
X71392857Y-80952380D01*
X71297619Y-80952380D01*
X71154761Y-80904761D01*
X71059523Y-80809523D01*
X71011904Y-80714285D01*
X70964285Y-80523809D01*
X70964285Y-80380952D01*
X71011904Y-80190476D01*
X71059523Y-80095238D01*
X71154761Y-80000000D01*
X71297619Y-79952380D01*
X71392857Y-79952380D01*
X71535714Y-80000000D01*
X71583333Y-80047619D01*
X72535714Y-80952380D02*
X71964285Y-80952380D01*
X72250000Y-80952380D02*
X72250000Y-79952380D01*
X72154761Y-80095238D01*
X72059523Y-80190476D01*
X71964285Y-80238095D01*
%TO.C,R14*%
X71522380Y-94392857D02*
X71046190Y-94726190D01*
X71522380Y-94964285D02*
X70522380Y-94964285D01*
X70522380Y-94583333D01*
X70570000Y-94488095D01*
X70617619Y-94440476D01*
X70712857Y-94392857D01*
X70855714Y-94392857D01*
X70950952Y-94440476D01*
X70998571Y-94488095D01*
X71046190Y-94583333D01*
X71046190Y-94964285D01*
X71522380Y-93440476D02*
X71522380Y-94011904D01*
X71522380Y-93726190D02*
X70522380Y-93726190D01*
X70665238Y-93821428D01*
X70760476Y-93916666D01*
X70808095Y-94011904D01*
X70855714Y-92583333D02*
X71522380Y-92583333D01*
X70474761Y-92821428D02*
X71189047Y-93059523D01*
X71189047Y-92440476D01*
%TO.C,J1*%
X59666666Y-56202380D02*
X59666666Y-56916666D01*
X59619047Y-57059523D01*
X59523809Y-57154761D01*
X59380952Y-57202380D01*
X59285714Y-57202380D01*
X60666666Y-57202380D02*
X60095238Y-57202380D01*
X60380952Y-57202380D02*
X60380952Y-56202380D01*
X60285714Y-56345238D01*
X60190476Y-56440476D01*
X60095238Y-56488095D01*
%TO.C,R5*%
X70522380Y-67416666D02*
X70046190Y-67750000D01*
X70522380Y-67988095D02*
X69522380Y-67988095D01*
X69522380Y-67607142D01*
X69570000Y-67511904D01*
X69617619Y-67464285D01*
X69712857Y-67416666D01*
X69855714Y-67416666D01*
X69950952Y-67464285D01*
X69998571Y-67511904D01*
X70046190Y-67607142D01*
X70046190Y-67988095D01*
X69522380Y-66511904D02*
X69522380Y-66988095D01*
X69998571Y-67035714D01*
X69950952Y-66988095D01*
X69903333Y-66892857D01*
X69903333Y-66654761D01*
X69950952Y-66559523D01*
X69998571Y-66511904D01*
X70093809Y-66464285D01*
X70331904Y-66464285D01*
X70427142Y-66511904D01*
X70474761Y-66559523D01*
X70522380Y-66654761D01*
X70522380Y-66892857D01*
X70474761Y-66988095D01*
X70427142Y-67035714D01*
%TO.C,C13*%
X93107142Y-58107142D02*
X93059523Y-58154761D01*
X92916666Y-58202380D01*
X92821428Y-58202380D01*
X92678571Y-58154761D01*
X92583333Y-58059523D01*
X92535714Y-57964285D01*
X92488095Y-57773809D01*
X92488095Y-57630952D01*
X92535714Y-57440476D01*
X92583333Y-57345238D01*
X92678571Y-57250000D01*
X92821428Y-57202380D01*
X92916666Y-57202380D01*
X93059523Y-57250000D01*
X93107142Y-57297619D01*
X94059523Y-58202380D02*
X93488095Y-58202380D01*
X93773809Y-58202380D02*
X93773809Y-57202380D01*
X93678571Y-57345238D01*
X93583333Y-57440476D01*
X93488095Y-57488095D01*
X94392857Y-57202380D02*
X95011904Y-57202380D01*
X94678571Y-57583333D01*
X94821428Y-57583333D01*
X94916666Y-57630952D01*
X94964285Y-57678571D01*
X95011904Y-57773809D01*
X95011904Y-58011904D01*
X94964285Y-58107142D01*
X94916666Y-58154761D01*
X94821428Y-58202380D01*
X94535714Y-58202380D01*
X94440476Y-58154761D01*
X94392857Y-58107142D01*
%TO.C,C14*%
X101357142Y-69392857D02*
X101404761Y-69440476D01*
X101452380Y-69583333D01*
X101452380Y-69678571D01*
X101404761Y-69821428D01*
X101309523Y-69916666D01*
X101214285Y-69964285D01*
X101023809Y-70011904D01*
X100880952Y-70011904D01*
X100690476Y-69964285D01*
X100595238Y-69916666D01*
X100500000Y-69821428D01*
X100452380Y-69678571D01*
X100452380Y-69583333D01*
X100500000Y-69440476D01*
X100547619Y-69392857D01*
X101452380Y-68440476D02*
X101452380Y-69011904D01*
X101452380Y-68726190D02*
X100452380Y-68726190D01*
X100595238Y-68821428D01*
X100690476Y-68916666D01*
X100738095Y-69011904D01*
X100785714Y-67583333D02*
X101452380Y-67583333D01*
X100404761Y-67821428D02*
X101119047Y-68059523D01*
X101119047Y-67440476D01*
%TO.C,R40*%
X100202380Y-73642857D02*
X99726190Y-73976190D01*
X100202380Y-74214285D02*
X99202380Y-74214285D01*
X99202380Y-73833333D01*
X99250000Y-73738095D01*
X99297619Y-73690476D01*
X99392857Y-73642857D01*
X99535714Y-73642857D01*
X99630952Y-73690476D01*
X99678571Y-73738095D01*
X99726190Y-73833333D01*
X99726190Y-74214285D01*
X99535714Y-72785714D02*
X100202380Y-72785714D01*
X99154761Y-73023809D02*
X99869047Y-73261904D01*
X99869047Y-72642857D01*
X99202380Y-72071428D02*
X99202380Y-71976190D01*
X99250000Y-71880952D01*
X99297619Y-71833333D01*
X99392857Y-71785714D01*
X99583333Y-71738095D01*
X99821428Y-71738095D01*
X100011904Y-71785714D01*
X100107142Y-71833333D01*
X100154761Y-71880952D01*
X100202380Y-71976190D01*
X100202380Y-72071428D01*
X100154761Y-72166666D01*
X100107142Y-72214285D01*
X100011904Y-72261904D01*
X99821428Y-72309523D01*
X99583333Y-72309523D01*
X99392857Y-72261904D01*
X99297619Y-72214285D01*
X99250000Y-72166666D01*
X99202380Y-72071428D01*
%TO.C,R3*%
X70452380Y-71666666D02*
X69976190Y-72000000D01*
X70452380Y-72238095D02*
X69452380Y-72238095D01*
X69452380Y-71857142D01*
X69500000Y-71761904D01*
X69547619Y-71714285D01*
X69642857Y-71666666D01*
X69785714Y-71666666D01*
X69880952Y-71714285D01*
X69928571Y-71761904D01*
X69976190Y-71857142D01*
X69976190Y-72238095D01*
X69452380Y-71333333D02*
X69452380Y-70714285D01*
X69833333Y-71047619D01*
X69833333Y-70904761D01*
X69880952Y-70809523D01*
X69928571Y-70761904D01*
X70023809Y-70714285D01*
X70261904Y-70714285D01*
X70357142Y-70761904D01*
X70404761Y-70809523D01*
X70452380Y-70904761D01*
X70452380Y-71190476D01*
X70404761Y-71285714D01*
X70357142Y-71333333D01*
%TO.C,C18*%
X97357142Y-72142857D02*
X97404761Y-72190476D01*
X97452380Y-72333333D01*
X97452380Y-72428571D01*
X97404761Y-72571428D01*
X97309523Y-72666666D01*
X97214285Y-72714285D01*
X97023809Y-72761904D01*
X96880952Y-72761904D01*
X96690476Y-72714285D01*
X96595238Y-72666666D01*
X96500000Y-72571428D01*
X96452380Y-72428571D01*
X96452380Y-72333333D01*
X96500000Y-72190476D01*
X96547619Y-72142857D01*
X97452380Y-71190476D02*
X97452380Y-71761904D01*
X97452380Y-71476190D02*
X96452380Y-71476190D01*
X96595238Y-71571428D01*
X96690476Y-71666666D01*
X96738095Y-71761904D01*
X96880952Y-70619047D02*
X96833333Y-70714285D01*
X96785714Y-70761904D01*
X96690476Y-70809523D01*
X96642857Y-70809523D01*
X96547619Y-70761904D01*
X96500000Y-70714285D01*
X96452380Y-70619047D01*
X96452380Y-70428571D01*
X96500000Y-70333333D01*
X96547619Y-70285714D01*
X96642857Y-70238095D01*
X96690476Y-70238095D01*
X96785714Y-70285714D01*
X96833333Y-70333333D01*
X96880952Y-70428571D01*
X96880952Y-70619047D01*
X96928571Y-70714285D01*
X96976190Y-70761904D01*
X97071428Y-70809523D01*
X97261904Y-70809523D01*
X97357142Y-70761904D01*
X97404761Y-70714285D01*
X97452380Y-70619047D01*
X97452380Y-70428571D01*
X97404761Y-70333333D01*
X97357142Y-70285714D01*
X97261904Y-70238095D01*
X97071428Y-70238095D01*
X96976190Y-70285714D01*
X96928571Y-70333333D01*
X96880952Y-70428571D01*
%TO.C,J4*%
X59666666Y-94452380D02*
X59666666Y-95166666D01*
X59619047Y-95309523D01*
X59523809Y-95404761D01*
X59380952Y-95452380D01*
X59285714Y-95452380D01*
X60571428Y-94785714D02*
X60571428Y-95452380D01*
X60333333Y-94404761D02*
X60095238Y-95119047D01*
X60714285Y-95119047D01*
%TO.C,U6*%
X101732380Y-82761904D02*
X102541904Y-82761904D01*
X102637142Y-82714285D01*
X102684761Y-82666666D01*
X102732380Y-82571428D01*
X102732380Y-82380952D01*
X102684761Y-82285714D01*
X102637142Y-82238095D01*
X102541904Y-82190476D01*
X101732380Y-82190476D01*
X101732380Y-81285714D02*
X101732380Y-81476190D01*
X101780000Y-81571428D01*
X101827619Y-81619047D01*
X101970476Y-81714285D01*
X102160952Y-81761904D01*
X102541904Y-81761904D01*
X102637142Y-81714285D01*
X102684761Y-81666666D01*
X102732380Y-81571428D01*
X102732380Y-81380952D01*
X102684761Y-81285714D01*
X102637142Y-81238095D01*
X102541904Y-81190476D01*
X102303809Y-81190476D01*
X102208571Y-81238095D01*
X102160952Y-81285714D01*
X102113333Y-81380952D01*
X102113333Y-81571428D01*
X102160952Y-81666666D01*
X102208571Y-81714285D01*
X102303809Y-81761904D01*
%TO.C,R10*%
X78202380Y-76142857D02*
X77726190Y-76476190D01*
X78202380Y-76714285D02*
X77202380Y-76714285D01*
X77202380Y-76333333D01*
X77250000Y-76238095D01*
X77297619Y-76190476D01*
X77392857Y-76142857D01*
X77535714Y-76142857D01*
X77630952Y-76190476D01*
X77678571Y-76238095D01*
X77726190Y-76333333D01*
X77726190Y-76714285D01*
X78202380Y-75190476D02*
X78202380Y-75761904D01*
X78202380Y-75476190D02*
X77202380Y-75476190D01*
X77345238Y-75571428D01*
X77440476Y-75666666D01*
X77488095Y-75761904D01*
X77202380Y-74571428D02*
X77202380Y-74476190D01*
X77250000Y-74380952D01*
X77297619Y-74333333D01*
X77392857Y-74285714D01*
X77583333Y-74238095D01*
X77821428Y-74238095D01*
X78011904Y-74285714D01*
X78107142Y-74333333D01*
X78154761Y-74380952D01*
X78202380Y-74476190D01*
X78202380Y-74571428D01*
X78154761Y-74666666D01*
X78107142Y-74714285D01*
X78011904Y-74761904D01*
X77821428Y-74809523D01*
X77583333Y-74809523D01*
X77392857Y-74761904D01*
X77297619Y-74714285D01*
X77250000Y-74666666D01*
X77202380Y-74571428D01*
%TO.C,C20*%
X111357142Y-77107142D02*
X111309523Y-77154761D01*
X111166666Y-77202380D01*
X111071428Y-77202380D01*
X110928571Y-77154761D01*
X110833333Y-77059523D01*
X110785714Y-76964285D01*
X110738095Y-76773809D01*
X110738095Y-76630952D01*
X110785714Y-76440476D01*
X110833333Y-76345238D01*
X110928571Y-76250000D01*
X111071428Y-76202380D01*
X111166666Y-76202380D01*
X111309523Y-76250000D01*
X111357142Y-76297619D01*
X111738095Y-76297619D02*
X111785714Y-76250000D01*
X111880952Y-76202380D01*
X112119047Y-76202380D01*
X112214285Y-76250000D01*
X112261904Y-76297619D01*
X112309523Y-76392857D01*
X112309523Y-76488095D01*
X112261904Y-76630952D01*
X111690476Y-77202380D01*
X112309523Y-77202380D01*
X112928571Y-76202380D02*
X113023809Y-76202380D01*
X113119047Y-76250000D01*
X113166666Y-76297619D01*
X113214285Y-76392857D01*
X113261904Y-76583333D01*
X113261904Y-76821428D01*
X113214285Y-77011904D01*
X113166666Y-77107142D01*
X113119047Y-77154761D01*
X113023809Y-77202380D01*
X112928571Y-77202380D01*
X112833333Y-77154761D01*
X112785714Y-77107142D01*
X112738095Y-77011904D01*
X112690476Y-76821428D01*
X112690476Y-76583333D01*
X112738095Y-76392857D01*
X112785714Y-76297619D01*
X112833333Y-76250000D01*
X112928571Y-76202380D01*
%TO.C,R7*%
X75702380Y-75666666D02*
X75226190Y-76000000D01*
X75702380Y-76238095D02*
X74702380Y-76238095D01*
X74702380Y-75857142D01*
X74750000Y-75761904D01*
X74797619Y-75714285D01*
X74892857Y-75666666D01*
X75035714Y-75666666D01*
X75130952Y-75714285D01*
X75178571Y-75761904D01*
X75226190Y-75857142D01*
X75226190Y-76238095D01*
X74702380Y-75333333D02*
X74702380Y-74666666D01*
X75702380Y-75095238D01*
%TO.C,C6*%
X83833333Y-62857142D02*
X83785714Y-62904761D01*
X83642857Y-62952380D01*
X83547619Y-62952380D01*
X83404761Y-62904761D01*
X83309523Y-62809523D01*
X83261904Y-62714285D01*
X83214285Y-62523809D01*
X83214285Y-62380952D01*
X83261904Y-62190476D01*
X83309523Y-62095238D01*
X83404761Y-62000000D01*
X83547619Y-61952380D01*
X83642857Y-61952380D01*
X83785714Y-62000000D01*
X83833333Y-62047619D01*
X84690476Y-61952380D02*
X84500000Y-61952380D01*
X84404761Y-62000000D01*
X84357142Y-62047619D01*
X84261904Y-62190476D01*
X84214285Y-62380952D01*
X84214285Y-62761904D01*
X84261904Y-62857142D01*
X84309523Y-62904761D01*
X84404761Y-62952380D01*
X84595238Y-62952380D01*
X84690476Y-62904761D01*
X84738095Y-62857142D01*
X84785714Y-62761904D01*
X84785714Y-62523809D01*
X84738095Y-62428571D01*
X84690476Y-62380952D01*
X84595238Y-62333333D01*
X84404761Y-62333333D01*
X84309523Y-62380952D01*
X84261904Y-62428571D01*
X84214285Y-62523809D01*
%TO.C,C15*%
X109357142Y-91857142D02*
X109309523Y-91904761D01*
X109166666Y-91952380D01*
X109071428Y-91952380D01*
X108928571Y-91904761D01*
X108833333Y-91809523D01*
X108785714Y-91714285D01*
X108738095Y-91523809D01*
X108738095Y-91380952D01*
X108785714Y-91190476D01*
X108833333Y-91095238D01*
X108928571Y-91000000D01*
X109071428Y-90952380D01*
X109166666Y-90952380D01*
X109309523Y-91000000D01*
X109357142Y-91047619D01*
X110309523Y-91952380D02*
X109738095Y-91952380D01*
X110023809Y-91952380D02*
X110023809Y-90952380D01*
X109928571Y-91095238D01*
X109833333Y-91190476D01*
X109738095Y-91238095D01*
X111214285Y-90952380D02*
X110738095Y-90952380D01*
X110690476Y-91428571D01*
X110738095Y-91380952D01*
X110833333Y-91333333D01*
X111071428Y-91333333D01*
X111166666Y-91380952D01*
X111214285Y-91428571D01*
X111261904Y-91523809D01*
X111261904Y-91761904D01*
X111214285Y-91857142D01*
X111166666Y-91904761D01*
X111071428Y-91952380D01*
X110833333Y-91952380D01*
X110738095Y-91904761D01*
X110690476Y-91857142D01*
%TO.C,R27*%
X91702380Y-81892857D02*
X91226190Y-82226190D01*
X91702380Y-82464285D02*
X90702380Y-82464285D01*
X90702380Y-82083333D01*
X90750000Y-81988095D01*
X90797619Y-81940476D01*
X90892857Y-81892857D01*
X91035714Y-81892857D01*
X91130952Y-81940476D01*
X91178571Y-81988095D01*
X91226190Y-82083333D01*
X91226190Y-82464285D01*
X90797619Y-81511904D02*
X90750000Y-81464285D01*
X90702380Y-81369047D01*
X90702380Y-81130952D01*
X90750000Y-81035714D01*
X90797619Y-80988095D01*
X90892857Y-80940476D01*
X90988095Y-80940476D01*
X91130952Y-80988095D01*
X91702380Y-81559523D01*
X91702380Y-80940476D01*
X90702380Y-80607142D02*
X90702380Y-79940476D01*
X91702380Y-80369047D01*
%TO.C,R31*%
X105107142Y-91952380D02*
X104773809Y-91476190D01*
X104535714Y-91952380D02*
X104535714Y-90952380D01*
X104916666Y-90952380D01*
X105011904Y-91000000D01*
X105059523Y-91047619D01*
X105107142Y-91142857D01*
X105107142Y-91285714D01*
X105059523Y-91380952D01*
X105011904Y-91428571D01*
X104916666Y-91476190D01*
X104535714Y-91476190D01*
X105440476Y-90952380D02*
X106059523Y-90952380D01*
X105726190Y-91333333D01*
X105869047Y-91333333D01*
X105964285Y-91380952D01*
X106011904Y-91428571D01*
X106059523Y-91523809D01*
X106059523Y-91761904D01*
X106011904Y-91857142D01*
X105964285Y-91904761D01*
X105869047Y-91952380D01*
X105583333Y-91952380D01*
X105488095Y-91904761D01*
X105440476Y-91857142D01*
X107011904Y-91952380D02*
X106440476Y-91952380D01*
X106726190Y-91952380D02*
X106726190Y-90952380D01*
X106630952Y-91095238D01*
X106535714Y-91190476D01*
X106440476Y-91238095D01*
%TO.C,C11*%
X71427142Y-90142857D02*
X71474761Y-90190476D01*
X71522380Y-90333333D01*
X71522380Y-90428571D01*
X71474761Y-90571428D01*
X71379523Y-90666666D01*
X71284285Y-90714285D01*
X71093809Y-90761904D01*
X70950952Y-90761904D01*
X70760476Y-90714285D01*
X70665238Y-90666666D01*
X70570000Y-90571428D01*
X70522380Y-90428571D01*
X70522380Y-90333333D01*
X70570000Y-90190476D01*
X70617619Y-90142857D01*
X71522380Y-89190476D02*
X71522380Y-89761904D01*
X71522380Y-89476190D02*
X70522380Y-89476190D01*
X70665238Y-89571428D01*
X70760476Y-89666666D01*
X70808095Y-89761904D01*
X71522380Y-88238095D02*
X71522380Y-88809523D01*
X71522380Y-88523809D02*
X70522380Y-88523809D01*
X70665238Y-88619047D01*
X70760476Y-88714285D01*
X70808095Y-88809523D01*
%TO.C,C22*%
X74607142Y-92142857D02*
X74654761Y-92190476D01*
X74702380Y-92333333D01*
X74702380Y-92428571D01*
X74654761Y-92571428D01*
X74559523Y-92666666D01*
X74464285Y-92714285D01*
X74273809Y-92761904D01*
X74130952Y-92761904D01*
X73940476Y-92714285D01*
X73845238Y-92666666D01*
X73750000Y-92571428D01*
X73702380Y-92428571D01*
X73702380Y-92333333D01*
X73750000Y-92190476D01*
X73797619Y-92142857D01*
X73797619Y-91761904D02*
X73750000Y-91714285D01*
X73702380Y-91619047D01*
X73702380Y-91380952D01*
X73750000Y-91285714D01*
X73797619Y-91238095D01*
X73892857Y-91190476D01*
X73988095Y-91190476D01*
X74130952Y-91238095D01*
X74702380Y-91809523D01*
X74702380Y-91190476D01*
X73797619Y-90809523D02*
X73750000Y-90761904D01*
X73702380Y-90666666D01*
X73702380Y-90428571D01*
X73750000Y-90333333D01*
X73797619Y-90285714D01*
X73892857Y-90238095D01*
X73988095Y-90238095D01*
X74130952Y-90285714D01*
X74702380Y-90857142D01*
X74702380Y-90238095D01*
%TO.C,R24*%
X82857142Y-89202380D02*
X82523809Y-88726190D01*
X82285714Y-89202380D02*
X82285714Y-88202380D01*
X82666666Y-88202380D01*
X82761904Y-88250000D01*
X82809523Y-88297619D01*
X82857142Y-88392857D01*
X82857142Y-88535714D01*
X82809523Y-88630952D01*
X82761904Y-88678571D01*
X82666666Y-88726190D01*
X82285714Y-88726190D01*
X83238095Y-88297619D02*
X83285714Y-88250000D01*
X83380952Y-88202380D01*
X83619047Y-88202380D01*
X83714285Y-88250000D01*
X83761904Y-88297619D01*
X83809523Y-88392857D01*
X83809523Y-88488095D01*
X83761904Y-88630952D01*
X83190476Y-89202380D01*
X83809523Y-89202380D01*
X84666666Y-88535714D02*
X84666666Y-89202380D01*
X84428571Y-88154761D02*
X84190476Y-88869047D01*
X84809523Y-88869047D01*
%TO.C,R20*%
X87607142Y-100202380D02*
X87273809Y-99726190D01*
X87035714Y-100202380D02*
X87035714Y-99202380D01*
X87416666Y-99202380D01*
X87511904Y-99250000D01*
X87559523Y-99297619D01*
X87607142Y-99392857D01*
X87607142Y-99535714D01*
X87559523Y-99630952D01*
X87511904Y-99678571D01*
X87416666Y-99726190D01*
X87035714Y-99726190D01*
X87988095Y-99297619D02*
X88035714Y-99250000D01*
X88130952Y-99202380D01*
X88369047Y-99202380D01*
X88464285Y-99250000D01*
X88511904Y-99297619D01*
X88559523Y-99392857D01*
X88559523Y-99488095D01*
X88511904Y-99630952D01*
X87940476Y-100202380D01*
X88559523Y-100202380D01*
X89178571Y-99202380D02*
X89273809Y-99202380D01*
X89369047Y-99250000D01*
X89416666Y-99297619D01*
X89464285Y-99392857D01*
X89511904Y-99583333D01*
X89511904Y-99821428D01*
X89464285Y-100011904D01*
X89416666Y-100107142D01*
X89369047Y-100154761D01*
X89273809Y-100202380D01*
X89178571Y-100202380D01*
X89083333Y-100154761D01*
X89035714Y-100107142D01*
X88988095Y-100011904D01*
X88940476Y-99821428D01*
X88940476Y-99583333D01*
X88988095Y-99392857D01*
X89035714Y-99297619D01*
X89083333Y-99250000D01*
X89178571Y-99202380D01*
%TO.C,Q2*%
X95404761Y-74047619D02*
X95309523Y-74000000D01*
X95214285Y-73904761D01*
X95071428Y-73761904D01*
X94976190Y-73714285D01*
X94880952Y-73714285D01*
X94928571Y-73952380D02*
X94833333Y-73904761D01*
X94738095Y-73809523D01*
X94690476Y-73619047D01*
X94690476Y-73285714D01*
X94738095Y-73095238D01*
X94833333Y-73000000D01*
X94928571Y-72952380D01*
X95119047Y-72952380D01*
X95214285Y-73000000D01*
X95309523Y-73095238D01*
X95357142Y-73285714D01*
X95357142Y-73619047D01*
X95309523Y-73809523D01*
X95214285Y-73904761D01*
X95119047Y-73952380D01*
X94928571Y-73952380D01*
X95738095Y-73047619D02*
X95785714Y-73000000D01*
X95880952Y-72952380D01*
X96119047Y-72952380D01*
X96214285Y-73000000D01*
X96261904Y-73047619D01*
X96309523Y-73142857D01*
X96309523Y-73238095D01*
X96261904Y-73380952D01*
X95690476Y-73952380D01*
X96309523Y-73952380D01*
%TO.C,C19*%
X116037142Y-84642857D02*
X116084761Y-84690476D01*
X116132380Y-84833333D01*
X116132380Y-84928571D01*
X116084761Y-85071428D01*
X115989523Y-85166666D01*
X115894285Y-85214285D01*
X115703809Y-85261904D01*
X115560952Y-85261904D01*
X115370476Y-85214285D01*
X115275238Y-85166666D01*
X115180000Y-85071428D01*
X115132380Y-84928571D01*
X115132380Y-84833333D01*
X115180000Y-84690476D01*
X115227619Y-84642857D01*
X116132380Y-83690476D02*
X116132380Y-84261904D01*
X116132380Y-83976190D02*
X115132380Y-83976190D01*
X115275238Y-84071428D01*
X115370476Y-84166666D01*
X115418095Y-84261904D01*
X116132380Y-83214285D02*
X116132380Y-83023809D01*
X116084761Y-82928571D01*
X116037142Y-82880952D01*
X115894285Y-82785714D01*
X115703809Y-82738095D01*
X115322857Y-82738095D01*
X115227619Y-82785714D01*
X115180000Y-82833333D01*
X115132380Y-82928571D01*
X115132380Y-83119047D01*
X115180000Y-83214285D01*
X115227619Y-83261904D01*
X115322857Y-83309523D01*
X115560952Y-83309523D01*
X115656190Y-83261904D01*
X115703809Y-83214285D01*
X115751428Y-83119047D01*
X115751428Y-82928571D01*
X115703809Y-82833333D01*
X115656190Y-82785714D01*
X115560952Y-82738095D01*
%TO.C,C7*%
X83107142Y-75666666D02*
X83154761Y-75714285D01*
X83202380Y-75857142D01*
X83202380Y-75952380D01*
X83154761Y-76095238D01*
X83059523Y-76190476D01*
X82964285Y-76238095D01*
X82773809Y-76285714D01*
X82630952Y-76285714D01*
X82440476Y-76238095D01*
X82345238Y-76190476D01*
X82250000Y-76095238D01*
X82202380Y-75952380D01*
X82202380Y-75857142D01*
X82250000Y-75714285D01*
X82297619Y-75666666D01*
X82202380Y-75333333D02*
X82202380Y-74666666D01*
X83202380Y-75095238D01*
%TO.C,R22*%
X90357142Y-87202380D02*
X90023809Y-86726190D01*
X89785714Y-87202380D02*
X89785714Y-86202380D01*
X90166666Y-86202380D01*
X90261904Y-86250000D01*
X90309523Y-86297619D01*
X90357142Y-86392857D01*
X90357142Y-86535714D01*
X90309523Y-86630952D01*
X90261904Y-86678571D01*
X90166666Y-86726190D01*
X89785714Y-86726190D01*
X90738095Y-86297619D02*
X90785714Y-86250000D01*
X90880952Y-86202380D01*
X91119047Y-86202380D01*
X91214285Y-86250000D01*
X91261904Y-86297619D01*
X91309523Y-86392857D01*
X91309523Y-86488095D01*
X91261904Y-86630952D01*
X90690476Y-87202380D01*
X91309523Y-87202380D01*
X91690476Y-86297619D02*
X91738095Y-86250000D01*
X91833333Y-86202380D01*
X92071428Y-86202380D01*
X92166666Y-86250000D01*
X92214285Y-86297619D01*
X92261904Y-86392857D01*
X92261904Y-86488095D01*
X92214285Y-86630952D01*
X91642857Y-87202380D01*
X92261904Y-87202380D01*
%TO.C,R34*%
X98952380Y-69392857D02*
X98476190Y-69726190D01*
X98952380Y-69964285D02*
X97952380Y-69964285D01*
X97952380Y-69583333D01*
X98000000Y-69488095D01*
X98047619Y-69440476D01*
X98142857Y-69392857D01*
X98285714Y-69392857D01*
X98380952Y-69440476D01*
X98428571Y-69488095D01*
X98476190Y-69583333D01*
X98476190Y-69964285D01*
X97952380Y-69059523D02*
X97952380Y-68440476D01*
X98333333Y-68773809D01*
X98333333Y-68630952D01*
X98380952Y-68535714D01*
X98428571Y-68488095D01*
X98523809Y-68440476D01*
X98761904Y-68440476D01*
X98857142Y-68488095D01*
X98904761Y-68535714D01*
X98952380Y-68630952D01*
X98952380Y-68916666D01*
X98904761Y-69011904D01*
X98857142Y-69059523D01*
X98285714Y-67583333D02*
X98952380Y-67583333D01*
X97904761Y-67821428D02*
X98619047Y-68059523D01*
X98619047Y-67440476D01*
%TO.C,R4*%
X67452380Y-73166666D02*
X66976190Y-73500000D01*
X67452380Y-73738095D02*
X66452380Y-73738095D01*
X66452380Y-73357142D01*
X66500000Y-73261904D01*
X66547619Y-73214285D01*
X66642857Y-73166666D01*
X66785714Y-73166666D01*
X66880952Y-73214285D01*
X66928571Y-73261904D01*
X66976190Y-73357142D01*
X66976190Y-73738095D01*
X66785714Y-72309523D02*
X67452380Y-72309523D01*
X66404761Y-72547619D02*
X67119047Y-72785714D01*
X67119047Y-72166666D01*
%TO.C,R23*%
X82852418Y-92202380D02*
X82519085Y-91726190D01*
X82280990Y-92202380D02*
X82280990Y-91202380D01*
X82661942Y-91202380D01*
X82757180Y-91250000D01*
X82804799Y-91297619D01*
X82852418Y-91392857D01*
X82852418Y-91535714D01*
X82804799Y-91630952D01*
X82757180Y-91678571D01*
X82661942Y-91726190D01*
X82280990Y-91726190D01*
X83233371Y-91297619D02*
X83280990Y-91250000D01*
X83376228Y-91202380D01*
X83614323Y-91202380D01*
X83709561Y-91250000D01*
X83757180Y-91297619D01*
X83804799Y-91392857D01*
X83804799Y-91488095D01*
X83757180Y-91630952D01*
X83185752Y-92202380D01*
X83804799Y-92202380D01*
X84138133Y-91202380D02*
X84757180Y-91202380D01*
X84423847Y-91583333D01*
X84566704Y-91583333D01*
X84661942Y-91630952D01*
X84709561Y-91678571D01*
X84757180Y-91773809D01*
X84757180Y-92011904D01*
X84709561Y-92107142D01*
X84661942Y-92154761D01*
X84566704Y-92202380D01*
X84280990Y-92202380D01*
X84185752Y-92154761D01*
X84138133Y-92107142D01*
%TO.C,R11*%
X80702380Y-76142857D02*
X80226190Y-76476190D01*
X80702380Y-76714285D02*
X79702380Y-76714285D01*
X79702380Y-76333333D01*
X79750000Y-76238095D01*
X79797619Y-76190476D01*
X79892857Y-76142857D01*
X80035714Y-76142857D01*
X80130952Y-76190476D01*
X80178571Y-76238095D01*
X80226190Y-76333333D01*
X80226190Y-76714285D01*
X80702380Y-75190476D02*
X80702380Y-75761904D01*
X80702380Y-75476190D02*
X79702380Y-75476190D01*
X79845238Y-75571428D01*
X79940476Y-75666666D01*
X79988095Y-75761904D01*
X80702380Y-74238095D02*
X80702380Y-74809523D01*
X80702380Y-74523809D02*
X79702380Y-74523809D01*
X79845238Y-74619047D01*
X79940476Y-74714285D01*
X79988095Y-74809523D01*
%TO.C,U7*%
X112852380Y-82261904D02*
X113661904Y-82261904D01*
X113757142Y-82214285D01*
X113804761Y-82166666D01*
X113852380Y-82071428D01*
X113852380Y-81880952D01*
X113804761Y-81785714D01*
X113757142Y-81738095D01*
X113661904Y-81690476D01*
X112852380Y-81690476D01*
X112852380Y-81309523D02*
X112852380Y-80642857D01*
X113852380Y-81071428D01*
%TO.C,R28*%
X102702380Y-73642857D02*
X102226190Y-73976190D01*
X102702380Y-74214285D02*
X101702380Y-74214285D01*
X101702380Y-73833333D01*
X101750000Y-73738095D01*
X101797619Y-73690476D01*
X101892857Y-73642857D01*
X102035714Y-73642857D01*
X102130952Y-73690476D01*
X102178571Y-73738095D01*
X102226190Y-73833333D01*
X102226190Y-74214285D01*
X101797619Y-73261904D02*
X101750000Y-73214285D01*
X101702380Y-73119047D01*
X101702380Y-72880952D01*
X101750000Y-72785714D01*
X101797619Y-72738095D01*
X101892857Y-72690476D01*
X101988095Y-72690476D01*
X102130952Y-72738095D01*
X102702380Y-73309523D01*
X102702380Y-72690476D01*
X102130952Y-72119047D02*
X102083333Y-72214285D01*
X102035714Y-72261904D01*
X101940476Y-72309523D01*
X101892857Y-72309523D01*
X101797619Y-72261904D01*
X101750000Y-72214285D01*
X101702380Y-72119047D01*
X101702380Y-71928571D01*
X101750000Y-71833333D01*
X101797619Y-71785714D01*
X101892857Y-71738095D01*
X101940476Y-71738095D01*
X102035714Y-71785714D01*
X102083333Y-71833333D01*
X102130952Y-71928571D01*
X102130952Y-72119047D01*
X102178571Y-72214285D01*
X102226190Y-72261904D01*
X102321428Y-72309523D01*
X102511904Y-72309523D01*
X102607142Y-72261904D01*
X102654761Y-72214285D01*
X102702380Y-72119047D01*
X102702380Y-71928571D01*
X102654761Y-71833333D01*
X102607142Y-71785714D01*
X102511904Y-71738095D01*
X102321428Y-71738095D01*
X102226190Y-71785714D01*
X102178571Y-71833333D01*
X102130952Y-71928571D01*
%TO.C,D4*%
X86202380Y-91988095D02*
X85202380Y-91988095D01*
X85202380Y-91750000D01*
X85250000Y-91607142D01*
X85345238Y-91511904D01*
X85440476Y-91464285D01*
X85630952Y-91416666D01*
X85773809Y-91416666D01*
X85964285Y-91464285D01*
X86059523Y-91511904D01*
X86154761Y-91607142D01*
X86202380Y-91750000D01*
X86202380Y-91988095D01*
X85535714Y-90559523D02*
X86202380Y-90559523D01*
X85154761Y-90797619D02*
X85869047Y-91035714D01*
X85869047Y-90416666D01*
%TO.C,Q3*%
X107047619Y-82095238D02*
X107000000Y-82190476D01*
X106904761Y-82285714D01*
X106761904Y-82428571D01*
X106714285Y-82523809D01*
X106714285Y-82619047D01*
X106952380Y-82571428D02*
X106904761Y-82666666D01*
X106809523Y-82761904D01*
X106619047Y-82809523D01*
X106285714Y-82809523D01*
X106095238Y-82761904D01*
X106000000Y-82666666D01*
X105952380Y-82571428D01*
X105952380Y-82380952D01*
X106000000Y-82285714D01*
X106095238Y-82190476D01*
X106285714Y-82142857D01*
X106619047Y-82142857D01*
X106809523Y-82190476D01*
X106904761Y-82285714D01*
X106952380Y-82380952D01*
X106952380Y-82571428D01*
X105952380Y-81809523D02*
X105952380Y-81190476D01*
X106333333Y-81523809D01*
X106333333Y-81380952D01*
X106380952Y-81285714D01*
X106428571Y-81238095D01*
X106523809Y-81190476D01*
X106761904Y-81190476D01*
X106857142Y-81238095D01*
X106904761Y-81285714D01*
X106952380Y-81380952D01*
X106952380Y-81666666D01*
X106904761Y-81761904D01*
X106857142Y-81809523D01*
%TO.C,R12*%
X76857142Y-89202380D02*
X76523809Y-88726190D01*
X76285714Y-89202380D02*
X76285714Y-88202380D01*
X76666666Y-88202380D01*
X76761904Y-88250000D01*
X76809523Y-88297619D01*
X76857142Y-88392857D01*
X76857142Y-88535714D01*
X76809523Y-88630952D01*
X76761904Y-88678571D01*
X76666666Y-88726190D01*
X76285714Y-88726190D01*
X77809523Y-89202380D02*
X77238095Y-89202380D01*
X77523809Y-89202380D02*
X77523809Y-88202380D01*
X77428571Y-88345238D01*
X77333333Y-88440476D01*
X77238095Y-88488095D01*
X78190476Y-88297619D02*
X78238095Y-88250000D01*
X78333333Y-88202380D01*
X78571428Y-88202380D01*
X78666666Y-88250000D01*
X78714285Y-88297619D01*
X78761904Y-88392857D01*
X78761904Y-88488095D01*
X78714285Y-88630952D01*
X78142857Y-89202380D01*
X78761904Y-89202380D01*
%TO.C,R18*%
X87607142Y-97202380D02*
X87273809Y-96726190D01*
X87035714Y-97202380D02*
X87035714Y-96202380D01*
X87416666Y-96202380D01*
X87511904Y-96250000D01*
X87559523Y-96297619D01*
X87607142Y-96392857D01*
X87607142Y-96535714D01*
X87559523Y-96630952D01*
X87511904Y-96678571D01*
X87416666Y-96726190D01*
X87035714Y-96726190D01*
X88559523Y-97202380D02*
X87988095Y-97202380D01*
X88273809Y-97202380D02*
X88273809Y-96202380D01*
X88178571Y-96345238D01*
X88083333Y-96440476D01*
X87988095Y-96488095D01*
X89130952Y-96630952D02*
X89035714Y-96583333D01*
X88988095Y-96535714D01*
X88940476Y-96440476D01*
X88940476Y-96392857D01*
X88988095Y-96297619D01*
X89035714Y-96250000D01*
X89130952Y-96202380D01*
X89321428Y-96202380D01*
X89416666Y-96250000D01*
X89464285Y-96297619D01*
X89511904Y-96392857D01*
X89511904Y-96440476D01*
X89464285Y-96535714D01*
X89416666Y-96583333D01*
X89321428Y-96630952D01*
X89130952Y-96630952D01*
X89035714Y-96678571D01*
X88988095Y-96726190D01*
X88940476Y-96821428D01*
X88940476Y-97011904D01*
X88988095Y-97107142D01*
X89035714Y-97154761D01*
X89130952Y-97202380D01*
X89321428Y-97202380D01*
X89416666Y-97154761D01*
X89464285Y-97107142D01*
X89511904Y-97011904D01*
X89511904Y-96821428D01*
X89464285Y-96726190D01*
X89416666Y-96678571D01*
X89321428Y-96630952D01*
%TO.C,D5*%
X98261904Y-62552380D02*
X98261904Y-61552380D01*
X98500000Y-61552380D01*
X98642857Y-61600000D01*
X98738095Y-61695238D01*
X98785714Y-61790476D01*
X98833333Y-61980952D01*
X98833333Y-62123809D01*
X98785714Y-62314285D01*
X98738095Y-62409523D01*
X98642857Y-62504761D01*
X98500000Y-62552380D01*
X98261904Y-62552380D01*
X99738095Y-61552380D02*
X99261904Y-61552380D01*
X99214285Y-62028571D01*
X99261904Y-61980952D01*
X99357142Y-61933333D01*
X99595238Y-61933333D01*
X99690476Y-61980952D01*
X99738095Y-62028571D01*
X99785714Y-62123809D01*
X99785714Y-62361904D01*
X99738095Y-62457142D01*
X99690476Y-62504761D01*
X99595238Y-62552380D01*
X99357142Y-62552380D01*
X99261904Y-62504761D01*
X99214285Y-62457142D01*
%TO.C,R16*%
X68452380Y-98642857D02*
X67976190Y-98976190D01*
X68452380Y-99214285D02*
X67452380Y-99214285D01*
X67452380Y-98833333D01*
X67500000Y-98738095D01*
X67547619Y-98690476D01*
X67642857Y-98642857D01*
X67785714Y-98642857D01*
X67880952Y-98690476D01*
X67928571Y-98738095D01*
X67976190Y-98833333D01*
X67976190Y-99214285D01*
X68452380Y-97690476D02*
X68452380Y-98261904D01*
X68452380Y-97976190D02*
X67452380Y-97976190D01*
X67595238Y-98071428D01*
X67690476Y-98166666D01*
X67738095Y-98261904D01*
X67452380Y-96833333D02*
X67452380Y-97023809D01*
X67500000Y-97119047D01*
X67547619Y-97166666D01*
X67690476Y-97261904D01*
X67880952Y-97309523D01*
X68261904Y-97309523D01*
X68357142Y-97261904D01*
X68404761Y-97214285D01*
X68452380Y-97119047D01*
X68452380Y-96928571D01*
X68404761Y-96833333D01*
X68357142Y-96785714D01*
X68261904Y-96738095D01*
X68023809Y-96738095D01*
X67928571Y-96785714D01*
X67880952Y-96833333D01*
X67833333Y-96928571D01*
X67833333Y-97119047D01*
X67880952Y-97214285D01*
X67928571Y-97261904D01*
X68023809Y-97309523D01*
%TO.C,R6*%
X73202380Y-75666666D02*
X72726190Y-76000000D01*
X73202380Y-76238095D02*
X72202380Y-76238095D01*
X72202380Y-75857142D01*
X72250000Y-75761904D01*
X72297619Y-75714285D01*
X72392857Y-75666666D01*
X72535714Y-75666666D01*
X72630952Y-75714285D01*
X72678571Y-75761904D01*
X72726190Y-75857142D01*
X72726190Y-76238095D01*
X72202380Y-74809523D02*
X72202380Y-75000000D01*
X72250000Y-75095238D01*
X72297619Y-75142857D01*
X72440476Y-75238095D01*
X72630952Y-75285714D01*
X73011904Y-75285714D01*
X73107142Y-75238095D01*
X73154761Y-75190476D01*
X73202380Y-75095238D01*
X73202380Y-74904761D01*
X73154761Y-74809523D01*
X73107142Y-74761904D01*
X73011904Y-74714285D01*
X72773809Y-74714285D01*
X72678571Y-74761904D01*
X72630952Y-74809523D01*
X72583333Y-74904761D01*
X72583333Y-75095238D01*
X72630952Y-75190476D01*
X72678571Y-75238095D01*
X72773809Y-75285714D01*
%TO.C,R19*%
X96702380Y-91892857D02*
X96226190Y-92226190D01*
X96702380Y-92464285D02*
X95702380Y-92464285D01*
X95702380Y-92083333D01*
X95750000Y-91988095D01*
X95797619Y-91940476D01*
X95892857Y-91892857D01*
X96035714Y-91892857D01*
X96130952Y-91940476D01*
X96178571Y-91988095D01*
X96226190Y-92083333D01*
X96226190Y-92464285D01*
X96702380Y-90940476D02*
X96702380Y-91511904D01*
X96702380Y-91226190D02*
X95702380Y-91226190D01*
X95845238Y-91321428D01*
X95940476Y-91416666D01*
X95988095Y-91511904D01*
X96702380Y-90464285D02*
X96702380Y-90273809D01*
X96654761Y-90178571D01*
X96607142Y-90130952D01*
X96464285Y-90035714D01*
X96273809Y-89988095D01*
X95892857Y-89988095D01*
X95797619Y-90035714D01*
X95750000Y-90083333D01*
X95702380Y-90178571D01*
X95702380Y-90369047D01*
X95750000Y-90464285D01*
X95797619Y-90511904D01*
X95892857Y-90559523D01*
X96130952Y-90559523D01*
X96226190Y-90511904D01*
X96273809Y-90464285D01*
X96321428Y-90369047D01*
X96321428Y-90178571D01*
X96273809Y-90083333D01*
X96226190Y-90035714D01*
X96130952Y-89988095D01*
%TO.C,D3*%
X83011904Y-99952380D02*
X83011904Y-98952380D01*
X83250000Y-98952380D01*
X83392857Y-99000000D01*
X83488095Y-99095238D01*
X83535714Y-99190476D01*
X83583333Y-99380952D01*
X83583333Y-99523809D01*
X83535714Y-99714285D01*
X83488095Y-99809523D01*
X83392857Y-99904761D01*
X83250000Y-99952380D01*
X83011904Y-99952380D01*
X83916666Y-98952380D02*
X84535714Y-98952380D01*
X84202380Y-99333333D01*
X84345238Y-99333333D01*
X84440476Y-99380952D01*
X84488095Y-99428571D01*
X84535714Y-99523809D01*
X84535714Y-99761904D01*
X84488095Y-99857142D01*
X84440476Y-99904761D01*
X84345238Y-99952380D01*
X84059523Y-99952380D01*
X83964285Y-99904761D01*
X83916666Y-99857142D01*
%TO.C,R30*%
X103857142Y-86452380D02*
X103523809Y-85976190D01*
X103285714Y-86452380D02*
X103285714Y-85452380D01*
X103666666Y-85452380D01*
X103761904Y-85500000D01*
X103809523Y-85547619D01*
X103857142Y-85642857D01*
X103857142Y-85785714D01*
X103809523Y-85880952D01*
X103761904Y-85928571D01*
X103666666Y-85976190D01*
X103285714Y-85976190D01*
X104190476Y-85452380D02*
X104809523Y-85452380D01*
X104476190Y-85833333D01*
X104619047Y-85833333D01*
X104714285Y-85880952D01*
X104761904Y-85928571D01*
X104809523Y-86023809D01*
X104809523Y-86261904D01*
X104761904Y-86357142D01*
X104714285Y-86404761D01*
X104619047Y-86452380D01*
X104333333Y-86452380D01*
X104238095Y-86404761D01*
X104190476Y-86357142D01*
X105428571Y-85452380D02*
X105523809Y-85452380D01*
X105619047Y-85500000D01*
X105666666Y-85547619D01*
X105714285Y-85642857D01*
X105761904Y-85833333D01*
X105761904Y-86071428D01*
X105714285Y-86261904D01*
X105666666Y-86357142D01*
X105619047Y-86404761D01*
X105523809Y-86452380D01*
X105428571Y-86452380D01*
X105333333Y-86404761D01*
X105285714Y-86357142D01*
X105238095Y-86261904D01*
X105190476Y-86071428D01*
X105190476Y-85833333D01*
X105238095Y-85642857D01*
X105285714Y-85547619D01*
X105333333Y-85500000D01*
X105428571Y-85452380D01*
%TO.C,RV2*%
X104202380Y-62845238D02*
X103726190Y-63178571D01*
X104202380Y-63416666D02*
X103202380Y-63416666D01*
X103202380Y-63035714D01*
X103250000Y-62940476D01*
X103297619Y-62892857D01*
X103392857Y-62845238D01*
X103535714Y-62845238D01*
X103630952Y-62892857D01*
X103678571Y-62940476D01*
X103726190Y-63035714D01*
X103726190Y-63416666D01*
X103202380Y-62559523D02*
X104202380Y-62226190D01*
X103202380Y-61892857D01*
X103297619Y-61607142D02*
X103250000Y-61559523D01*
X103202380Y-61464285D01*
X103202380Y-61226190D01*
X103250000Y-61130952D01*
X103297619Y-61083333D01*
X103392857Y-61035714D01*
X103488095Y-61035714D01*
X103630952Y-61083333D01*
X104202380Y-61654761D01*
X104202380Y-61035714D01*
%TO.C,C21*%
X85607142Y-87107142D02*
X85559523Y-87154761D01*
X85416666Y-87202380D01*
X85321428Y-87202380D01*
X85178571Y-87154761D01*
X85083333Y-87059523D01*
X85035714Y-86964285D01*
X84988095Y-86773809D01*
X84988095Y-86630952D01*
X85035714Y-86440476D01*
X85083333Y-86345238D01*
X85178571Y-86250000D01*
X85321428Y-86202380D01*
X85416666Y-86202380D01*
X85559523Y-86250000D01*
X85607142Y-86297619D01*
X85988095Y-86297619D02*
X86035714Y-86250000D01*
X86130952Y-86202380D01*
X86369047Y-86202380D01*
X86464285Y-86250000D01*
X86511904Y-86297619D01*
X86559523Y-86392857D01*
X86559523Y-86488095D01*
X86511904Y-86630952D01*
X85940476Y-87202380D01*
X86559523Y-87202380D01*
X87511904Y-87202380D02*
X86940476Y-87202380D01*
X87226190Y-87202380D02*
X87226190Y-86202380D01*
X87130952Y-86345238D01*
X87035714Y-86440476D01*
X86940476Y-86488095D01*
%TO.C,C10*%
X68427142Y-90142857D02*
X68474761Y-90190476D01*
X68522380Y-90333333D01*
X68522380Y-90428571D01*
X68474761Y-90571428D01*
X68379523Y-90666666D01*
X68284285Y-90714285D01*
X68093809Y-90761904D01*
X67950952Y-90761904D01*
X67760476Y-90714285D01*
X67665238Y-90666666D01*
X67570000Y-90571428D01*
X67522380Y-90428571D01*
X67522380Y-90333333D01*
X67570000Y-90190476D01*
X67617619Y-90142857D01*
X68522380Y-89190476D02*
X68522380Y-89761904D01*
X68522380Y-89476190D02*
X67522380Y-89476190D01*
X67665238Y-89571428D01*
X67760476Y-89666666D01*
X67808095Y-89761904D01*
X67522380Y-88571428D02*
X67522380Y-88476190D01*
X67570000Y-88380952D01*
X67617619Y-88333333D01*
X67712857Y-88285714D01*
X67903333Y-88238095D01*
X68141428Y-88238095D01*
X68331904Y-88285714D01*
X68427142Y-88333333D01*
X68474761Y-88380952D01*
X68522380Y-88476190D01*
X68522380Y-88571428D01*
X68474761Y-88666666D01*
X68427142Y-88714285D01*
X68331904Y-88761904D01*
X68141428Y-88809523D01*
X67903333Y-88809523D01*
X67712857Y-88761904D01*
X67617619Y-88714285D01*
X67570000Y-88666666D01*
X67522380Y-88571428D01*
%TO.C,R15*%
X68522380Y-94392857D02*
X68046190Y-94726190D01*
X68522380Y-94964285D02*
X67522380Y-94964285D01*
X67522380Y-94583333D01*
X67570000Y-94488095D01*
X67617619Y-94440476D01*
X67712857Y-94392857D01*
X67855714Y-94392857D01*
X67950952Y-94440476D01*
X67998571Y-94488095D01*
X68046190Y-94583333D01*
X68046190Y-94964285D01*
X68522380Y-93440476D02*
X68522380Y-94011904D01*
X68522380Y-93726190D02*
X67522380Y-93726190D01*
X67665238Y-93821428D01*
X67760476Y-93916666D01*
X67808095Y-94011904D01*
X67522380Y-92535714D02*
X67522380Y-93011904D01*
X67998571Y-93059523D01*
X67950952Y-93011904D01*
X67903333Y-92916666D01*
X67903333Y-92678571D01*
X67950952Y-92583333D01*
X67998571Y-92535714D01*
X68093809Y-92488095D01*
X68331904Y-92488095D01*
X68427142Y-92535714D01*
X68474761Y-92583333D01*
X68522380Y-92678571D01*
X68522380Y-92916666D01*
X68474761Y-93011904D01*
X68427142Y-93059523D01*
%TO.C,R2*%
X70702380Y-75666666D02*
X70226190Y-76000000D01*
X70702380Y-76238095D02*
X69702380Y-76238095D01*
X69702380Y-75857142D01*
X69750000Y-75761904D01*
X69797619Y-75714285D01*
X69892857Y-75666666D01*
X70035714Y-75666666D01*
X70130952Y-75714285D01*
X70178571Y-75761904D01*
X70226190Y-75857142D01*
X70226190Y-76238095D01*
X69797619Y-75285714D02*
X69750000Y-75238095D01*
X69702380Y-75142857D01*
X69702380Y-74904761D01*
X69750000Y-74809523D01*
X69797619Y-74761904D01*
X69892857Y-74714285D01*
X69988095Y-74714285D01*
X70130952Y-74761904D01*
X70702380Y-75333333D01*
X70702380Y-74714285D01*
%TO.C,R21*%
X93772380Y-91892857D02*
X93296190Y-92226190D01*
X93772380Y-92464285D02*
X92772380Y-92464285D01*
X92772380Y-92083333D01*
X92820000Y-91988095D01*
X92867619Y-91940476D01*
X92962857Y-91892857D01*
X93105714Y-91892857D01*
X93200952Y-91940476D01*
X93248571Y-91988095D01*
X93296190Y-92083333D01*
X93296190Y-92464285D01*
X92867619Y-91511904D02*
X92820000Y-91464285D01*
X92772380Y-91369047D01*
X92772380Y-91130952D01*
X92820000Y-91035714D01*
X92867619Y-90988095D01*
X92962857Y-90940476D01*
X93058095Y-90940476D01*
X93200952Y-90988095D01*
X93772380Y-91559523D01*
X93772380Y-90940476D01*
X93772380Y-89988095D02*
X93772380Y-90559523D01*
X93772380Y-90273809D02*
X92772380Y-90273809D01*
X92915238Y-90369047D01*
X93010476Y-90464285D01*
X93058095Y-90559523D01*
%TO.C,D2*%
X112261904Y-87952380D02*
X112261904Y-86952380D01*
X112500000Y-86952380D01*
X112642857Y-87000000D01*
X112738095Y-87095238D01*
X112785714Y-87190476D01*
X112833333Y-87380952D01*
X112833333Y-87523809D01*
X112785714Y-87714285D01*
X112738095Y-87809523D01*
X112642857Y-87904761D01*
X112500000Y-87952380D01*
X112261904Y-87952380D01*
X113214285Y-87047619D02*
X113261904Y-87000000D01*
X113357142Y-86952380D01*
X113595238Y-86952380D01*
X113690476Y-87000000D01*
X113738095Y-87047619D01*
X113785714Y-87142857D01*
X113785714Y-87238095D01*
X113738095Y-87380952D01*
X113166666Y-87952380D01*
X113785714Y-87952380D01*
%TO.C,U4*%
X88952380Y-82261904D02*
X89761904Y-82261904D01*
X89857142Y-82214285D01*
X89904761Y-82166666D01*
X89952380Y-82071428D01*
X89952380Y-81880952D01*
X89904761Y-81785714D01*
X89857142Y-81738095D01*
X89761904Y-81690476D01*
X88952380Y-81690476D01*
X89285714Y-80785714D02*
X89952380Y-80785714D01*
X88904761Y-81023809D02*
X89619047Y-81261904D01*
X89619047Y-80642857D01*
%TO.C,Q1*%
X94797619Y-96345238D02*
X94750000Y-96440476D01*
X94654761Y-96535714D01*
X94511904Y-96678571D01*
X94464285Y-96773809D01*
X94464285Y-96869047D01*
X94702380Y-96821428D02*
X94654761Y-96916666D01*
X94559523Y-97011904D01*
X94369047Y-97059523D01*
X94035714Y-97059523D01*
X93845238Y-97011904D01*
X93750000Y-96916666D01*
X93702380Y-96821428D01*
X93702380Y-96630952D01*
X93750000Y-96535714D01*
X93845238Y-96440476D01*
X94035714Y-96392857D01*
X94369047Y-96392857D01*
X94559523Y-96440476D01*
X94654761Y-96535714D01*
X94702380Y-96630952D01*
X94702380Y-96821428D01*
X94702380Y-95440476D02*
X94702380Y-96011904D01*
X94702380Y-95726190D02*
X93702380Y-95726190D01*
X93845238Y-95821428D01*
X93940476Y-95916666D01*
X93988095Y-96011904D01*
%TO.C,U3*%
X73502380Y-98011904D02*
X74311904Y-98011904D01*
X74407142Y-97964285D01*
X74454761Y-97916666D01*
X74502380Y-97821428D01*
X74502380Y-97630952D01*
X74454761Y-97535714D01*
X74407142Y-97488095D01*
X74311904Y-97440476D01*
X73502380Y-97440476D01*
X73502380Y-97059523D02*
X73502380Y-96440476D01*
X73883333Y-96773809D01*
X73883333Y-96630952D01*
X73930952Y-96535714D01*
X73978571Y-96488095D01*
X74073809Y-96440476D01*
X74311904Y-96440476D01*
X74407142Y-96488095D01*
X74454761Y-96535714D01*
X74502380Y-96630952D01*
X74502380Y-96916666D01*
X74454761Y-97011904D01*
X74407142Y-97059523D01*
%TO.C,RV1*%
X112404761Y-74362380D02*
X112071428Y-73886190D01*
X111833333Y-74362380D02*
X111833333Y-73362380D01*
X112214285Y-73362380D01*
X112309523Y-73410000D01*
X112357142Y-73457619D01*
X112404761Y-73552857D01*
X112404761Y-73695714D01*
X112357142Y-73790952D01*
X112309523Y-73838571D01*
X112214285Y-73886190D01*
X111833333Y-73886190D01*
X112690476Y-73362380D02*
X113023809Y-74362380D01*
X113357142Y-73362380D01*
X114214285Y-74362380D02*
X113642857Y-74362380D01*
X113928571Y-74362380D02*
X113928571Y-73362380D01*
X113833333Y-73505238D01*
X113738095Y-73600476D01*
X113642857Y-73648095D01*
%TO.C,R17*%
X71522380Y-99142857D02*
X71046190Y-99476190D01*
X71522380Y-99714285D02*
X70522380Y-99714285D01*
X70522380Y-99333333D01*
X70570000Y-99238095D01*
X70617619Y-99190476D01*
X70712857Y-99142857D01*
X70855714Y-99142857D01*
X70950952Y-99190476D01*
X70998571Y-99238095D01*
X71046190Y-99333333D01*
X71046190Y-99714285D01*
X71522380Y-98190476D02*
X71522380Y-98761904D01*
X71522380Y-98476190D02*
X70522380Y-98476190D01*
X70665238Y-98571428D01*
X70760476Y-98666666D01*
X70808095Y-98761904D01*
X70522380Y-97857142D02*
X70522380Y-97190476D01*
X71522380Y-97619047D01*
%TO.C,C9*%
X69083333Y-84357142D02*
X69035714Y-84404761D01*
X68892857Y-84452380D01*
X68797619Y-84452380D01*
X68654761Y-84404761D01*
X68559523Y-84309523D01*
X68511904Y-84214285D01*
X68464285Y-84023809D01*
X68464285Y-83880952D01*
X68511904Y-83690476D01*
X68559523Y-83595238D01*
X68654761Y-83500000D01*
X68797619Y-83452380D01*
X68892857Y-83452380D01*
X69035714Y-83500000D01*
X69083333Y-83547619D01*
X69559523Y-84452380D02*
X69750000Y-84452380D01*
X69845238Y-84404761D01*
X69892857Y-84357142D01*
X69988095Y-84214285D01*
X70035714Y-84023809D01*
X70035714Y-83642857D01*
X69988095Y-83547619D01*
X69940476Y-83500000D01*
X69845238Y-83452380D01*
X69654761Y-83452380D01*
X69559523Y-83500000D01*
X69511904Y-83547619D01*
X69464285Y-83642857D01*
X69464285Y-83880952D01*
X69511904Y-83976190D01*
X69559523Y-84023809D01*
X69654761Y-84071428D01*
X69845238Y-84071428D01*
X69940476Y-84023809D01*
X69988095Y-83976190D01*
X70035714Y-83880952D01*
%TO.C,C12*%
X78357142Y-57857142D02*
X78309523Y-57904761D01*
X78166666Y-57952380D01*
X78071428Y-57952380D01*
X77928571Y-57904761D01*
X77833333Y-57809523D01*
X77785714Y-57714285D01*
X77738095Y-57523809D01*
X77738095Y-57380952D01*
X77785714Y-57190476D01*
X77833333Y-57095238D01*
X77928571Y-57000000D01*
X78071428Y-56952380D01*
X78166666Y-56952380D01*
X78309523Y-57000000D01*
X78357142Y-57047619D01*
X79309523Y-57952380D02*
X78738095Y-57952380D01*
X79023809Y-57952380D02*
X79023809Y-56952380D01*
X78928571Y-57095238D01*
X78833333Y-57190476D01*
X78738095Y-57238095D01*
X79690476Y-57047619D02*
X79738095Y-57000000D01*
X79833333Y-56952380D01*
X80071428Y-56952380D01*
X80166666Y-57000000D01*
X80214285Y-57047619D01*
X80261904Y-57142857D01*
X80261904Y-57238095D01*
X80214285Y-57380952D01*
X79642857Y-57952380D01*
X80261904Y-57952380D01*
%TO.C,R8*%
X71333333Y-64452380D02*
X71000000Y-63976190D01*
X70761904Y-64452380D02*
X70761904Y-63452380D01*
X71142857Y-63452380D01*
X71238095Y-63500000D01*
X71285714Y-63547619D01*
X71333333Y-63642857D01*
X71333333Y-63785714D01*
X71285714Y-63880952D01*
X71238095Y-63928571D01*
X71142857Y-63976190D01*
X70761904Y-63976190D01*
X71904761Y-63880952D02*
X71809523Y-63833333D01*
X71761904Y-63785714D01*
X71714285Y-63690476D01*
X71714285Y-63642857D01*
X71761904Y-63547619D01*
X71809523Y-63500000D01*
X71904761Y-63452380D01*
X72095238Y-63452380D01*
X72190476Y-63500000D01*
X72238095Y-63547619D01*
X72285714Y-63642857D01*
X72285714Y-63690476D01*
X72238095Y-63785714D01*
X72190476Y-63833333D01*
X72095238Y-63880952D01*
X71904761Y-63880952D01*
X71809523Y-63928571D01*
X71761904Y-63976190D01*
X71714285Y-64071428D01*
X71714285Y-64261904D01*
X71761904Y-64357142D01*
X71809523Y-64404761D01*
X71904761Y-64452380D01*
X72095238Y-64452380D01*
X72190476Y-64404761D01*
X72238095Y-64357142D01*
X72285714Y-64261904D01*
X72285714Y-64071428D01*
X72238095Y-63976190D01*
X72190476Y-63928571D01*
X72095238Y-63880952D01*
%TO.C,U5*%
X87702380Y-67511904D02*
X88511904Y-67511904D01*
X88607142Y-67464285D01*
X88654761Y-67416666D01*
X88702380Y-67321428D01*
X88702380Y-67130952D01*
X88654761Y-67035714D01*
X88607142Y-66988095D01*
X88511904Y-66940476D01*
X87702380Y-66940476D01*
X87702380Y-65988095D02*
X87702380Y-66464285D01*
X88178571Y-66511904D01*
X88130952Y-66464285D01*
X88083333Y-66369047D01*
X88083333Y-66130952D01*
X88130952Y-66035714D01*
X88178571Y-65988095D01*
X88273809Y-65940476D01*
X88511904Y-65940476D01*
X88607142Y-65988095D01*
X88654761Y-66035714D01*
X88702380Y-66130952D01*
X88702380Y-66369047D01*
X88654761Y-66464285D01*
X88607142Y-66511904D01*
%TO.C,R9*%
X73833333Y-59952380D02*
X73500000Y-59476190D01*
X73261904Y-59952380D02*
X73261904Y-58952380D01*
X73642857Y-58952380D01*
X73738095Y-59000000D01*
X73785714Y-59047619D01*
X73833333Y-59142857D01*
X73833333Y-59285714D01*
X73785714Y-59380952D01*
X73738095Y-59428571D01*
X73642857Y-59476190D01*
X73261904Y-59476190D01*
X74309523Y-59952380D02*
X74500000Y-59952380D01*
X74595238Y-59904761D01*
X74642857Y-59857142D01*
X74738095Y-59714285D01*
X74785714Y-59523809D01*
X74785714Y-59142857D01*
X74738095Y-59047619D01*
X74690476Y-59000000D01*
X74595238Y-58952380D01*
X74404761Y-58952380D01*
X74309523Y-59000000D01*
X74261904Y-59047619D01*
X74214285Y-59142857D01*
X74214285Y-59380952D01*
X74261904Y-59476190D01*
X74309523Y-59523809D01*
X74404761Y-59571428D01*
X74595238Y-59571428D01*
X74690476Y-59523809D01*
X74738095Y-59476190D01*
X74785714Y-59380952D01*
%TO.C,R1*%
X67522380Y-78166666D02*
X67046190Y-78500000D01*
X67522380Y-78738095D02*
X66522380Y-78738095D01*
X66522380Y-78357142D01*
X66570000Y-78261904D01*
X66617619Y-78214285D01*
X66712857Y-78166666D01*
X66855714Y-78166666D01*
X66950952Y-78214285D01*
X66998571Y-78261904D01*
X67046190Y-78357142D01*
X67046190Y-78738095D01*
X67522380Y-77214285D02*
X67522380Y-77785714D01*
X67522380Y-77500000D02*
X66522380Y-77500000D01*
X66665238Y-77595238D01*
X66760476Y-77690476D01*
X66808095Y-77785714D01*
%TO.C,R13*%
X82952380Y-83892857D02*
X82476190Y-84226190D01*
X82952380Y-84464285D02*
X81952380Y-84464285D01*
X81952380Y-84083333D01*
X82000000Y-83988095D01*
X82047619Y-83940476D01*
X82142857Y-83892857D01*
X82285714Y-83892857D01*
X82380952Y-83940476D01*
X82428571Y-83988095D01*
X82476190Y-84083333D01*
X82476190Y-84464285D01*
X82952380Y-82940476D02*
X82952380Y-83511904D01*
X82952380Y-83226190D02*
X81952380Y-83226190D01*
X82095238Y-83321428D01*
X82190476Y-83416666D01*
X82238095Y-83511904D01*
X81952380Y-82607142D02*
X81952380Y-81988095D01*
X82333333Y-82321428D01*
X82333333Y-82178571D01*
X82380952Y-82083333D01*
X82428571Y-82035714D01*
X82523809Y-81988095D01*
X82761904Y-81988095D01*
X82857142Y-82035714D01*
X82904761Y-82083333D01*
X82952380Y-82178571D01*
X82952380Y-82464285D01*
X82904761Y-82559523D01*
X82857142Y-82607142D01*
%TO.C,R33*%
X106702380Y-69642857D02*
X106226190Y-69976190D01*
X106702380Y-70214285D02*
X105702380Y-70214285D01*
X105702380Y-69833333D01*
X105750000Y-69738095D01*
X105797619Y-69690476D01*
X105892857Y-69642857D01*
X106035714Y-69642857D01*
X106130952Y-69690476D01*
X106178571Y-69738095D01*
X106226190Y-69833333D01*
X106226190Y-70214285D01*
X105702380Y-69309523D02*
X105702380Y-68690476D01*
X106083333Y-69023809D01*
X106083333Y-68880952D01*
X106130952Y-68785714D01*
X106178571Y-68738095D01*
X106273809Y-68690476D01*
X106511904Y-68690476D01*
X106607142Y-68738095D01*
X106654761Y-68785714D01*
X106702380Y-68880952D01*
X106702380Y-69166666D01*
X106654761Y-69261904D01*
X106607142Y-69309523D01*
X105702380Y-68357142D02*
X105702380Y-67738095D01*
X106083333Y-68071428D01*
X106083333Y-67928571D01*
X106130952Y-67833333D01*
X106178571Y-67785714D01*
X106273809Y-67738095D01*
X106511904Y-67738095D01*
X106607142Y-67785714D01*
X106654761Y-67833333D01*
X106702380Y-67928571D01*
X106702380Y-68214285D01*
X106654761Y-68309523D01*
X106607142Y-68357142D01*
%TO.C,R26*%
X85857142Y-77452380D02*
X85523809Y-76976190D01*
X85285714Y-77452380D02*
X85285714Y-76452380D01*
X85666666Y-76452380D01*
X85761904Y-76500000D01*
X85809523Y-76547619D01*
X85857142Y-76642857D01*
X85857142Y-76785714D01*
X85809523Y-76880952D01*
X85761904Y-76928571D01*
X85666666Y-76976190D01*
X85285714Y-76976190D01*
X86238095Y-76547619D02*
X86285714Y-76500000D01*
X86380952Y-76452380D01*
X86619047Y-76452380D01*
X86714285Y-76500000D01*
X86761904Y-76547619D01*
X86809523Y-76642857D01*
X86809523Y-76738095D01*
X86761904Y-76880952D01*
X86190476Y-77452380D01*
X86809523Y-77452380D01*
X87666666Y-76452380D02*
X87476190Y-76452380D01*
X87380952Y-76500000D01*
X87333333Y-76547619D01*
X87238095Y-76690476D01*
X87190476Y-76880952D01*
X87190476Y-77261904D01*
X87238095Y-77357142D01*
X87285714Y-77404761D01*
X87380952Y-77452380D01*
X87571428Y-77452380D01*
X87666666Y-77404761D01*
X87714285Y-77357142D01*
X87761904Y-77261904D01*
X87761904Y-77023809D01*
X87714285Y-76928571D01*
X87666666Y-76880952D01*
X87571428Y-76833333D01*
X87380952Y-76833333D01*
X87285714Y-76880952D01*
X87238095Y-76928571D01*
X87190476Y-77023809D01*
%TO.C,D1*%
X86602380Y-72988095D02*
X85602380Y-72988095D01*
X85602380Y-72750000D01*
X85650000Y-72607142D01*
X85745238Y-72511904D01*
X85840476Y-72464285D01*
X86030952Y-72416666D01*
X86173809Y-72416666D01*
X86364285Y-72464285D01*
X86459523Y-72511904D01*
X86554761Y-72607142D01*
X86602380Y-72750000D01*
X86602380Y-72988095D01*
X86602380Y-71464285D02*
X86602380Y-72035714D01*
X86602380Y-71750000D02*
X85602380Y-71750000D01*
X85745238Y-71845238D01*
X85840476Y-71940476D01*
X85888095Y-72035714D01*
%TO.C,C16*%
X99357142Y-89107142D02*
X99309523Y-89154761D01*
X99166666Y-89202380D01*
X99071428Y-89202380D01*
X98928571Y-89154761D01*
X98833333Y-89059523D01*
X98785714Y-88964285D01*
X98738095Y-88773809D01*
X98738095Y-88630952D01*
X98785714Y-88440476D01*
X98833333Y-88345238D01*
X98928571Y-88250000D01*
X99071428Y-88202380D01*
X99166666Y-88202380D01*
X99309523Y-88250000D01*
X99357142Y-88297619D01*
X100309523Y-89202380D02*
X99738095Y-89202380D01*
X100023809Y-89202380D02*
X100023809Y-88202380D01*
X99928571Y-88345238D01*
X99833333Y-88440476D01*
X99738095Y-88488095D01*
X101166666Y-88202380D02*
X100976190Y-88202380D01*
X100880952Y-88250000D01*
X100833333Y-88297619D01*
X100738095Y-88440476D01*
X100690476Y-88630952D01*
X100690476Y-89011904D01*
X100738095Y-89107142D01*
X100785714Y-89154761D01*
X100880952Y-89202380D01*
X101071428Y-89202380D01*
X101166666Y-89154761D01*
X101214285Y-89107142D01*
X101261904Y-89011904D01*
X101261904Y-88773809D01*
X101214285Y-88678571D01*
X101166666Y-88630952D01*
X101071428Y-88583333D01*
X100880952Y-88583333D01*
X100785714Y-88630952D01*
X100738095Y-88678571D01*
X100690476Y-88773809D01*
%TO.C,C8*%
X69083333Y-86607142D02*
X69035714Y-86654761D01*
X68892857Y-86702380D01*
X68797619Y-86702380D01*
X68654761Y-86654761D01*
X68559523Y-86559523D01*
X68511904Y-86464285D01*
X68464285Y-86273809D01*
X68464285Y-86130952D01*
X68511904Y-85940476D01*
X68559523Y-85845238D01*
X68654761Y-85750000D01*
X68797619Y-85702380D01*
X68892857Y-85702380D01*
X69035714Y-85750000D01*
X69083333Y-85797619D01*
X69654761Y-86130952D02*
X69559523Y-86083333D01*
X69511904Y-86035714D01*
X69464285Y-85940476D01*
X69464285Y-85892857D01*
X69511904Y-85797619D01*
X69559523Y-85750000D01*
X69654761Y-85702380D01*
X69845238Y-85702380D01*
X69940476Y-85750000D01*
X69988095Y-85797619D01*
X70035714Y-85892857D01*
X70035714Y-85940476D01*
X69988095Y-86035714D01*
X69940476Y-86083333D01*
X69845238Y-86130952D01*
X69654761Y-86130952D01*
X69559523Y-86178571D01*
X69511904Y-86226190D01*
X69464285Y-86321428D01*
X69464285Y-86511904D01*
X69511904Y-86607142D01*
X69559523Y-86654761D01*
X69654761Y-86702380D01*
X69845238Y-86702380D01*
X69940476Y-86654761D01*
X69988095Y-86607142D01*
X70035714Y-86511904D01*
X70035714Y-86321428D01*
X69988095Y-86226190D01*
X69940476Y-86178571D01*
X69845238Y-86130952D01*
%TO.C,J3*%
X114436666Y-65952380D02*
X114436666Y-66666666D01*
X114389047Y-66809523D01*
X114293809Y-66904761D01*
X114150952Y-66952380D01*
X114055714Y-66952380D01*
X114817619Y-65952380D02*
X115436666Y-65952380D01*
X115103333Y-66333333D01*
X115246190Y-66333333D01*
X115341428Y-66380952D01*
X115389047Y-66428571D01*
X115436666Y-66523809D01*
X115436666Y-66761904D01*
X115389047Y-66857142D01*
X115341428Y-66904761D01*
X115246190Y-66952380D01*
X114960476Y-66952380D01*
X114865238Y-66904761D01*
X114817619Y-66857142D01*
%TO.C,R29*%
X106382380Y-77392857D02*
X105906190Y-77726190D01*
X106382380Y-77964285D02*
X105382380Y-77964285D01*
X105382380Y-77583333D01*
X105430000Y-77488095D01*
X105477619Y-77440476D01*
X105572857Y-77392857D01*
X105715714Y-77392857D01*
X105810952Y-77440476D01*
X105858571Y-77488095D01*
X105906190Y-77583333D01*
X105906190Y-77964285D01*
X105477619Y-77011904D02*
X105430000Y-76964285D01*
X105382380Y-76869047D01*
X105382380Y-76630952D01*
X105430000Y-76535714D01*
X105477619Y-76488095D01*
X105572857Y-76440476D01*
X105668095Y-76440476D01*
X105810952Y-76488095D01*
X106382380Y-77059523D01*
X106382380Y-76440476D01*
X106382380Y-75964285D02*
X106382380Y-75773809D01*
X106334761Y-75678571D01*
X106287142Y-75630952D01*
X106144285Y-75535714D01*
X105953809Y-75488095D01*
X105572857Y-75488095D01*
X105477619Y-75535714D01*
X105430000Y-75583333D01*
X105382380Y-75678571D01*
X105382380Y-75869047D01*
X105430000Y-75964285D01*
X105477619Y-76011904D01*
X105572857Y-76059523D01*
X105810952Y-76059523D01*
X105906190Y-76011904D01*
X105953809Y-75964285D01*
X106001428Y-75869047D01*
X106001428Y-75678571D01*
X105953809Y-75583333D01*
X105906190Y-75535714D01*
X105810952Y-75488095D01*
%TO.C,R25*%
X90357142Y-75452380D02*
X90023809Y-74976190D01*
X89785714Y-75452380D02*
X89785714Y-74452380D01*
X90166666Y-74452380D01*
X90261904Y-74500000D01*
X90309523Y-74547619D01*
X90357142Y-74642857D01*
X90357142Y-74785714D01*
X90309523Y-74880952D01*
X90261904Y-74928571D01*
X90166666Y-74976190D01*
X89785714Y-74976190D01*
X90738095Y-74547619D02*
X90785714Y-74500000D01*
X90880952Y-74452380D01*
X91119047Y-74452380D01*
X91214285Y-74500000D01*
X91261904Y-74547619D01*
X91309523Y-74642857D01*
X91309523Y-74738095D01*
X91261904Y-74880952D01*
X90690476Y-75452380D01*
X91309523Y-75452380D01*
X92214285Y-74452380D02*
X91738095Y-74452380D01*
X91690476Y-74928571D01*
X91738095Y-74880952D01*
X91833333Y-74833333D01*
X92071428Y-74833333D01*
X92166666Y-74880952D01*
X92214285Y-74928571D01*
X92261904Y-75023809D01*
X92261904Y-75261904D01*
X92214285Y-75357142D01*
X92166666Y-75404761D01*
X92071428Y-75452380D01*
X91833333Y-75452380D01*
X91738095Y-75404761D01*
X91690476Y-75357142D01*
%TO.C,C17*%
X88607142Y-62927142D02*
X88559523Y-62974761D01*
X88416666Y-63022380D01*
X88321428Y-63022380D01*
X88178571Y-62974761D01*
X88083333Y-62879523D01*
X88035714Y-62784285D01*
X87988095Y-62593809D01*
X87988095Y-62450952D01*
X88035714Y-62260476D01*
X88083333Y-62165238D01*
X88178571Y-62070000D01*
X88321428Y-62022380D01*
X88416666Y-62022380D01*
X88559523Y-62070000D01*
X88607142Y-62117619D01*
X89559523Y-63022380D02*
X88988095Y-63022380D01*
X89273809Y-63022380D02*
X89273809Y-62022380D01*
X89178571Y-62165238D01*
X89083333Y-62260476D01*
X88988095Y-62308095D01*
X89892857Y-62022380D02*
X90559523Y-62022380D01*
X90130952Y-63022380D01*
%TO.C,C4*%
X67357142Y-67416666D02*
X67404761Y-67464285D01*
X67452380Y-67607142D01*
X67452380Y-67702380D01*
X67404761Y-67845238D01*
X67309523Y-67940476D01*
X67214285Y-67988095D01*
X67023809Y-68035714D01*
X66880952Y-68035714D01*
X66690476Y-67988095D01*
X66595238Y-67940476D01*
X66500000Y-67845238D01*
X66452380Y-67702380D01*
X66452380Y-67607142D01*
X66500000Y-67464285D01*
X66547619Y-67416666D01*
X66785714Y-66559523D02*
X67452380Y-66559523D01*
X66404761Y-66797619D02*
X67119047Y-67035714D01*
X67119047Y-66416666D01*
%TO.C,U2*%
X80452380Y-83761904D02*
X81261904Y-83761904D01*
X81357142Y-83714285D01*
X81404761Y-83666666D01*
X81452380Y-83571428D01*
X81452380Y-83380952D01*
X81404761Y-83285714D01*
X81357142Y-83238095D01*
X81261904Y-83190476D01*
X80452380Y-83190476D01*
X80547619Y-82761904D02*
X80500000Y-82714285D01*
X80452380Y-82619047D01*
X80452380Y-82380952D01*
X80500000Y-82285714D01*
X80547619Y-82238095D01*
X80642857Y-82190476D01*
X80738095Y-82190476D01*
X80880952Y-82238095D01*
X81452380Y-82809523D01*
X81452380Y-82190476D01*
%TO.C,J2*%
X59666666Y-84202380D02*
X59666666Y-84916666D01*
X59619047Y-85059523D01*
X59523809Y-85154761D01*
X59380952Y-85202380D01*
X59285714Y-85202380D01*
X60095238Y-84297619D02*
X60142857Y-84250000D01*
X60238095Y-84202380D01*
X60476190Y-84202380D01*
X60571428Y-84250000D01*
X60619047Y-84297619D01*
X60666666Y-84392857D01*
X60666666Y-84488095D01*
X60619047Y-84630952D01*
X60047619Y-85202380D01*
X60666666Y-85202380D01*
%TO.C,U1*%
X73552380Y-70011904D02*
X74361904Y-70011904D01*
X74457142Y-69964285D01*
X74504761Y-69916666D01*
X74552380Y-69821428D01*
X74552380Y-69630952D01*
X74504761Y-69535714D01*
X74457142Y-69488095D01*
X74361904Y-69440476D01*
X73552380Y-69440476D01*
X74552380Y-68440476D02*
X74552380Y-69011904D01*
X74552380Y-68726190D02*
X73552380Y-68726190D01*
X73695238Y-68821428D01*
X73790476Y-68916666D01*
X73838095Y-69011904D01*
%TO.C,R32*%
X104857142Y-72702380D02*
X104523809Y-72226190D01*
X104285714Y-72702380D02*
X104285714Y-71702380D01*
X104666666Y-71702380D01*
X104761904Y-71750000D01*
X104809523Y-71797619D01*
X104857142Y-71892857D01*
X104857142Y-72035714D01*
X104809523Y-72130952D01*
X104761904Y-72178571D01*
X104666666Y-72226190D01*
X104285714Y-72226190D01*
X105190476Y-71702380D02*
X105809523Y-71702380D01*
X105476190Y-72083333D01*
X105619047Y-72083333D01*
X105714285Y-72130952D01*
X105761904Y-72178571D01*
X105809523Y-72273809D01*
X105809523Y-72511904D01*
X105761904Y-72607142D01*
X105714285Y-72654761D01*
X105619047Y-72702380D01*
X105333333Y-72702380D01*
X105238095Y-72654761D01*
X105190476Y-72607142D01*
X106190476Y-71797619D02*
X106238095Y-71750000D01*
X106333333Y-71702380D01*
X106571428Y-71702380D01*
X106666666Y-71750000D01*
X106714285Y-71797619D01*
X106761904Y-71892857D01*
X106761904Y-71988095D01*
X106714285Y-72130952D01*
X106142857Y-72702380D01*
X106761904Y-72702380D01*
%TO.C,C5*%
X78607142Y-90770399D02*
X78654761Y-90818018D01*
X78702380Y-90960875D01*
X78702380Y-91056113D01*
X78654761Y-91198971D01*
X78559523Y-91294209D01*
X78464285Y-91341828D01*
X78273809Y-91389447D01*
X78130952Y-91389447D01*
X77940476Y-91341828D01*
X77845238Y-91294209D01*
X77750000Y-91198971D01*
X77702380Y-91056113D01*
X77702380Y-90960875D01*
X77750000Y-90818018D01*
X77797619Y-90770399D01*
X77702380Y-89865637D02*
X77702380Y-90341828D01*
X78178571Y-90389447D01*
X78130952Y-90341828D01*
X78083333Y-90246590D01*
X78083333Y-90008494D01*
X78130952Y-89913256D01*
X78178571Y-89865637D01*
X78273809Y-89818018D01*
X78511904Y-89818018D01*
X78607142Y-89865637D01*
X78654761Y-89913256D01*
X78702380Y-90008494D01*
X78702380Y-90246590D01*
X78654761Y-90341828D01*
X78607142Y-90389447D01*
D13*
%TO.C,C1*%
X71603733Y-78490000D02*
X71896267Y-78490000D01*
X71603733Y-79510000D02*
X71896267Y-79510000D01*
%TO.C,R14*%
X73022500Y-94004724D02*
X73022500Y-93495276D01*
X71977500Y-94004724D02*
X71977500Y-93495276D01*
%TO.C,J1*%
X57590000Y-76050000D02*
X56990000Y-76050000D01*
X56990000Y-64950000D02*
X57590000Y-64950000D01*
X56990000Y-83310000D02*
X63010000Y-83310000D01*
X57590000Y-78590000D02*
X56990000Y-78590000D01*
X57590000Y-70970000D02*
X56990000Y-70970000D01*
X57590000Y-73510000D02*
X56990000Y-73510000D01*
X57590000Y-77650000D02*
X57590000Y-76050000D01*
X57590000Y-58270000D02*
X56990000Y-58270000D01*
X62010000Y-59070000D02*
X61480000Y-59320000D01*
X57590000Y-65890000D02*
X56990000Y-65890000D01*
X57590000Y-72570000D02*
X57590000Y-70970000D01*
X63010000Y-81680000D02*
X62010000Y-81680000D01*
X56990000Y-75110000D02*
X57590000Y-75110000D01*
X56990000Y-72570000D02*
X57590000Y-72570000D01*
X62010000Y-81930000D02*
X61480000Y-81680000D01*
X57590000Y-62410000D02*
X57590000Y-60810000D01*
X57590000Y-80190000D02*
X57590000Y-78590000D01*
X56990000Y-77650000D02*
X57590000Y-77650000D01*
X57590000Y-59870000D02*
X57590000Y-58270000D01*
X57590000Y-75110000D02*
X57590000Y-73510000D01*
X61480000Y-81680000D02*
X61480000Y-76850000D01*
X57590000Y-70030000D02*
X57590000Y-68430000D01*
X62010000Y-81930000D02*
X62010000Y-76850000D01*
X63010000Y-57690000D02*
X56990000Y-57690000D01*
X63010000Y-59070000D02*
X62010000Y-59070000D01*
X61480000Y-76850000D02*
X62010000Y-76850000D01*
X62010000Y-64150000D02*
X63010000Y-64150000D01*
X58020000Y-83600000D02*
X62020000Y-83600000D01*
X57590000Y-82730000D02*
X57590000Y-81130000D01*
X57590000Y-81130000D02*
X56990000Y-81130000D01*
X63010000Y-81930000D02*
X62010000Y-81930000D01*
X56990000Y-59870000D02*
X57590000Y-59870000D01*
X56990000Y-70030000D02*
X57590000Y-70030000D01*
X56990000Y-67490000D02*
X57590000Y-67490000D01*
X57590000Y-67490000D02*
X57590000Y-65890000D01*
X57590000Y-60810000D02*
X56990000Y-60810000D01*
X63010000Y-83310000D02*
X63010000Y-57690000D01*
X57590000Y-64950000D02*
X57590000Y-63350000D01*
X62010000Y-76850000D02*
X63010000Y-76850000D01*
X56990000Y-80190000D02*
X57590000Y-80190000D01*
X57590000Y-63350000D02*
X56990000Y-63350000D01*
X57590000Y-68430000D02*
X56990000Y-68430000D01*
X61480000Y-59320000D02*
X61480000Y-64150000D01*
X56990000Y-82730000D02*
X57590000Y-82730000D01*
X56990000Y-57690000D02*
X56990000Y-83310000D01*
X61480000Y-64150000D02*
X62010000Y-64150000D01*
X62010000Y-59070000D02*
X62010000Y-64150000D01*
X56990000Y-62410000D02*
X57590000Y-62410000D01*
X63010000Y-59320000D02*
X62010000Y-59320000D01*
%TO.C,R5*%
X72022500Y-67504724D02*
X72022500Y-66995276D01*
X70977500Y-67504724D02*
X70977500Y-66995276D01*
%TO.C,C13*%
X92040000Y-62661252D02*
X92040000Y-60338748D01*
X95460000Y-62661252D02*
X95460000Y-60338748D01*
%TO.C,C14*%
X101740000Y-68896267D02*
X101740000Y-68603733D01*
X102760000Y-68896267D02*
X102760000Y-68603733D01*
%TO.C,R40*%
X100272500Y-76254724D02*
X100272500Y-75745276D01*
X99227500Y-76254724D02*
X99227500Y-75745276D01*
%TO.C,R3*%
X72022500Y-71504724D02*
X72022500Y-70995276D01*
X70977500Y-71504724D02*
X70977500Y-70995276D01*
%TO.C,C18*%
X95240000Y-71396267D02*
X95240000Y-71103733D01*
X96260000Y-71396267D02*
X96260000Y-71103733D01*
%TO.C,J4*%
X62010000Y-102290000D02*
X61480000Y-102040000D01*
X62010000Y-97210000D02*
X63010000Y-97210000D01*
X57590000Y-100550000D02*
X57590000Y-98950000D01*
X61480000Y-102040000D02*
X61480000Y-97460000D01*
X56990000Y-103090000D02*
X57590000Y-103090000D01*
X56990000Y-98010000D02*
X57590000Y-98010000D01*
X57590000Y-96410000D02*
X56990000Y-96410000D01*
X63010000Y-102040000D02*
X62010000Y-102040000D01*
X63010000Y-102290000D02*
X62010000Y-102290000D01*
X62010000Y-102290000D02*
X62010000Y-97210000D01*
X57590000Y-98950000D02*
X56990000Y-98950000D01*
X56990000Y-100550000D02*
X57590000Y-100550000D01*
X63010000Y-95830000D02*
X56990000Y-95830000D01*
X57590000Y-98010000D02*
X57590000Y-96410000D01*
X57590000Y-103090000D02*
X57590000Y-101490000D01*
X63010000Y-103670000D02*
X63010000Y-95830000D01*
X63010000Y-97460000D02*
X62010000Y-97460000D01*
X61480000Y-97460000D02*
X62010000Y-97210000D01*
X57590000Y-101490000D02*
X56990000Y-101490000D01*
X56990000Y-95830000D02*
X56990000Y-103670000D01*
X56990000Y-103670000D02*
X63010000Y-103670000D01*
X58020000Y-103960000D02*
X62020000Y-103960000D01*
%TO.C,U6*%
X92565000Y-82000000D02*
X92565000Y-83950000D01*
X101435000Y-82000000D02*
X101435000Y-78550000D01*
X92565000Y-82000000D02*
X92565000Y-80050000D01*
X101435000Y-82000000D02*
X101435000Y-83950000D01*
%TO.C,R10*%
X78477500Y-75245276D02*
X78477500Y-75754724D01*
X79522500Y-75245276D02*
X79522500Y-75754724D01*
%TO.C,C20*%
X108896267Y-76240000D02*
X108603733Y-76240000D01*
X108896267Y-77260000D02*
X108603733Y-77260000D01*
%TO.C,R7*%
X77022500Y-75754724D02*
X77022500Y-75245276D01*
X75977500Y-75754724D02*
X75977500Y-75245276D01*
%TO.C,C6*%
X83646267Y-64510000D02*
X83353733Y-64510000D01*
X83646267Y-63490000D02*
X83353733Y-63490000D01*
%TO.C,C15*%
X109853733Y-90510000D02*
X110146267Y-90510000D01*
X109853733Y-89490000D02*
X110146267Y-89490000D01*
%TO.C,R27*%
X89977500Y-84504724D02*
X89977500Y-83995276D01*
X91022500Y-84504724D02*
X91022500Y-83995276D01*
%TO.C,R31*%
X105495276Y-89477500D02*
X106004724Y-89477500D01*
X105495276Y-90522500D02*
X106004724Y-90522500D01*
%TO.C,C11*%
X71990000Y-89646267D02*
X71990000Y-89353733D01*
X73010000Y-89646267D02*
X73010000Y-89353733D01*
%TO.C,C22*%
X74990000Y-90603733D02*
X74990000Y-90896267D01*
X76010000Y-90603733D02*
X76010000Y-90896267D01*
%TO.C,R24*%
X84004724Y-90522500D02*
X83495276Y-90522500D01*
X84004724Y-89477500D02*
X83495276Y-89477500D01*
%TO.C,R20*%
X87995276Y-97727500D02*
X88504724Y-97727500D01*
X87995276Y-98772500D02*
X88504724Y-98772500D01*
%TO.C,Q2*%
X96260000Y-77580000D02*
X96260000Y-76650000D01*
X96260000Y-74420000D02*
X96260000Y-75350000D01*
X96260000Y-74420000D02*
X93100000Y-74420000D01*
X96260000Y-77580000D02*
X94800000Y-77580000D01*
%TO.C,C19*%
X113740000Y-83853733D02*
X113740000Y-84146267D01*
X114760000Y-83853733D02*
X114760000Y-84146267D01*
%TO.C,C7*%
X83490000Y-75646267D02*
X83490000Y-75353733D01*
X84510000Y-75646267D02*
X84510000Y-75353733D01*
%TO.C,R22*%
X91254724Y-87477500D02*
X90745276Y-87477500D01*
X91254724Y-88522500D02*
X90745276Y-88522500D01*
%TO.C,R34*%
X100272500Y-68495276D02*
X100272500Y-69004724D01*
X99227500Y-68495276D02*
X99227500Y-69004724D01*
%TO.C,R4*%
X69022500Y-72745276D02*
X69022500Y-73254724D01*
X67977500Y-72745276D02*
X67977500Y-73254724D01*
%TO.C,R23*%
X83495276Y-92477500D02*
X84004724Y-92477500D01*
X83495276Y-93522500D02*
X84004724Y-93522500D01*
%TO.C,R11*%
X80977500Y-75754724D02*
X80977500Y-75245276D01*
X82022500Y-75754724D02*
X82022500Y-75245276D01*
%TO.C,U7*%
X107440000Y-82000000D02*
X107440000Y-83950000D01*
X107440000Y-82000000D02*
X107440000Y-80050000D01*
X112560000Y-82000000D02*
X112560000Y-83950000D01*
X112560000Y-82000000D02*
X112560000Y-78550000D01*
%TO.C,R28*%
X102772500Y-76254724D02*
X102772500Y-75745276D01*
X101727500Y-76254724D02*
X101727500Y-75745276D01*
%TO.C,D4*%
X88250000Y-89690000D02*
X88900000Y-89690000D01*
X88250000Y-92810000D02*
X87600000Y-92810000D01*
X88250000Y-89690000D02*
X86575000Y-89690000D01*
X88250000Y-92810000D02*
X88900000Y-92810000D01*
%TO.C,Q3*%
X105660000Y-82700000D02*
X105660000Y-80800000D01*
X103340000Y-81300000D02*
X103340000Y-82700000D01*
%TO.C,R12*%
X77754724Y-88022500D02*
X77245276Y-88022500D01*
X77754724Y-86977500D02*
X77245276Y-86977500D01*
%TO.C,R18*%
X87995276Y-95772500D02*
X88504724Y-95772500D01*
X87995276Y-94727500D02*
X88504724Y-94727500D01*
%TO.C,D5*%
X101000000Y-66060000D02*
X100350000Y-66060000D01*
X101000000Y-62940000D02*
X101650000Y-62940000D01*
X101000000Y-66060000D02*
X101650000Y-66060000D01*
X101000000Y-62940000D02*
X99325000Y-62940000D01*
%TO.C,R16*%
X70022500Y-98254724D02*
X70022500Y-97745276D01*
X68977500Y-98254724D02*
X68977500Y-97745276D01*
%TO.C,R6*%
X74522500Y-75245276D02*
X74522500Y-75754724D01*
X73477500Y-75245276D02*
X73477500Y-75754724D01*
%TO.C,R19*%
X92272500Y-91504724D02*
X92272500Y-90995276D01*
X91227500Y-91504724D02*
X91227500Y-90995276D01*
%TO.C,D3*%
X83750000Y-95440000D02*
X82075000Y-95440000D01*
X83750000Y-98560000D02*
X84400000Y-98560000D01*
X83750000Y-95440000D02*
X84400000Y-95440000D01*
X83750000Y-98560000D02*
X83100000Y-98560000D01*
%TO.C,R30*%
X104754724Y-86977500D02*
X104245276Y-86977500D01*
X104754724Y-88022500D02*
X104245276Y-88022500D01*
%TO.C,RV2*%
X106504000Y-58774000D02*
X104920000Y-58774000D01*
X109280000Y-58775000D02*
X109280000Y-65725000D01*
X104920000Y-57255000D02*
X104920000Y-58774000D01*
X106940000Y-57255000D02*
X104920000Y-57255000D01*
X106504000Y-65725000D02*
X104540000Y-65725000D01*
X105930000Y-57255000D02*
X105930000Y-58014000D01*
X104540000Y-58775000D02*
X104540000Y-65725000D01*
X109280000Y-58775000D02*
X107494000Y-58775000D01*
X109280000Y-65725000D02*
X107494000Y-65725000D01*
X106504000Y-58775000D02*
X104540000Y-58775000D01*
X106940000Y-57255000D02*
X106940000Y-58734000D01*
%TO.C,C21*%
X86853733Y-87490000D02*
X87146267Y-87490000D01*
X86853733Y-88510000D02*
X87146267Y-88510000D01*
%TO.C,C10*%
X68990000Y-89646267D02*
X68990000Y-89353733D01*
X70010000Y-89646267D02*
X70010000Y-89353733D01*
%TO.C,R15*%
X70022500Y-94004724D02*
X70022500Y-93495276D01*
X68977500Y-94004724D02*
X68977500Y-93495276D01*
%TO.C,R2*%
X72022500Y-75754724D02*
X72022500Y-75245276D01*
X70977500Y-75754724D02*
X70977500Y-75245276D01*
%TO.C,R21*%
X95272500Y-91504724D02*
X95272500Y-90995276D01*
X94227500Y-91504724D02*
X94227500Y-90995276D01*
%TO.C,D2*%
X108100000Y-86650000D02*
X111250000Y-86650000D01*
X108100000Y-86650000D02*
X108100000Y-88350000D01*
X108100000Y-88350000D02*
X111250000Y-88350000D01*
%TO.C,U4*%
X83265000Y-82000000D02*
X83265000Y-79800000D01*
X83265000Y-82000000D02*
X83265000Y-84200000D01*
X88735000Y-82000000D02*
X88735000Y-84200000D01*
X88735000Y-82000000D02*
X88735000Y-78400000D01*
%TO.C,Q1*%
X91090000Y-95550000D02*
X91090000Y-96950000D01*
X93410000Y-96950000D02*
X93410000Y-95050000D01*
%TO.C,U3*%
X74890000Y-97250000D02*
X74890000Y-100850000D01*
X74890000Y-97250000D02*
X74890000Y-95050000D01*
X80110000Y-97250000D02*
X80110000Y-95050000D01*
X80110000Y-97250000D02*
X80110000Y-99450000D01*
%TO.C,RV1*%
X116475000Y-72780000D02*
X116475000Y-70994000D01*
X116475000Y-72780000D02*
X109525000Y-72780000D01*
X116476000Y-70004000D02*
X116476000Y-68420000D01*
X117995000Y-70440000D02*
X116516000Y-70440000D01*
X117995000Y-68420000D02*
X116476000Y-68420000D01*
X109525000Y-70004000D02*
X109525000Y-68040000D01*
X117995000Y-69430000D02*
X117236000Y-69430000D01*
X116475000Y-68040000D02*
X109525000Y-68040000D01*
X109525000Y-72780000D02*
X109525000Y-70994000D01*
X116475000Y-70004000D02*
X116475000Y-68040000D01*
X117995000Y-70440000D02*
X117995000Y-68420000D01*
%TO.C,R17*%
X71977500Y-98254724D02*
X71977500Y-97745276D01*
X73022500Y-98254724D02*
X73022500Y-97745276D01*
%TO.C,C9*%
X72146267Y-83490000D02*
X71853733Y-83490000D01*
X72146267Y-84510000D02*
X71853733Y-84510000D01*
%TO.C,C12*%
X80710000Y-62661252D02*
X80710000Y-60338748D01*
X77290000Y-62661252D02*
X77290000Y-60338748D01*
%TO.C,R8*%
X74254724Y-63477500D02*
X73745276Y-63477500D01*
X74254724Y-64522500D02*
X73745276Y-64522500D01*
%TO.C,U5*%
X94060000Y-69250000D02*
X94060000Y-71200000D01*
X94060000Y-69250000D02*
X94060000Y-67300000D01*
X88940000Y-69250000D02*
X88940000Y-72700000D01*
X88940000Y-69250000D02*
X88940000Y-67300000D01*
%TO.C,R9*%
X73745276Y-61522500D02*
X74254724Y-61522500D01*
X73745276Y-60477500D02*
X74254724Y-60477500D01*
%TO.C,R1*%
X69022500Y-78254724D02*
X69022500Y-77745276D01*
X67977500Y-78254724D02*
X67977500Y-77745276D01*
%TO.C,R13*%
X82272500Y-79995276D02*
X82272500Y-80504724D01*
X81227500Y-79995276D02*
X81227500Y-80504724D01*
%TO.C,R33*%
X105272500Y-68745276D02*
X105272500Y-69254724D01*
X104227500Y-68745276D02*
X104227500Y-69254724D01*
%TO.C,R26*%
X89245276Y-77522500D02*
X89754724Y-77522500D01*
X89245276Y-76477500D02*
X89754724Y-76477500D01*
%TO.C,D1*%
X86150000Y-71150000D02*
X86150000Y-68000000D01*
X86150000Y-71150000D02*
X87850000Y-71150000D01*
X87850000Y-71150000D02*
X87850000Y-68000000D01*
%TO.C,C16*%
X99853733Y-87760000D02*
X100146267Y-87760000D01*
X99853733Y-86740000D02*
X100146267Y-86740000D01*
%TO.C,C8*%
X72146267Y-86760000D02*
X71853733Y-86760000D01*
X72146267Y-85740000D02*
X71853733Y-85740000D01*
%TO.C,J3*%
X116750000Y-57290000D02*
X112750000Y-57290000D01*
X113290000Y-63790000D02*
X112760000Y-64040000D01*
X117780000Y-58160000D02*
X117180000Y-58160000D01*
X112760000Y-64040000D02*
X111760000Y-64040000D01*
X113290000Y-59210000D02*
X113290000Y-63790000D01*
X117180000Y-58160000D02*
X117180000Y-59760000D01*
X111760000Y-65420000D02*
X117780000Y-65420000D01*
X117180000Y-59760000D02*
X117780000Y-59760000D01*
X117780000Y-63240000D02*
X117180000Y-63240000D01*
X112760000Y-58960000D02*
X113290000Y-59210000D01*
X117780000Y-57580000D02*
X111760000Y-57580000D01*
X112760000Y-58960000D02*
X112760000Y-64040000D01*
X117780000Y-60700000D02*
X117180000Y-60700000D01*
X117780000Y-65420000D02*
X117780000Y-57580000D01*
X111760000Y-57580000D02*
X111760000Y-65420000D01*
X117180000Y-60700000D02*
X117180000Y-62300000D01*
X117180000Y-64840000D02*
X117780000Y-64840000D01*
X111760000Y-63790000D02*
X112760000Y-63790000D01*
X117180000Y-63240000D02*
X117180000Y-64840000D01*
X111760000Y-59210000D02*
X112760000Y-59210000D01*
X117180000Y-62300000D02*
X117780000Y-62300000D01*
X111760000Y-58960000D02*
X112760000Y-58960000D01*
%TO.C,R29*%
X105022500Y-76495276D02*
X105022500Y-77004724D01*
X103977500Y-76495276D02*
X103977500Y-77004724D01*
%TO.C,R25*%
X87745276Y-74477500D02*
X88254724Y-74477500D01*
X87745276Y-75522500D02*
X88254724Y-75522500D01*
%TO.C,C17*%
X89103733Y-64510000D02*
X89396267Y-64510000D01*
X89103733Y-63490000D02*
X89396267Y-63490000D01*
%TO.C,C4*%
X69010000Y-67103733D02*
X69010000Y-67396267D01*
X67990000Y-67103733D02*
X67990000Y-67396267D01*
%TO.C,U2*%
X74890000Y-82000000D02*
X74890000Y-84200000D01*
X80110000Y-82000000D02*
X80110000Y-78400000D01*
X74890000Y-82000000D02*
X74890000Y-79800000D01*
X80110000Y-82000000D02*
X80110000Y-84200000D01*
%TO.C,J2*%
X57570000Y-86160000D02*
X56970000Y-86160000D01*
X56970000Y-93420000D02*
X62990000Y-93420000D01*
X61990000Y-92040000D02*
X61990000Y-86960000D01*
X57570000Y-91240000D02*
X56970000Y-91240000D01*
X62990000Y-85580000D02*
X56970000Y-85580000D01*
X62990000Y-93420000D02*
X62990000Y-85580000D01*
X56970000Y-87760000D02*
X57570000Y-87760000D01*
X56970000Y-92840000D02*
X57570000Y-92840000D01*
X58000000Y-93710000D02*
X62000000Y-93710000D01*
X56970000Y-90300000D02*
X57570000Y-90300000D01*
X61990000Y-92040000D02*
X61460000Y-91790000D01*
X56970000Y-85580000D02*
X56970000Y-93420000D01*
X61460000Y-87210000D02*
X61990000Y-86960000D01*
X62990000Y-92040000D02*
X61990000Y-92040000D01*
X62990000Y-87210000D02*
X61990000Y-87210000D01*
X61990000Y-86960000D02*
X62990000Y-86960000D01*
X61460000Y-91790000D02*
X61460000Y-87210000D01*
X57570000Y-92840000D02*
X57570000Y-91240000D01*
X57570000Y-88700000D02*
X56970000Y-88700000D01*
X57570000Y-90300000D02*
X57570000Y-88700000D01*
X62990000Y-91790000D02*
X61990000Y-91790000D01*
X57570000Y-87760000D02*
X57570000Y-86160000D01*
%TO.C,U1*%
X74940000Y-69250000D02*
X74940000Y-72700000D01*
X74940000Y-69250000D02*
X74940000Y-67300000D01*
X85060000Y-69250000D02*
X85060000Y-71200000D01*
X85060000Y-69250000D02*
X85060000Y-67300000D01*
%TO.C,R32*%
X105754724Y-72977500D02*
X105245276Y-72977500D01*
X105754724Y-74022500D02*
X105245276Y-74022500D01*
%TO.C,C5*%
X80010000Y-90896267D02*
X80010000Y-90603733D01*
X78990000Y-90896267D02*
X78990000Y-90603733D01*
%TD*%
%LPC*%
D14*
%TO.C,H4*%
X100000000Y-105000000D03*
%TD*%
%TO.C,H3*%
X68000000Y-105000000D03*
%TD*%
%TO.C,H2*%
X68000000Y-55000000D03*
%TD*%
%TO.C,H1*%
X100000000Y-55000000D03*
%TD*%
D15*
%TO.C,C1*%
X70887500Y-79000000D03*
X72612500Y-79000000D03*
%TD*%
D16*
%TO.C,R14*%
X72500000Y-94662500D03*
X72500000Y-92837500D03*
%TD*%
D17*
%TO.C,J1*%
X60020000Y-81930000D03*
D18*
X60020000Y-79390000D03*
X60020000Y-76850000D03*
X60020000Y-74310000D03*
X60020000Y-71770000D03*
X60020000Y-69230000D03*
X60020000Y-66690000D03*
X60020000Y-64150000D03*
X60020000Y-61610000D03*
X60020000Y-59070000D03*
%TD*%
D16*
%TO.C,R5*%
X71500000Y-68162500D03*
X71500000Y-66337500D03*
%TD*%
D19*
%TO.C,C13*%
X93750000Y-63637500D03*
X93750000Y-59362500D03*
%TD*%
D20*
%TO.C,C14*%
X102250000Y-69612500D03*
X102250000Y-67887500D03*
%TD*%
D16*
%TO.C,R40*%
X99750000Y-76912500D03*
X99750000Y-75087500D03*
%TD*%
%TO.C,R3*%
X71500000Y-72162500D03*
X71500000Y-70337500D03*
%TD*%
D20*
%TO.C,C18*%
X95750000Y-72112500D03*
X95750000Y-70387500D03*
%TD*%
D17*
%TO.C,J4*%
X60020000Y-102290000D03*
D18*
X60020000Y-99750000D03*
X60020000Y-97210000D03*
%TD*%
D21*
%TO.C,U6*%
X100810000Y-79525000D03*
X99540000Y-79525000D03*
X98270000Y-79525000D03*
X97000000Y-79525000D03*
X95730000Y-79525000D03*
X94460000Y-79525000D03*
X93190000Y-79525000D03*
X93190000Y-84475000D03*
X94460000Y-84475000D03*
X95730000Y-84475000D03*
X97000000Y-84475000D03*
X98270000Y-84475000D03*
X99540000Y-84475000D03*
X100810000Y-84475000D03*
%TD*%
D22*
%TO.C,R10*%
X79000000Y-74587500D03*
X79000000Y-76412500D03*
%TD*%
D23*
%TO.C,C20*%
X109612500Y-76750000D03*
X107887500Y-76750000D03*
%TD*%
D16*
%TO.C,R7*%
X76500000Y-76412500D03*
X76500000Y-74587500D03*
%TD*%
D23*
%TO.C,C6*%
X84362500Y-64000000D03*
X82637500Y-64000000D03*
%TD*%
D15*
%TO.C,C15*%
X109137500Y-90000000D03*
X110862500Y-90000000D03*
%TD*%
D16*
%TO.C,R27*%
X90500000Y-85162500D03*
X90500000Y-83337500D03*
%TD*%
D24*
%TO.C,R31*%
X104837500Y-90000000D03*
X106662500Y-90000000D03*
%TD*%
D20*
%TO.C,C11*%
X72500000Y-90362500D03*
X72500000Y-88637500D03*
%TD*%
D25*
%TO.C,C22*%
X75500000Y-89887500D03*
X75500000Y-91612500D03*
%TD*%
D26*
%TO.C,R24*%
X84662500Y-90000000D03*
X82837500Y-90000000D03*
%TD*%
D24*
%TO.C,R20*%
X87337500Y-98250000D03*
X89162500Y-98250000D03*
%TD*%
D27*
%TO.C,Q2*%
X94000000Y-75050000D03*
X94000000Y-76950000D03*
X97000000Y-76000000D03*
%TD*%
D25*
%TO.C,C19*%
X114250000Y-83137500D03*
X114250000Y-84862500D03*
%TD*%
D20*
%TO.C,C7*%
X84000000Y-76362500D03*
X84000000Y-74637500D03*
%TD*%
D26*
%TO.C,R22*%
X91912500Y-88000000D03*
X90087500Y-88000000D03*
%TD*%
D22*
%TO.C,R34*%
X99750000Y-67837500D03*
X99750000Y-69662500D03*
%TD*%
%TO.C,R4*%
X68500000Y-72087500D03*
X68500000Y-73912500D03*
%TD*%
D24*
%TO.C,R23*%
X82837500Y-93000000D03*
X84662500Y-93000000D03*
%TD*%
D16*
%TO.C,R11*%
X81500000Y-76412500D03*
X81500000Y-74587500D03*
%TD*%
D21*
%TO.C,U7*%
X111905000Y-79525000D03*
X110635000Y-79525000D03*
X109365000Y-79525000D03*
X108095000Y-79525000D03*
X108095000Y-84475000D03*
X109365000Y-84475000D03*
X110635000Y-84475000D03*
X111905000Y-84475000D03*
%TD*%
D16*
%TO.C,R28*%
X102250000Y-76912500D03*
X102250000Y-75087500D03*
%TD*%
D28*
%TO.C,D4*%
X87312500Y-90300000D03*
X87312500Y-92200000D03*
X89187500Y-91250000D03*
%TD*%
D29*
%TO.C,Q3*%
X105150000Y-80670000D03*
X104500000Y-80670000D03*
X103850000Y-80670000D03*
X103850000Y-83330000D03*
X104500000Y-83330000D03*
X105150000Y-83330000D03*
%TD*%
D26*
%TO.C,R12*%
X78412500Y-87500000D03*
X76587500Y-87500000D03*
%TD*%
D24*
%TO.C,R18*%
X87337500Y-95250000D03*
X89162500Y-95250000D03*
%TD*%
D28*
%TO.C,D5*%
X100062500Y-63550000D03*
X100062500Y-65450000D03*
X101937500Y-64500000D03*
%TD*%
D16*
%TO.C,R16*%
X69500000Y-98912500D03*
X69500000Y-97087500D03*
%TD*%
D22*
%TO.C,R6*%
X74000000Y-74587500D03*
X74000000Y-76412500D03*
%TD*%
D16*
%TO.C,R19*%
X91750000Y-92162500D03*
X91750000Y-90337500D03*
%TD*%
D28*
%TO.C,D3*%
X82812500Y-96050000D03*
X82812500Y-97950000D03*
X84687500Y-97000000D03*
%TD*%
D26*
%TO.C,R30*%
X105412500Y-87500000D03*
X103587500Y-87500000D03*
%TD*%
D30*
%TO.C,RV2*%
X107000000Y-64790000D03*
X107000000Y-62250000D03*
X107000000Y-59710000D03*
%TD*%
D15*
%TO.C,C21*%
X86137500Y-88000000D03*
X87862500Y-88000000D03*
%TD*%
D20*
%TO.C,C10*%
X69500000Y-90362500D03*
X69500000Y-88637500D03*
%TD*%
D16*
%TO.C,R15*%
X69500000Y-94662500D03*
X69500000Y-92837500D03*
%TD*%
%TO.C,R2*%
X71500000Y-76412500D03*
X71500000Y-74587500D03*
%TD*%
%TO.C,R21*%
X94750000Y-92162500D03*
X94750000Y-90337500D03*
%TD*%
D31*
%TO.C,D2*%
X108750000Y-87500000D03*
X111250000Y-87500000D03*
%TD*%
D32*
%TO.C,U4*%
X88275000Y-79137500D03*
X87625000Y-79137500D03*
X86975000Y-79137500D03*
X86325000Y-79137500D03*
X85675000Y-79137500D03*
X85025000Y-79137500D03*
X84375000Y-79137500D03*
X83725000Y-79137500D03*
X83725000Y-84862500D03*
X84375000Y-84862500D03*
X85025000Y-84862500D03*
X85675000Y-84862500D03*
X86325000Y-84862500D03*
X86975000Y-84862500D03*
X87625000Y-84862500D03*
X88275000Y-84862500D03*
%TD*%
D29*
%TO.C,Q1*%
X92900000Y-94920000D03*
X92250000Y-94920000D03*
X91600000Y-94920000D03*
X91600000Y-97580000D03*
X92250000Y-97580000D03*
X92900000Y-97580000D03*
%TD*%
D33*
%TO.C,U3*%
X75550000Y-100112500D03*
X76200000Y-100112500D03*
X76850000Y-100112500D03*
X77500000Y-100112500D03*
X78150000Y-100112500D03*
X78800000Y-100112500D03*
X79450000Y-100112500D03*
X79450000Y-94387500D03*
X78800000Y-94387500D03*
X78150000Y-94387500D03*
X77500000Y-94387500D03*
X76850000Y-94387500D03*
X76200000Y-94387500D03*
X75550000Y-94387500D03*
%TD*%
D30*
%TO.C,RV1*%
X110460000Y-70500000D03*
X113000000Y-70500000D03*
X115540000Y-70500000D03*
%TD*%
D16*
%TO.C,R17*%
X72500000Y-98912500D03*
X72500000Y-97087500D03*
%TD*%
D23*
%TO.C,C9*%
X72862500Y-84000000D03*
X71137500Y-84000000D03*
%TD*%
D19*
%TO.C,C12*%
X79000000Y-63637500D03*
X79000000Y-59362500D03*
%TD*%
D26*
%TO.C,R8*%
X74912500Y-64000000D03*
X73087500Y-64000000D03*
%TD*%
D34*
%TO.C,U5*%
X89595000Y-71725000D03*
X90865000Y-71725000D03*
X92135000Y-71725000D03*
X93405000Y-71725000D03*
X93405000Y-66775000D03*
X92135000Y-66775000D03*
X90865000Y-66775000D03*
X89595000Y-66775000D03*
%TD*%
D24*
%TO.C,R9*%
X73087500Y-61000000D03*
X74912500Y-61000000D03*
%TD*%
D16*
%TO.C,R1*%
X68500000Y-78912500D03*
X68500000Y-77087500D03*
%TD*%
D22*
%TO.C,R13*%
X81750000Y-79337500D03*
X81750000Y-81162500D03*
%TD*%
%TO.C,R33*%
X104750000Y-68087500D03*
X104750000Y-69912500D03*
%TD*%
D24*
%TO.C,R26*%
X88587500Y-77000000D03*
X90412500Y-77000000D03*
%TD*%
D31*
%TO.C,D1*%
X87000000Y-70500000D03*
X87000000Y-68000000D03*
%TD*%
D15*
%TO.C,C16*%
X99137500Y-87250000D03*
X100862500Y-87250000D03*
%TD*%
D23*
%TO.C,C8*%
X72862500Y-86250000D03*
X71137500Y-86250000D03*
%TD*%
D35*
%TO.C,J3*%
X114750000Y-58960000D03*
D18*
X114750000Y-61500000D03*
X114750000Y-64040000D03*
%TD*%
D22*
%TO.C,R29*%
X104500000Y-75837500D03*
X104500000Y-77662500D03*
%TD*%
D24*
%TO.C,R25*%
X87087500Y-75000000D03*
X88912500Y-75000000D03*
%TD*%
D15*
%TO.C,C17*%
X88387500Y-64000000D03*
X90112500Y-64000000D03*
%TD*%
D25*
%TO.C,C4*%
X68500000Y-66387500D03*
X68500000Y-68112500D03*
%TD*%
D32*
%TO.C,U2*%
X79450000Y-79137500D03*
X78800000Y-79137500D03*
X78150000Y-79137500D03*
X77500000Y-79137500D03*
X76850000Y-79137500D03*
X76200000Y-79137500D03*
X75550000Y-79137500D03*
X75550000Y-84862500D03*
X76200000Y-84862500D03*
X76850000Y-84862500D03*
X77500000Y-84862500D03*
X78150000Y-84862500D03*
X78800000Y-84862500D03*
X79450000Y-84862500D03*
%TD*%
D17*
%TO.C,J2*%
X60000000Y-92040000D03*
D18*
X60000000Y-89500000D03*
X60000000Y-86960000D03*
%TD*%
D34*
%TO.C,U1*%
X75555000Y-71725000D03*
X76825000Y-71725000D03*
X78095000Y-71725000D03*
X79365000Y-71725000D03*
X80635000Y-71725000D03*
X81905000Y-71725000D03*
X83175000Y-71725000D03*
X84445000Y-71725000D03*
X84445000Y-66775000D03*
X83175000Y-66775000D03*
X81905000Y-66775000D03*
X80635000Y-66775000D03*
X79365000Y-66775000D03*
X78095000Y-66775000D03*
X76825000Y-66775000D03*
X75555000Y-66775000D03*
%TD*%
D26*
%TO.C,R32*%
X106412500Y-73500000D03*
X104587500Y-73500000D03*
%TD*%
D20*
%TO.C,C5*%
X79500000Y-91612500D03*
X79500000Y-89887500D03*
%TD*%
M02*
